<svg xmlns="http://www.w3.org/2000/svg" width="68" height="68" viewBox="0 0 68 68" fill="none">
    <path d="M29.24 40.12L21.845 32.725C21.2217 32.1017 20.4567 31.79 19.55 31.79C18.6433 31.79 17.85 32.13 17.17 32.81C16.5467 33.4333 16.235 34.2267 16.235 35.19C16.235 36.1533 16.5467 36.9467 17.17 37.57L26.86 47.26C27.4833 47.8833 28.2767 48.195 29.24 48.195C30.2033 48.195 30.9967 47.8833 31.62 47.26L50.915 27.965C51.5383 27.3417 51.85 26.5767 51.85 25.67C51.85 24.7633 51.51 23.97 50.83 23.29C50.2067 22.6667 49.4133 22.355 48.45 22.355C47.4867 22.355 46.6933 22.6667 46.07 23.29L29.24 40.12ZM34 68C29.2967 68 24.8767 67.1069 20.74 65.3208C16.6033 63.5369 13.005 61.115 9.945 58.055C6.885 54.995 4.46307 51.3967 2.6792 47.26C0.893067 43.1233 0 38.7033 0 34C0 29.2967 0.893067 24.8767 2.6792 20.74C4.46307 16.6033 6.885 13.005 9.945 9.945C13.005 6.885 16.6033 4.46193 20.74 2.6758C24.8767 0.891933 29.2967 0 34 0C38.7033 0 43.1233 0.891933 47.26 2.6758C51.3967 4.46193 54.995 6.885 58.055 9.945C61.115 13.005 63.5369 16.6033 65.3208 20.74C67.1069 24.8767 68 29.2967 68 34C68 38.7033 67.1069 43.1233 65.3208 47.26C63.5369 51.3967 61.115 54.995 58.055 58.055C54.995 61.115 51.3967 63.5369 47.26 65.3208C43.1233 67.1069 38.7033 68 34 68Z" fill="#6B7684"/>
</svg>