<svg width="69" height="68" viewBox="0 0 69 68" fill="none" xmlns="http://www.w3.org/2000/svg">
<path d="M14.6397 11.3054C14.076 11.3056 13.5252 11.4738 13.0577 11.7886C12.5902 12.1035 12.2272 12.5506 12.0151 13.0728C11.803 13.595 11.7514 14.1686 11.8671 14.7203C11.9827 15.2719 12.2602 15.7766 12.6641 16.1697L30.4942 33.9998L12.6641 51.8298C12.3922 52.0909 12.1751 52.4036 12.0255 52.7497C11.876 53.0957 11.797 53.4681 11.7931 53.845C11.7893 54.222 11.8607 54.5959 12.0032 54.9449C12.1457 55.2939 12.3564 55.611 12.6229 55.8775C12.8895 56.1441 13.2065 56.3548 13.5555 56.4973C13.9045 56.6398 14.2785 56.7112 14.6554 56.7073C15.0324 56.7035 15.4048 56.6245 15.7508 56.4749C16.0968 56.3254 16.4095 56.1083 16.6706 55.8364L34.5007 38.0063L52.3308 55.8364C52.5918 56.1083 52.9046 56.3254 53.2506 56.4749C53.5966 56.6245 53.969 56.7035 54.346 56.7074C54.7229 56.7112 55.0968 56.6398 55.4458 56.4973C55.7948 56.3548 56.1119 56.1441 56.3785 55.8776C56.645 55.611 56.8557 55.2939 56.9982 54.9449C57.1407 54.5959 57.2121 54.222 57.2083 53.845C57.2044 53.4681 57.1254 53.0957 56.9759 52.7497C56.8263 52.4036 56.6092 52.0909 56.3373 51.8298L38.5072 33.9998L56.3373 16.1697C56.7467 15.7717 57.0263 15.2593 57.1396 14.6997C57.2528 14.1401 57.1943 13.5593 56.9718 13.0334C56.7492 12.5076 56.373 12.0613 55.8925 11.7529C55.4119 11.4446 54.8494 11.2886 54.2787 11.3054C53.5426 11.3274 52.8439 11.635 52.3308 12.1632L34.5007 29.9933L16.6706 12.1632C16.4066 11.8918 16.0908 11.676 15.742 11.5287C15.3932 11.3814 15.0183 11.3055 14.6397 11.3054Z" fill="#6B7684"/>
</svg>
