<svg xmlns="http://www.w3.org/2000/svg" width="60" height="60" viewBox="0 0 60 60" fill="none">
    <path d="M54.9969 27.625C54.9969 27.35 54.9969 27.075 54.9969 26.8L54.7719 25.3L54.5469 24.325C54.5469 23.9 54.3469 23.475 54.2219 23.05C54.0969 22.625 54.0219 22.375 53.8969 22.05C53.8271 21.8535 53.7686 21.6532 53.7219 21.45C53.7219 21.45 53.7219 21.45 53.7219 21.325C52.456 17.9576 50.4851 14.8995 47.9412 12.3556C45.3974 9.81181 42.3393 7.84092 38.9719 6.575C38.9719 6.575 38.9719 6.575 38.8469 6.575L38.2719 6.4L37.2219 6.075C36.8469 6.075 36.4469 5.875 36.0719 5.775L34.9219 5.525L33.7719 5.35C33.3719 5.35 32.9969 5.35 32.5719 5.2C32.1469 5.05 31.6969 5.2 31.2719 5.2L29.9969 5H29.0219C28.5969 5 28.1469 5 27.7219 5C27.2969 5 26.9219 5 26.5219 5.15L25.3719 5.325L24.2219 5.575C23.8469 5.575 23.4469 5.75 23.0719 5.875L22.0219 6.2L21.4469 6.375C21.4469 6.375 21.4469 6.375 21.3219 6.375C17.9544 7.64092 14.8964 9.61181 12.3525 12.1556C9.80868 14.6995 7.83779 17.7576 6.57188 21.125C6.57188 21.125 6.57188 21.125 6.57188 21.25C6.52512 21.4532 6.46669 21.6535 6.39688 21.85C6.39688 22.175 6.17188 22.5 6.07188 22.85C5.97188 23.2 5.84688 23.7 5.74688 24.125L5.52188 25.1L5.29688 26.6C5.29688 26.875 5.29688 27.15 5.29688 27.425C5.29688 28.2 5.29688 29 5.29688 29.8C5.29688 30.6 5.29688 31.4 5.29688 32.175C5.29688 32.45 5.29688 32.725 5.29688 33L5.52188 34.5L5.74688 35.475C5.74688 35.9 5.94688 36.325 6.07188 36.75C6.19688 37.175 6.27188 37.425 6.39688 37.75C6.46669 37.9465 6.52512 38.1468 6.57188 38.35C6.57663 38.4082 6.57663 38.4668 6.57188 38.525C7.82678 41.8889 9.79152 44.943 12.3324 47.4797C14.8734 50.0163 17.9308 51.9758 21.2969 53.225C21.2969 53.225 21.2969 53.225 21.4219 53.225L22.0219 53.4L23.0219 53.725L24.2969 54.05L25.2719 54.275L26.7719 54.5H27.5969C28.3719 54.5 29.1719 54.625 29.9719 54.625C30.7719 54.625 31.5719 54.625 32.3469 54.5H33.1719L34.6719 54.275L35.6469 54.05L36.9219 53.725L37.9219 53.4L38.5219 53.225C38.5219 53.225 38.5219 53.225 38.6469 53.225C42.0129 51.9758 45.0704 50.0163 47.6113 47.4797C50.1522 44.943 52.117 41.8889 53.3719 38.525C53.3671 38.4668 53.3671 38.4082 53.3719 38.35C53.3719 38.15 53.4969 37.95 53.5469 37.75C53.5969 37.55 53.7719 37.1 53.8719 36.75C53.9719 36.4 54.0969 35.9 54.1969 35.475L54.4219 34.5L54.6469 33C54.6469 32.725 54.6469 32.45 54.6469 32.175C54.6469 31.4 54.7719 30.6 54.7719 29.8C54.7719 29 54.9969 28.4 54.9969 27.625ZM39.2469 12.225C42.9629 14.1341 45.9877 17.159 47.8969 20.875L40.7469 23.375C39.7104 21.7138 38.3081 20.3115 36.6469 19.275L39.2469 12.225ZM25.8469 10.475C26.3719 10.35 26.8719 10.275 27.3719 10.2H27.9719C29.4013 10.05 30.8425 10.05 32.2719 10.2H32.8719C33.3719 10.2 33.8719 10.35 34.3969 10.475H34.5469L32.0469 17.625C31.3688 17.5208 30.6826 17.4789 29.9969 17.5C29.3854 17.4992 28.775 17.5494 28.1719 17.65L25.6719 10.5L25.8469 10.475ZM20.9969 12.225L23.4969 19.375C21.8266 20.4085 20.4155 21.811 19.3719 23.475L12.2219 20.975C14.1141 17.2219 17.1407 14.1603 20.8719 12.225H20.9969ZM10.4719 34.275C10.3521 33.7818 10.2686 33.2804 10.2219 32.775C10.2219 32.55 10.2219 32.35 10.2219 32.15C10.0552 30.7215 10.0552 29.2785 10.2219 27.85C10.2219 27.65 10.2219 27.45 10.2219 27.225C10.2686 26.7196 10.3521 26.2182 10.4719 25.725C10.4719 25.725 10.4719 25.725 10.4719 25.575L17.6219 28.075C17.4218 29.2834 17.4218 30.5166 17.6219 31.725L10.4719 34.225C10.4719 34.225 10.4719 34.325 10.4719 34.275ZM20.8719 47.775C17.1559 45.8659 14.131 42.841 12.2219 39.125L19.3719 36.625C20.4083 38.2862 21.8107 39.6885 23.4719 40.725L20.8719 47.775ZM34.2719 49.525C33.7469 49.65 33.2469 49.725 32.7469 49.8H32.1469C30.7175 49.95 29.2763 49.95 27.8469 49.8H27.2469C26.7469 49.8 26.2469 49.65 25.7219 49.525H25.5719L28.0719 42.375C29.2803 42.575 30.5134 42.575 31.7219 42.375L34.2219 49.525H34.2719ZM32.5969 37.025C32.1719 37.175 31.7469 37.275 31.3469 37.375C30.5206 37.5289 29.6731 37.5289 28.8469 37.375C28.4469 37.375 28.0219 37.175 27.5969 37.025C26.5417 36.6606 25.5812 36.0653 24.7854 35.2825C23.9896 34.4996 23.3785 33.549 22.9969 32.5C22.8456 32.0853 22.7285 31.6589 22.6469 31.225C22.487 30.3993 22.487 29.5507 22.6469 28.725C22.7229 28.3088 22.8316 27.8992 22.9719 27.5C23.3488 26.4633 23.9497 25.5225 24.7319 24.7447C25.514 23.9669 26.4581 23.3712 27.4969 23C27.9219 22.85 28.3469 22.75 28.7469 22.65C29.5731 22.4961 30.4207 22.4961 31.2469 22.65C31.6469 22.65 32.0719 22.85 32.4969 23C33.531 23.3743 34.4702 23.9714 35.2478 24.749C36.0255 25.5267 36.6226 26.4659 36.9969 27.5C37.1482 27.9147 37.2653 28.3411 37.3469 28.775C37.5068 29.6007 37.5068 30.4493 37.3469 31.275C37.2653 31.7089 37.1482 32.1353 36.9969 32.55C36.6164 33.5749 36.0166 34.5042 35.2392 35.2729C34.4619 36.0416 33.5259 36.631 32.4969 37L32.5969 37.025ZM39.1219 47.8L36.6219 40.65C38.2831 39.6135 39.6854 38.2112 40.7219 36.55L47.8719 39.05C45.9493 42.809 42.8864 45.8632 39.1219 47.775V47.8ZM49.9969 32.15C49.9969 32.35 49.9969 32.55 49.9969 32.775C49.9502 33.2804 49.8666 33.7818 49.7469 34.275C49.7469 34.275 49.7469 34.275 49.7469 34.425L42.5969 31.925C42.7969 30.7166 42.7969 29.4834 42.5969 28.275L49.7469 25.775C49.7469 25.775 49.7469 25.775 49.7469 25.925C49.8666 26.4182 49.9502 26.9196 49.9969 27.425C49.9969 27.65 49.9969 27.85 49.9969 28.05C50.1636 29.4785 50.1636 30.9215 49.9969 32.35V32.15Z" fill="#333D4B"/>
</svg>