<svg width="2160" height="3840" viewBox="0 0 2160 3840" fill="none" xmlns="http://www.w3.org/2000/svg">
<g clip-path="url(#clip0_5346_14611)">
<rect width="2160" height="3840" fill="#F5F0EE"/>
<rect width="1080" height="1000" fill="url(#paint0_linear_5346_14611)"/>
<rect width="1080" height="1000" fill="url(#paint1_linear_5346_14611)"/>
<path d="M200.959 147.375V170H197.334L186.616 154.531H186.428V170H182.366V147.375H186.053L196.709 162.844H196.928V147.375H200.959ZM211.547 170V147.375H226.266V150.781H215.609V156.969H225.484V160.375H215.609V166.562H226.328V170H211.547ZM241.353 170L234.978 147.375H239.353L243.447 164.031H243.666L248.009 147.375H252.009L256.384 164.062H256.572L260.666 147.375H265.041L258.666 170H254.634L250.103 154.094H249.947L245.384 170H241.353ZM288.028 170V147.375H296.684C301.591 147.375 304.012 149.875 304.028 153.25C304.012 156 302.278 157.531 300.059 158.062V158.281C302.466 158.406 304.903 160.406 304.903 163.844C304.903 167.359 302.356 170 297.184 170H288.028ZM292.091 166.594H296.559C299.528 166.594 300.762 165.328 300.778 163.531C300.762 161.5 299.184 159.953 296.653 159.938H292.091V166.594ZM292.091 157H296.184C298.325 157 299.95 155.766 299.966 153.75C299.95 152.016 298.7 150.75 296.278 150.75H292.091V157ZM334.803 158.688C334.819 166 330.35 170.312 324.428 170.312C318.475 170.312 314.038 165.984 314.053 158.688C314.038 151.375 318.475 147.062 324.428 147.062C330.35 147.062 334.819 151.375 334.803 158.688ZM318.147 158.688C318.131 163.859 320.741 166.656 324.428 166.656C328.131 166.656 330.725 163.859 330.709 158.688C330.725 153.516 328.131 150.719 324.428 150.719C320.741 150.719 318.131 153.516 318.147 158.688ZM365.016 158.688C365.031 166 360.562 170.312 354.641 170.312C348.688 170.312 344.25 165.984 344.266 158.688C344.25 151.375 348.688 147.062 354.641 147.062C360.562 147.062 365.031 151.375 365.016 158.688ZM348.359 158.688C348.344 163.859 350.953 166.656 354.641 166.656C358.344 166.656 360.938 163.859 360.922 158.688C360.938 153.516 358.344 150.719 354.641 150.719C350.953 150.719 348.344 153.516 348.359 158.688ZM375.041 170V147.375H379.103V157.781H379.416L388.259 147.375H393.228L384.478 157.531L393.322 170H388.416L381.634 160.281L379.103 163.25V170H375.041Z" fill="#ADB5BD"/>
<path d="M225.879 203.305V241.977H219.316V203.305H225.879ZM181.816 229.496C190.4 226.479 194.795 219.008 194.766 211.391V206.234H201.504V211.391C201.475 218.773 205.811 225.746 214.219 228.559L210.879 233.715C204.844 231.605 200.537 227.387 198.193 221.967C195.85 227.768 191.455 232.396 185.215 234.652L181.816 229.496ZM190.84 255.16V238.285H197.402V249.887H227.344V255.16H190.84ZM252.656 214.73C252.627 220.531 256.934 226.332 265.312 228.617L262.266 233.832C256.201 232.074 251.865 228.412 249.463 223.783C247.148 228.852 242.754 232.836 236.543 234.711L233.379 229.613C241.729 227.211 246.152 221.059 246.152 214.73V214.32H235.078V209.164H246.152V203.07H252.715V209.164H263.73V214.32H252.656V214.73ZM240.117 243.266V238.051H275.391V256.273H268.887V243.266H240.117ZM268.887 235.648V203.246H275.391V216.664H282.773V222.172H275.391V235.648H268.887ZM328.477 227.328V232.484H312.773V244.613H333.867V249.945H285.469V244.613H306.328V232.484H291.328V207.172H328.066V212.387H297.832V227.328H328.477ZM356.895 215.961C356.865 225.805 361.582 235.473 370.02 239.164L366.094 244.379C360.117 241.449 355.898 235.824 353.643 228.881C351.328 236.205 346.992 242.299 340.898 245.375L336.797 240.102C345.439 236.059 350.244 225.863 350.273 215.961V207.523H356.895V215.961ZM364.16 225.629V220.355H375.293V203.246H381.738V256.273H375.293V225.629H364.16Z" fill="white"/>
<path d="M341.819 3771.53C341.392 3770.17 340.673 3769.1 339.662 3768.34C338.652 3767.58 337.412 3767.21 335.944 3767.22C334.662 3767.21 333.511 3767.54 332.491 3768.2C331.47 3768.86 330.662 3769.83 330.069 3771.11C329.485 3772.38 329.194 3773.91 329.194 3775.69C329.194 3777.47 329.485 3779 330.069 3780.28C330.662 3781.55 331.48 3782.52 332.522 3783.19C333.564 3783.84 334.756 3784.17 336.1 3784.16C337.298 3784.16 338.35 3783.92 339.256 3783.44C340.162 3782.96 340.866 3782.28 341.366 3781.39C341.876 3780.49 342.142 3779.45 342.162 3778.25H336.6V3775.41H345.506V3777.97C345.506 3779.84 345.105 3781.49 344.303 3782.91C343.501 3784.31 342.386 3785.4 340.959 3786.17C339.532 3786.93 337.902 3787.31 336.069 3787.31C334.037 3787.31 332.246 3786.84 330.694 3785.91C329.142 3784.96 327.933 3783.61 327.069 3781.86C326.215 3780.1 325.787 3778.04 325.787 3775.69C325.787 3773.33 326.22 3771.28 327.084 3769.53C327.949 3767.77 329.147 3766.42 330.678 3765.48C332.22 3764.54 333.965 3764.06 335.912 3764.06C337.527 3764.06 339.001 3764.38 340.334 3765.02C341.678 3765.64 342.787 3766.52 343.662 3767.66C344.537 3768.78 345.1 3770.07 345.35 3771.53H341.819ZM354.05 3764.38L359.925 3774.62H360.175L366.081 3764.38H369.987L361.769 3778.12V3787H358.331V3778.12L350.144 3764.38H354.05ZM376.031 3764.38H390.219V3767.34H379.469V3774.19H389.469V3777.12H379.469V3784.03H390.344V3787H376.031V3764.38ZM417.294 3775.69C417.294 3778.05 416.856 3780.11 415.981 3781.88C415.106 3783.62 413.893 3784.97 412.341 3785.91C410.799 3786.84 409.054 3787.31 407.106 3787.31C405.137 3787.31 403.377 3786.84 401.825 3785.91C400.283 3784.96 399.075 3783.61 398.2 3781.86C397.325 3780.1 396.887 3778.04 396.887 3775.69C396.887 3773.32 397.325 3771.27 398.2 3769.52C399.075 3767.76 400.283 3766.41 401.825 3765.47C403.377 3764.53 405.137 3764.06 407.106 3764.06C409.054 3764.06 410.799 3764.53 412.341 3765.47C413.893 3766.41 415.106 3767.76 415.981 3769.52C416.856 3771.27 417.294 3773.32 417.294 3775.69ZM400.294 3775.69C400.294 3777.48 400.585 3779.02 401.169 3780.3C401.762 3781.57 402.57 3782.53 403.591 3783.19C404.622 3783.84 405.794 3784.17 407.106 3784.16C408.408 3784.17 409.57 3783.84 410.591 3783.19C411.622 3782.53 412.429 3781.57 413.012 3780.3C413.596 3779.02 413.887 3777.48 413.887 3775.69C413.887 3773.9 413.596 3772.36 413.012 3771.09C412.429 3769.81 411.622 3768.84 410.591 3768.19C409.57 3767.53 408.408 3767.21 407.106 3767.22C405.794 3767.21 404.622 3767.53 403.591 3768.19C402.57 3768.84 401.762 3769.81 401.169 3771.09C400.585 3772.36 400.294 3773.9 400.294 3775.69ZM442.619 3787H439.462L427.994 3770.47H427.806V3787H424.369V3764.38H427.556L439.025 3780.94H439.244V3764.38H442.619V3787ZM465.725 3771.53C465.298 3770.17 464.579 3769.1 463.569 3768.34C462.558 3767.58 461.319 3767.21 459.85 3767.22C458.569 3767.21 457.418 3767.54 456.397 3768.2C455.376 3768.86 454.569 3769.83 453.975 3771.11C453.392 3772.38 453.1 3773.91 453.1 3775.69C453.1 3777.47 453.392 3779 453.975 3780.28C454.569 3781.55 455.386 3782.52 456.428 3783.19C457.47 3783.84 458.662 3784.17 460.006 3784.16C461.204 3784.16 462.256 3783.92 463.162 3783.44C464.069 3782.96 464.772 3782.28 465.272 3781.39C465.782 3780.49 466.048 3779.45 466.069 3778.25H460.506V3775.41H469.412V3777.97C469.412 3779.84 469.011 3781.49 468.209 3782.91C467.407 3784.31 466.293 3785.4 464.866 3786.17C463.439 3786.93 461.808 3787.31 459.975 3787.31C457.944 3787.31 456.152 3786.84 454.6 3785.91C453.048 3784.96 451.84 3783.61 450.975 3781.86C450.121 3780.1 449.694 3778.04 449.694 3775.69C449.694 3773.33 450.126 3771.28 450.991 3769.53C451.855 3767.77 453.053 3766.42 454.584 3765.48C456.126 3764.54 457.871 3764.06 459.819 3764.06C461.433 3764.06 462.907 3764.38 464.241 3765.02C465.584 3765.64 466.694 3766.52 467.569 3767.66C468.444 3768.78 469.006 3770.07 469.256 3771.53H465.725ZM488.894 3770.34C488.79 3769.3 488.316 3768.49 487.472 3767.91C486.628 3767.32 485.55 3767.03 484.237 3767.03C483.331 3767.03 482.534 3767.18 481.847 3767.47C481.17 3767.75 480.644 3768.15 480.269 3768.66C479.894 3769.17 479.706 3769.74 479.706 3770.38C479.706 3771.33 480.102 3772.07 480.894 3772.59C481.685 3773.11 482.665 3773.51 483.831 3773.78L486.019 3774.38C490.362 3775.43 492.54 3777.55 492.55 3780.75C492.54 3782.03 492.201 3783.17 491.534 3784.17C490.878 3785.17 489.915 3785.96 488.644 3786.53C487.383 3787.09 485.883 3787.38 484.144 3787.38C482.467 3787.38 481.003 3787.11 479.753 3786.58C478.514 3786.04 477.54 3785.27 476.831 3784.27C476.133 3783.27 475.748 3782.08 475.675 3780.72H479.112C479.206 3781.91 479.717 3782.81 480.644 3783.44C481.581 3784.05 482.748 3784.36 484.144 3784.38C485.102 3784.38 485.956 3784.22 486.706 3783.92C487.467 3783.61 488.06 3783.18 488.487 3782.62C488.925 3782.06 489.144 3781.42 489.144 3780.69C489.144 3780.06 488.961 3779.54 488.597 3779.11C488.232 3778.68 487.743 3778.33 487.128 3778.06C486.524 3777.78 485.769 3777.52 484.862 3777.28L482.175 3776.56C480.279 3776.04 478.821 3775.29 477.8 3774.31C476.79 3773.33 476.279 3772.08 476.269 3770.56C476.269 3769.28 476.618 3768.15 477.316 3767.17C478.024 3766.18 478.987 3765.42 480.206 3764.88C481.435 3764.33 482.81 3764.06 484.331 3764.06C485.842 3764.06 487.191 3764.33 488.378 3764.88C489.566 3765.41 490.498 3766.15 491.175 3767.11C491.852 3768.06 492.206 3769.14 492.237 3770.34H488.894ZM497.531 3787L505.656 3764.38H509.625L517.781 3787H514.125L512.062 3781.03H503.25L501.187 3787H497.531ZM511.062 3778.16L507.719 3768.5H507.562L504.234 3778.16H511.062ZM542.106 3787H538.95L527.481 3770.47H527.294V3787H523.856V3764.38H527.044L538.512 3780.94H538.731V3764.38H542.106V3787ZM565.212 3771.53C564.785 3770.17 564.067 3769.1 563.056 3768.34C562.046 3767.58 560.806 3767.21 559.337 3767.22C558.056 3767.21 556.905 3767.54 555.884 3768.2C554.864 3768.86 554.056 3769.83 553.462 3771.11C552.879 3772.38 552.587 3773.91 552.587 3775.69C552.587 3777.47 552.879 3779 553.462 3780.28C554.056 3781.55 554.874 3782.52 555.916 3783.19C556.957 3783.84 558.15 3784.17 559.494 3784.16C560.692 3784.16 561.744 3783.92 562.65 3783.44C563.556 3782.96 564.259 3782.28 564.759 3781.39C565.27 3780.49 565.535 3779.45 565.556 3778.25H559.994V3775.41H568.9V3777.97C568.9 3779.84 568.499 3781.49 567.697 3782.91C566.895 3784.31 565.78 3785.4 564.353 3786.17C562.926 3786.93 561.296 3787.31 559.462 3787.31C557.431 3787.31 555.64 3786.84 554.087 3785.91C552.535 3784.96 551.327 3783.61 550.462 3781.86C549.608 3780.1 549.181 3778.04 549.181 3775.69C549.181 3773.33 549.614 3771.28 550.478 3769.53C551.343 3767.77 552.541 3766.42 554.072 3765.48C555.614 3764.54 557.358 3764.06 559.306 3764.06C560.921 3764.06 562.395 3764.38 563.728 3765.02C565.072 3765.64 566.181 3766.52 567.056 3767.66C567.931 3768.78 568.494 3770.07 568.744 3771.53H565.212ZM576.069 3764.38H584.35C585.912 3764.38 587.23 3764.63 588.303 3765.14C589.376 3765.65 590.178 3766.35 590.709 3767.25C591.241 3768.15 591.506 3769.17 591.506 3770.31C591.506 3771.64 591.152 3772.69 590.444 3773.48C589.746 3774.27 588.829 3774.8 587.694 3775.09V3775.31C588.475 3775.35 589.225 3775.6 589.944 3776.06C590.662 3776.52 591.246 3777.17 591.694 3778C592.152 3778.82 592.381 3779.79 592.381 3780.91C592.381 3782.09 592.105 3783.15 591.553 3784.06C591.001 3784.98 590.152 3785.7 589.006 3786.22C587.86 3786.74 586.433 3787 584.725 3787H576.069V3764.38ZM584.412 3784.06C585.965 3784.05 587.11 3783.75 587.85 3783.16C588.6 3782.55 588.975 3781.75 588.975 3780.75C588.975 3780.02 588.793 3779.36 588.428 3778.77C588.064 3778.17 587.543 3777.7 586.866 3777.36C586.199 3777.02 585.423 3776.84 584.537 3776.84H579.506V3784.06H584.412ZM584.069 3774.16C584.829 3774.15 585.517 3773.99 586.131 3773.7C586.756 3773.41 587.246 3773 587.6 3772.47C587.954 3771.93 588.131 3771.3 588.131 3770.59C588.131 3769.61 587.787 3768.82 587.1 3768.22C586.423 3767.61 585.433 3767.31 584.131 3767.31H579.506V3774.16H584.069ZM617.237 3764.38V3779.25C617.237 3780.82 616.862 3782.22 616.112 3783.45C615.373 3784.68 614.321 3785.65 612.956 3786.34C611.602 3787.03 610.04 3787.38 608.269 3787.38C606.477 3787.38 604.899 3787.03 603.534 3786.34C602.17 3785.65 601.118 3784.68 600.378 3783.45C599.639 3782.22 599.269 3780.82 599.269 3779.25V3764.38H602.706V3778.97C602.706 3779.99 602.93 3780.9 603.378 3781.7C603.826 3782.49 604.472 3783.12 605.316 3783.58C606.159 3784.03 607.144 3784.25 608.269 3784.25C609.394 3784.25 610.373 3784.03 611.206 3783.58C612.04 3783.12 612.68 3782.49 613.128 3781.7C613.576 3780.9 613.8 3779.99 613.8 3778.97V3764.38H617.237ZM625.062 3764.38H628.5V3775.16H628.781L638.25 3764.38H642.562L633.438 3774.56L642.594 3787H638.438L631.156 3776.91L628.5 3779.97V3787H625.062V3764.38ZM655.669 3777.12H645.637V3774.25H655.669V3777.12ZM663.181 3787V3764.38H670.744C672.952 3764.38 674.853 3764.83 676.447 3765.73C678.051 3766.63 679.275 3767.93 680.119 3769.62C680.973 3771.31 681.4 3773.32 681.4 3775.66C681.4 3778 680.968 3780.03 680.103 3781.73C679.249 3783.43 678.009 3784.73 676.384 3785.64C674.759 3786.55 672.806 3787 670.525 3787H663.181ZM670.337 3784C672.879 3783.99 674.791 3783.27 676.072 3781.84C677.353 3780.42 677.994 3778.35 677.994 3775.66C677.994 3772.97 677.358 3770.92 676.087 3769.5C674.827 3768.08 672.973 3767.38 670.525 3767.38H666.619V3784H670.337ZM708.131 3775.69C708.131 3778.05 707.694 3780.11 706.819 3781.88C705.944 3783.62 704.73 3784.97 703.178 3785.91C701.636 3786.84 699.892 3787.31 697.944 3787.31C695.975 3787.31 694.215 3786.84 692.662 3785.91C691.121 3784.96 689.912 3783.61 689.037 3781.86C688.162 3780.1 687.725 3778.04 687.725 3775.69C687.725 3773.32 688.162 3771.27 689.037 3769.52C689.912 3767.76 691.121 3766.41 692.662 3765.47C694.215 3764.53 695.975 3764.06 697.944 3764.06C699.892 3764.06 701.636 3764.53 703.178 3765.47C704.73 3766.41 705.944 3767.76 706.819 3769.52C707.694 3771.27 708.131 3773.32 708.131 3775.69ZM691.131 3775.69C691.131 3777.48 691.423 3779.02 692.006 3780.3C692.6 3781.57 693.407 3782.53 694.428 3783.19C695.459 3783.84 696.631 3784.17 697.944 3784.16C699.246 3784.17 700.407 3783.84 701.428 3783.19C702.459 3782.53 703.267 3781.57 703.85 3780.3C704.433 3779.02 704.725 3777.48 704.725 3775.69C704.725 3773.9 704.433 3772.36 703.85 3771.09C703.267 3769.81 702.459 3768.84 701.428 3768.19C700.407 3767.53 699.246 3767.21 697.944 3767.22C696.631 3767.21 695.459 3767.53 694.428 3768.19C693.407 3768.84 692.6 3769.81 692.006 3771.09C691.423 3772.36 691.131 3773.9 691.131 3775.69ZM745.875 3775.69C745.875 3778.05 745.438 3780.11 744.562 3781.88C743.688 3783.62 742.474 3784.97 740.922 3785.91C739.38 3786.84 737.635 3787.31 735.688 3787.31C733.719 3787.31 731.958 3786.84 730.406 3785.91C728.865 3784.96 727.656 3783.61 726.781 3781.86C725.906 3780.1 725.469 3778.04 725.469 3775.69C725.469 3773.32 725.906 3771.27 726.781 3769.52C727.656 3767.76 728.865 3766.41 730.406 3765.47C731.958 3764.53 733.719 3764.06 735.688 3764.06C737.635 3764.06 739.38 3764.53 740.922 3765.47C742.474 3766.41 743.688 3767.76 744.562 3769.52C745.438 3771.27 745.875 3773.32 745.875 3775.69ZM728.875 3775.69C728.875 3777.48 729.167 3779.02 729.75 3780.3C730.344 3781.57 731.151 3782.53 732.172 3783.19C733.203 3783.84 734.375 3784.17 735.688 3784.16C736.99 3784.17 738.151 3783.84 739.172 3783.19C740.203 3782.53 741.01 3781.57 741.594 3780.3C742.177 3779.02 742.469 3777.48 742.469 3775.69C742.469 3773.9 742.177 3772.36 741.594 3771.09C741.01 3769.81 740.203 3768.84 739.172 3768.19C738.151 3767.53 736.99 3767.21 735.688 3767.22C734.375 3767.21 733.203 3767.53 732.172 3768.19C731.151 3768.84 730.344 3769.81 729.75 3771.09C729.167 3772.36 728.875 3773.9 728.875 3775.69ZM752.95 3764.38H766.981V3767.34H756.387V3774.19H765.981V3777.12H756.387V3787H752.95V3764.38ZM774.025 3764.38H788.056V3767.34H777.462V3774.19H787.056V3777.12H777.462V3787H774.025V3764.38ZM798.537 3787H795.1V3764.38H798.537V3787ZM821.644 3771.75C821.467 3770.8 821.097 3769.98 820.534 3769.3C819.982 3768.61 819.295 3768.09 818.472 3767.73C817.659 3767.38 816.769 3767.21 815.8 3767.22C814.487 3767.21 813.316 3767.54 812.284 3768.2C811.264 3768.86 810.456 3769.83 809.862 3771.11C809.279 3772.38 808.987 3773.91 808.987 3775.69C808.987 3777.48 809.279 3779.02 809.862 3780.3C810.456 3781.57 811.264 3782.53 812.284 3783.19C813.316 3783.84 814.487 3784.17 815.8 3784.16C816.758 3784.17 817.644 3784 818.456 3783.66C819.269 3783.3 819.951 3782.79 820.503 3782.11C821.066 3781.43 821.446 3780.62 821.644 3779.69L825.112 3779.72C824.873 3781.2 824.326 3782.52 823.472 3783.67C822.628 3784.82 821.54 3785.71 820.206 3786.36C818.883 3786.99 817.404 3787.31 815.769 3787.31C813.8 3787.31 812.045 3786.84 810.503 3785.91C808.961 3784.97 807.753 3783.62 806.878 3781.88C806.014 3780.11 805.581 3778.05 805.581 3775.69C805.581 3773.32 806.019 3771.27 806.894 3769.52C807.769 3767.76 808.977 3766.41 810.519 3765.47C812.06 3764.53 813.81 3764.06 815.769 3764.06C817.362 3764.06 818.821 3764.37 820.144 3764.98C821.467 3765.59 822.56 3766.47 823.425 3767.62C824.3 3768.78 824.862 3770.16 825.112 3771.75H821.644ZM832.031 3764.38H846.219V3767.34H835.469V3774.19H845.469V3777.12H835.469V3784.03H846.344V3787H832.031V3764.38ZM884.306 3775.69C884.306 3778.05 883.869 3780.11 882.994 3781.88C882.119 3783.62 880.905 3784.97 879.353 3785.91C877.811 3786.84 876.067 3787.31 874.119 3787.31C872.15 3787.31 870.39 3786.84 868.837 3785.91C867.296 3784.96 866.087 3783.61 865.212 3781.86C864.337 3780.1 863.9 3778.04 863.9 3775.69C863.9 3773.32 864.337 3771.27 865.212 3769.52C866.087 3767.76 867.296 3766.41 868.837 3765.47C870.39 3764.53 872.15 3764.06 874.119 3764.06C876.067 3764.06 877.811 3764.53 879.353 3765.47C880.905 3766.41 882.119 3767.76 882.994 3769.52C883.869 3771.27 884.306 3773.32 884.306 3775.69ZM867.306 3775.69C867.306 3777.48 867.598 3779.02 868.181 3780.3C868.775 3781.57 869.582 3782.53 870.603 3783.19C871.634 3783.84 872.806 3784.17 874.119 3784.16C875.421 3784.17 876.582 3783.84 877.603 3783.19C878.634 3782.53 879.442 3781.57 880.025 3780.3C880.608 3779.02 880.9 3777.48 880.9 3775.69C880.9 3773.9 880.608 3772.36 880.025 3771.09C879.442 3769.81 878.634 3768.84 877.603 3768.19C876.582 3767.53 875.421 3767.21 874.119 3767.22C872.806 3767.21 871.634 3767.53 870.603 3768.19C869.582 3768.84 868.775 3769.81 868.181 3771.09C867.598 3772.36 867.306 3773.9 867.306 3775.69ZM891.381 3764.38H905.412V3767.34H894.819V3774.19H904.412V3777.12H894.819V3787H891.381V3764.38ZM923.469 3764.38H937.656V3767.34H926.906V3774.19H936.906V3777.12H926.906V3784.03H937.781V3787H923.469V3764.38ZM945.075 3787V3764.38H952.637C954.846 3764.38 956.747 3764.83 958.341 3765.73C959.945 3766.63 961.169 3767.93 962.012 3769.62C962.867 3771.31 963.294 3773.32 963.294 3775.66C963.294 3778 962.861 3780.03 961.997 3781.73C961.143 3783.43 959.903 3784.73 958.278 3785.64C956.653 3786.55 954.7 3787 952.419 3787H945.075ZM952.231 3784C954.773 3783.99 956.684 3783.27 957.966 3781.84C959.247 3780.42 959.887 3778.35 959.887 3775.66C959.887 3772.97 959.252 3770.92 957.981 3769.5C956.721 3768.08 954.867 3767.38 952.419 3767.38H948.512V3784H952.231ZM988.337 3764.38V3779.25C988.337 3780.82 987.962 3782.22 987.212 3783.45C986.473 3784.68 985.421 3785.65 984.056 3786.34C982.702 3787.03 981.14 3787.38 979.369 3787.38C977.577 3787.38 975.999 3787.03 974.634 3786.34C973.27 3785.65 972.218 3784.68 971.478 3783.45C970.739 3782.22 970.369 3780.82 970.369 3779.25V3764.38H973.806V3778.97C973.806 3779.99 974.03 3780.9 974.478 3781.7C974.926 3782.49 975.572 3783.12 976.416 3783.58C977.259 3784.03 978.244 3784.25 979.369 3784.25C980.494 3784.25 981.473 3784.03 982.306 3783.58C983.14 3783.12 983.78 3782.49 984.228 3781.7C984.676 3780.9 984.9 3779.99 984.9 3778.97V3764.38H988.337ZM1011.47 3771.75C1011.3 3770.8 1010.93 3769.98 1010.37 3769.3C1009.81 3768.61 1009.13 3768.09 1008.3 3767.73C1007.49 3767.38 1006.6 3767.21 1005.63 3767.22C1004.32 3767.21 1003.15 3767.54 1002.12 3768.2C1001.09 3768.86 1000.29 3769.83 999.694 3771.11C999.11 3772.38 998.819 3773.91 998.819 3775.69C998.819 3777.48 999.11 3779.02 999.694 3780.3C1000.29 3781.57 1001.09 3782.53 1002.12 3783.19C1003.15 3783.84 1004.32 3784.17 1005.63 3784.16C1006.59 3784.17 1007.47 3784 1008.29 3783.66C1009.1 3783.3 1009.78 3782.79 1010.33 3782.11C1010.9 3781.43 1011.28 3780.62 1011.47 3779.69L1014.94 3779.72C1014.7 3781.2 1014.16 3782.52 1013.3 3783.67C1012.46 3784.82 1011.37 3785.71 1010.04 3786.36C1008.71 3786.99 1007.24 3787.31 1005.6 3787.31C1003.63 3787.31 1001.88 3786.84 1000.33 3785.91C998.793 3784.97 997.584 3783.62 996.709 3781.88C995.845 3780.11 995.412 3778.05 995.412 3775.69C995.412 3773.32 995.85 3771.27 996.725 3769.52C997.6 3767.76 998.808 3766.41 1000.35 3765.47C1001.89 3764.53 1003.64 3764.06 1005.6 3764.06C1007.19 3764.06 1008.65 3764.37 1009.97 3764.98C1011.3 3765.59 1012.39 3766.47 1013.26 3767.62C1014.13 3768.78 1014.69 3770.16 1014.94 3771.75H1011.47ZM1019.99 3787L1028.11 3764.38H1032.08L1040.24 3787H1036.58L1034.52 3781.03H1025.71L1023.64 3787H1019.99ZM1033.52 3778.16L1030.17 3768.5H1030.02L1026.69 3778.16H1033.52ZM1042.47 3764.38H1060V3767.34H1052.97V3787H1049.53V3767.34H1042.47V3764.38ZM1070.14 3787H1066.7V3764.38H1070.14V3787ZM1097.59 3775.69C1097.59 3778.05 1097.15 3780.11 1096.27 3781.88C1095.4 3783.62 1094.19 3784.97 1092.63 3785.91C1091.09 3786.84 1089.35 3787.31 1087.4 3787.31C1085.43 3787.31 1083.67 3786.84 1082.12 3785.91C1080.58 3784.96 1079.37 3783.61 1078.49 3781.86C1077.62 3780.1 1077.18 3778.04 1077.18 3775.69C1077.18 3773.32 1077.62 3771.27 1078.49 3769.52C1079.37 3767.76 1080.58 3766.41 1082.12 3765.47C1083.67 3764.53 1085.43 3764.06 1087.4 3764.06C1089.35 3764.06 1091.09 3764.53 1092.63 3765.47C1094.19 3766.41 1095.4 3767.76 1096.27 3769.52C1097.15 3771.27 1097.59 3773.32 1097.59 3775.69ZM1080.59 3775.69C1080.59 3777.48 1080.88 3779.02 1081.46 3780.3C1082.06 3781.57 1082.86 3782.53 1083.88 3783.19C1084.92 3783.84 1086.09 3784.17 1087.4 3784.16C1088.7 3784.17 1089.86 3783.84 1090.88 3783.19C1091.92 3782.53 1092.72 3781.57 1093.31 3780.3C1093.89 3779.02 1094.18 3777.48 1094.18 3775.69C1094.18 3773.9 1093.89 3772.36 1093.31 3771.09C1092.72 3769.81 1091.92 3768.84 1090.88 3768.19C1089.86 3767.53 1088.7 3767.21 1087.4 3767.22C1086.09 3767.21 1084.92 3767.53 1083.88 3768.19C1082.86 3768.84 1082.06 3769.81 1081.46 3771.09C1080.88 3772.36 1080.59 3773.9 1080.59 3775.69ZM1122.91 3787H1119.76L1108.29 3770.47H1108.1V3787H1104.66V3764.38H1107.85L1119.32 3780.94H1119.54V3764.38H1122.91V3787ZM1145.19 3787H1141.75V3764.38H1145.19V3787ZM1171.23 3787H1168.07L1156.61 3770.47H1156.42V3787H1152.98V3764.38H1156.17L1167.64 3780.94H1167.86V3764.38H1171.23V3787ZM1179.06 3764.38H1193.09V3767.34H1182.49V3774.19H1192.09V3777.12H1182.49V3787H1179.06V3764.38ZM1219.79 3775.69C1219.79 3778.05 1219.35 3780.11 1218.47 3781.88C1217.6 3783.62 1216.39 3784.97 1214.83 3785.91C1213.29 3786.84 1211.55 3787.31 1209.6 3787.31C1207.63 3787.31 1205.87 3786.84 1204.32 3785.91C1202.78 3784.96 1201.57 3783.61 1200.69 3781.86C1199.82 3780.1 1199.38 3778.04 1199.38 3775.69C1199.38 3773.32 1199.82 3771.27 1200.69 3769.52C1201.57 3767.76 1202.78 3766.41 1204.32 3765.47C1205.87 3764.53 1207.63 3764.06 1209.6 3764.06C1211.55 3764.06 1213.29 3764.53 1214.83 3765.47C1216.39 3766.41 1217.6 3767.76 1218.47 3769.52C1219.35 3771.27 1219.79 3773.32 1219.79 3775.69ZM1202.79 3775.69C1202.79 3777.48 1203.08 3779.02 1203.66 3780.3C1204.26 3781.57 1205.06 3782.53 1206.08 3783.19C1207.12 3783.84 1208.29 3784.17 1209.6 3784.16C1210.9 3784.17 1212.06 3783.84 1213.08 3783.19C1214.12 3782.53 1214.92 3781.57 1215.51 3780.3C1216.09 3779.02 1216.38 3777.48 1216.38 3775.69C1216.38 3773.9 1216.09 3772.36 1215.51 3771.09C1214.92 3769.81 1214.12 3768.84 1213.08 3768.19C1212.06 3767.53 1210.9 3767.21 1209.6 3767.22C1208.29 3767.21 1207.12 3767.53 1206.08 3768.19C1205.06 3768.84 1204.26 3769.81 1203.66 3771.09C1203.08 3772.36 1202.79 3773.9 1202.79 3775.69ZM1226.86 3764.38H1234.93C1236.63 3764.38 1238.08 3764.67 1239.25 3765.27C1240.43 3765.86 1241.31 3766.69 1241.89 3767.75C1242.48 3768.81 1242.77 3770.05 1242.77 3771.47C1242.77 3773.01 1242.42 3774.33 1241.72 3775.44C1241.02 3776.53 1240 3777.34 1238.64 3777.86L1243.64 3787H1239.74L1235.14 3778.47H1234.93H1230.3V3787H1226.86V3764.38ZM1234.58 3775.5C1236.21 3775.49 1237.4 3775.15 1238.16 3774.47C1238.92 3773.78 1239.3 3772.78 1239.3 3771.47C1239.3 3770.15 1238.91 3769.12 1238.14 3768.41C1237.38 3767.69 1236.2 3767.32 1234.58 3767.31H1230.3V3775.5H1234.58ZM1253.97 3764.38L1261.12 3781.91H1261.41L1268.56 3764.38H1272.75V3787H1269.47V3770.66H1269.25L1262.62 3786.97H1259.91L1253.25 3770.62H1253.06V3787H1249.78V3764.38H1253.97ZM1278.86 3787L1286.98 3764.38H1290.95L1299.11 3787H1295.45L1293.39 3781.03H1284.57L1282.51 3787H1278.86ZM1292.39 3778.16L1289.04 3768.5H1288.89L1285.56 3778.16H1292.39ZM1301.34 3764.38H1318.87V3767.34H1311.84V3787H1308.4V3767.34H1301.34V3764.38ZM1329.01 3787H1325.57V3764.38H1329.01V3787ZM1356.46 3775.69C1356.46 3778.05 1356.02 3780.11 1355.14 3781.88C1354.27 3783.62 1353.06 3784.97 1351.5 3785.91C1349.96 3786.84 1348.22 3787.31 1346.27 3787.31C1344.3 3787.31 1342.54 3786.84 1340.99 3785.91C1339.45 3784.96 1338.24 3783.61 1337.36 3781.86C1336.49 3780.1 1336.05 3778.04 1336.05 3775.69C1336.05 3773.32 1336.49 3771.27 1337.36 3769.52C1338.24 3767.76 1339.45 3766.41 1340.99 3765.47C1342.54 3764.53 1344.3 3764.06 1346.27 3764.06C1348.22 3764.06 1349.96 3764.53 1351.5 3765.47C1353.06 3766.41 1354.27 3767.76 1355.14 3769.52C1356.02 3771.27 1356.46 3773.32 1356.46 3775.69ZM1339.46 3775.69C1339.46 3777.48 1339.75 3779.02 1340.33 3780.3C1340.93 3781.57 1341.73 3782.53 1342.75 3783.19C1343.78 3783.84 1344.96 3784.17 1346.27 3784.16C1347.57 3784.17 1348.73 3783.84 1349.75 3783.19C1350.78 3782.53 1351.59 3781.57 1352.18 3780.3C1352.76 3779.02 1353.05 3777.48 1353.05 3775.69C1353.05 3773.9 1352.76 3772.36 1352.18 3771.09C1351.59 3769.81 1350.78 3768.84 1349.75 3768.19C1348.73 3767.53 1347.57 3767.21 1346.27 3767.22C1344.96 3767.21 1343.78 3767.53 1342.75 3768.19C1341.73 3768.84 1340.93 3769.81 1340.33 3771.09C1339.75 3772.36 1339.46 3773.9 1339.46 3775.69ZM1381.78 3787H1378.62L1367.16 3770.47H1366.97V3787H1363.53V3764.38H1366.72L1378.19 3780.94H1378.41V3764.38H1381.78V3787ZM1415.93 3771.75C1415.75 3770.8 1415.38 3769.98 1414.82 3769.3C1414.27 3768.61 1413.58 3768.09 1412.76 3767.73C1411.95 3767.38 1411.06 3767.21 1410.09 3767.22C1408.78 3767.21 1407.6 3767.54 1406.57 3768.2C1405.55 3768.86 1404.74 3769.83 1404.15 3771.11C1403.57 3772.38 1403.28 3773.91 1403.28 3775.69C1403.28 3777.48 1403.57 3779.02 1404.15 3780.3C1404.74 3781.57 1405.55 3782.53 1406.57 3783.19C1407.6 3783.84 1408.78 3784.17 1410.09 3784.16C1411.05 3784.17 1411.93 3784 1412.74 3783.66C1413.56 3783.3 1414.24 3782.79 1414.79 3782.11C1415.35 3781.43 1415.73 3780.62 1415.93 3779.69L1419.4 3779.72C1419.16 3781.2 1418.61 3782.52 1417.76 3783.67C1416.92 3784.82 1415.83 3785.71 1414.49 3786.36C1413.17 3786.99 1411.69 3787.31 1410.06 3787.31C1408.09 3787.31 1406.33 3786.84 1404.79 3785.91C1403.25 3784.97 1402.04 3783.62 1401.17 3781.88C1400.3 3780.11 1399.87 3778.05 1399.87 3775.69C1399.87 3773.32 1400.31 3771.27 1401.18 3769.52C1402.06 3767.76 1403.26 3766.41 1404.81 3765.47C1406.35 3764.53 1408.1 3764.06 1410.06 3764.06C1411.65 3764.06 1413.11 3764.37 1414.43 3764.98C1415.75 3765.59 1416.85 3766.47 1417.71 3767.62C1418.59 3768.78 1419.15 3770.16 1419.4 3771.75H1415.93ZM1426.32 3764.38H1440.51V3767.34H1429.76V3774.19H1439.76V3777.12H1429.76V3784.03H1440.63V3787H1426.32V3764.38ZM1466.17 3787H1463.02L1451.55 3770.47H1451.36V3787H1447.92V3764.38H1451.11L1462.58 3780.94H1462.8V3764.38H1466.17V3787ZM1472.88 3764.38H1490.41V3767.34H1483.38V3787H1479.94V3767.34H1472.88V3764.38ZM1497.11 3764.38H1511.29V3767.34H1500.54V3774.19H1510.54V3777.12H1500.54V3784.03H1511.42V3787H1497.11V3764.38ZM1518.71 3764.38H1526.78C1528.48 3764.38 1529.93 3764.67 1531.1 3765.27C1532.28 3765.86 1533.16 3766.69 1533.74 3767.75C1534.33 3768.81 1534.62 3770.05 1534.62 3771.47C1534.62 3773.01 1534.27 3774.33 1533.57 3775.44C1532.87 3776.53 1531.85 3777.34 1530.49 3777.86L1535.49 3787H1531.59L1526.99 3778.47H1526.78H1522.15V3787H1518.71V3764.38ZM1526.43 3775.5C1528.06 3775.49 1529.25 3775.15 1530.01 3774.47C1530.77 3773.78 1531.15 3772.78 1531.15 3771.47C1531.15 3770.15 1530.76 3769.12 1529.99 3768.41C1529.23 3767.69 1528.05 3767.32 1526.43 3767.31H1522.15V3775.5H1526.43ZM1552.64 3764.38H1560.71C1562.41 3764.38 1563.85 3764.69 1565.02 3765.33C1566.2 3765.95 1567.08 3766.82 1567.66 3767.92C1568.25 3769.03 1568.55 3770.29 1568.55 3771.72C1568.55 3773.14 1568.25 3774.4 1567.66 3775.52C1567.08 3776.62 1566.2 3777.49 1565.02 3778.12C1563.84 3778.75 1562.4 3779.06 1560.71 3779.06H1556.08V3787H1552.64V3764.38ZM1560.36 3776.12C1561.96 3776.14 1563.14 3775.74 1563.91 3774.94C1564.69 3774.14 1565.08 3773.06 1565.08 3771.72C1565.08 3770.36 1564.69 3769.3 1563.91 3768.52C1563.14 3767.72 1561.96 3767.32 1560.36 3767.31H1556.08V3776.12H1560.36ZM1593.34 3764.38V3779.25C1593.34 3780.82 1592.97 3782.22 1592.22 3783.45C1591.48 3784.68 1590.43 3785.65 1589.06 3786.34C1587.71 3787.03 1586.15 3787.38 1584.38 3787.38C1582.58 3787.38 1581.01 3787.03 1579.64 3786.34C1578.28 3785.65 1577.22 3784.68 1576.48 3783.45C1575.74 3782.22 1575.38 3780.82 1575.38 3779.25V3764.38H1578.81V3778.97C1578.81 3779.99 1579.04 3780.9 1579.48 3781.7C1579.93 3782.49 1580.58 3783.12 1581.42 3783.58C1582.27 3784.03 1583.25 3784.25 1584.38 3784.25C1585.5 3784.25 1586.48 3784.03 1587.31 3783.58C1588.15 3783.12 1588.79 3782.49 1589.23 3781.7C1589.68 3780.9 1589.91 3779.99 1589.91 3778.97V3764.38H1593.34ZM1601.17 3764.38H1609.45C1611.01 3764.38 1612.33 3764.63 1613.4 3765.14C1614.48 3765.65 1615.28 3766.35 1615.81 3767.25C1616.34 3768.15 1616.61 3769.17 1616.61 3770.31C1616.61 3771.64 1616.25 3772.69 1615.54 3773.48C1614.85 3774.27 1613.93 3774.8 1612.79 3775.09V3775.31C1613.57 3775.35 1614.32 3775.6 1615.04 3776.06C1615.76 3776.52 1616.35 3777.17 1616.79 3778C1617.25 3778.82 1617.48 3779.79 1617.48 3780.91C1617.48 3782.09 1617.21 3783.15 1616.65 3784.06C1616.1 3784.98 1615.25 3785.7 1614.11 3786.22C1612.96 3786.74 1611.53 3787 1609.82 3787H1601.17V3764.38ZM1609.51 3784.06C1611.06 3784.05 1612.21 3783.75 1612.95 3783.16C1613.7 3782.55 1614.07 3781.75 1614.07 3780.75C1614.07 3780.02 1613.89 3779.36 1613.53 3778.77C1613.16 3778.17 1612.64 3777.7 1611.97 3777.36C1611.3 3777.02 1610.52 3776.84 1609.64 3776.84H1604.61V3784.06H1609.51ZM1609.17 3774.16C1609.93 3774.15 1610.62 3773.99 1611.23 3773.7C1611.86 3773.41 1612.35 3773 1612.7 3772.47C1613.05 3771.93 1613.23 3771.3 1613.23 3770.59C1613.23 3769.61 1612.89 3768.82 1612.2 3768.22C1611.52 3767.61 1610.53 3767.31 1609.23 3767.31H1604.61V3774.16H1609.17ZM1624.37 3764.38H1627.81V3784.03H1638.03V3787H1624.37V3764.38ZM1648.19 3787H1644.76V3764.38H1648.19V3787ZM1671.3 3771.75C1671.12 3770.8 1670.75 3769.98 1670.19 3769.3C1669.64 3768.61 1668.95 3768.09 1668.13 3767.73C1667.32 3767.38 1666.42 3767.21 1665.46 3767.22C1664.14 3767.21 1662.97 3767.54 1661.94 3768.2C1660.92 3768.86 1660.11 3769.83 1659.52 3771.11C1658.94 3772.38 1658.64 3773.91 1658.64 3775.69C1658.64 3777.48 1658.94 3779.02 1659.52 3780.3C1660.11 3781.57 1660.92 3782.53 1661.94 3783.19C1662.97 3783.84 1664.14 3784.17 1665.46 3784.16C1666.41 3784.17 1667.3 3784 1668.11 3783.66C1668.92 3783.3 1669.61 3782.79 1670.16 3782.11C1670.72 3781.43 1671.1 3780.62 1671.3 3779.69L1674.77 3779.72C1674.53 3781.2 1673.98 3782.52 1673.13 3783.67C1672.28 3784.82 1671.2 3785.71 1669.86 3786.36C1668.54 3786.99 1667.06 3787.31 1665.42 3787.31C1663.46 3787.31 1661.7 3786.84 1660.16 3785.91C1658.62 3784.97 1657.41 3783.62 1656.53 3781.88C1655.67 3780.11 1655.24 3778.05 1655.24 3775.69C1655.24 3773.32 1655.67 3771.27 1656.55 3769.52C1657.42 3767.76 1658.63 3766.41 1660.17 3765.47C1661.72 3764.53 1663.47 3764.06 1665.42 3764.06C1667.02 3764.06 1668.48 3764.37 1669.8 3764.98C1671.12 3765.59 1672.22 3766.47 1673.08 3767.62C1673.96 3768.78 1674.52 3770.16 1674.77 3771.75H1671.3ZM1692.7 3764.38H1696.14V3784.03H1706.36V3787H1692.7V3764.38ZM1716.53 3787H1713.09V3764.38H1716.53V3787ZM1724.32 3764.38H1732.6C1734.16 3764.38 1735.48 3764.63 1736.55 3765.14C1737.63 3765.65 1738.43 3766.35 1738.96 3767.25C1739.49 3768.15 1739.76 3769.17 1739.76 3770.31C1739.76 3771.64 1739.4 3772.69 1738.69 3773.48C1738 3774.27 1737.08 3774.8 1735.94 3775.09V3775.31C1736.72 3775.35 1737.47 3775.6 1738.19 3776.06C1738.91 3776.52 1739.5 3777.17 1739.94 3778C1740.4 3778.82 1740.63 3779.79 1740.63 3780.91C1740.63 3782.09 1740.36 3783.15 1739.8 3784.06C1739.25 3784.98 1738.4 3785.7 1737.26 3786.22C1736.11 3786.74 1734.68 3787 1732.97 3787H1724.32V3764.38ZM1732.66 3784.06C1734.21 3784.05 1735.36 3783.75 1736.1 3783.16C1736.85 3782.55 1737.22 3781.75 1737.22 3780.75C1737.22 3780.02 1737.04 3779.36 1736.68 3778.77C1736.31 3778.17 1735.79 3777.7 1735.12 3777.36C1734.45 3777.02 1733.67 3776.84 1732.79 3776.84H1727.76V3784.06H1732.66ZM1732.32 3774.16C1733.08 3774.15 1733.77 3773.99 1734.38 3773.7C1735.01 3773.41 1735.5 3773 1735.85 3772.47C1736.2 3771.93 1736.38 3771.3 1736.38 3770.59C1736.38 3769.61 1736.04 3768.82 1735.35 3768.22C1734.67 3767.61 1733.68 3767.31 1732.38 3767.31H1727.76V3774.16H1732.32ZM1747.52 3764.38H1755.58C1757.29 3764.38 1758.73 3764.67 1759.91 3765.27C1761.09 3765.86 1761.97 3766.69 1762.55 3767.75C1763.13 3768.81 1763.42 3770.05 1763.42 3771.47C1763.42 3773.01 1763.08 3774.33 1762.38 3775.44C1761.68 3776.53 1760.65 3777.34 1759.3 3777.86L1764.3 3787H1760.39L1755.8 3778.47H1755.58H1750.96V3787H1747.52V3764.38ZM1755.24 3775.5C1756.86 3775.49 1758.06 3775.15 1758.82 3774.47C1759.58 3773.78 1759.96 3772.78 1759.96 3771.47C1759.96 3770.15 1759.57 3769.12 1758.8 3768.41C1758.04 3767.69 1756.85 3767.32 1755.24 3767.31H1750.96V3775.5H1755.24ZM1768.72 3787L1776.84 3764.38H1780.81L1788.97 3787H1785.31L1783.25 3781.03H1774.44L1772.38 3787H1768.72ZM1782.25 3778.16L1778.91 3768.5H1778.75L1775.42 3778.16H1782.25ZM1795.04 3764.38H1803.11C1804.81 3764.38 1806.26 3764.67 1807.43 3765.27C1808.61 3765.86 1809.49 3766.69 1810.07 3767.75C1810.66 3768.81 1810.95 3770.05 1810.95 3771.47C1810.95 3773.01 1810.6 3774.33 1809.9 3775.44C1809.21 3776.53 1808.18 3777.34 1806.82 3777.86L1811.82 3787H1807.92L1803.32 3778.47H1803.11H1798.48V3787H1795.04V3764.38ZM1802.76 3775.5C1804.39 3775.49 1805.58 3775.15 1806.34 3774.47C1807.1 3773.78 1807.48 3772.78 1807.48 3771.47C1807.48 3770.15 1807.1 3769.12 1806.32 3768.41C1805.56 3767.69 1804.38 3767.32 1802.76 3767.31H1798.48V3775.5H1802.76ZM1819.31 3764.38L1825.18 3774.62H1825.43L1831.34 3764.38H1835.24L1827.03 3778.12V3787H1823.59V3778.12L1815.4 3764.38H1819.31Z" fill="#ADB5BD"/>
</g>
<defs>
<linearGradient id="paint0_linear_5346_14611" x1="48.5" y1="2.31791e-06" x2="295.624" y2="1057.13" gradientUnits="userSpaceOnUse">
<stop stop-color="#EDE3DA"/>
<stop offset="1" stop-color="#D9D0C9"/>
</linearGradient>
<linearGradient id="paint1_linear_5346_14611" x1="112.5" y1="2.53932e-07" x2="620.281" y2="1019.46" gradientUnits="userSpaceOnUse">
<stop stop-color="#315FAD"/>
<stop offset="1" stop-color="#2A4F8C"/>
</linearGradient>
<clipPath id="clip0_5346_14611">
<rect width="2160" height="3840" fill="white"/>
</clipPath>
</defs>
</svg>
