<svg width="96" height="96" viewBox="0 0 96 96" fill="none" xmlns="http://www.w3.org/2000/svg">
<path d="M68.8462 37.6315V26.4615C68.8462 15.1797 59.6665 6 48.3846 6C37.1028 6 27.9231 15.1797 27.9231 26.4615V37.6357C20.3674 40.6467 15 48 15 56.6154V69.5385C15 80.8203 24.1797 90 35.4615 90H61.3077C72.5895 90 81.7692 80.8203 81.7692 69.5385V56.6154C81.7692 48 76.4018 40.6425 68.8462 37.6315ZM34.3846 26.4615C34.3846 18.7422 40.6652 12.4615 48.3846 12.4615C56.104 12.4615 62.3846 18.7422 62.3846 26.4615V36.2616C62.0185 36.2401 61.6782 36.1538 61.3077 36.1538H35.4615C35.0911 36.1538 34.7508 36.2444 34.3846 36.2616V26.4615ZM75.3077 69.5385C75.3077 77.2579 69.0271 83.5385 61.3077 83.5385H35.4615C27.7422 83.5385 21.4615 77.2579 21.4615 69.5385V56.6154C21.4615 48.896 27.7422 42.6154 35.4615 42.6154H61.3077C69.0271 42.6154 75.3077 48.896 75.3077 56.6154V69.5385ZM51.6154 60.9231V65.2308C51.6154 67.0142 50.168 68.4615 48.3846 68.4615C46.6012 68.4615 45.1538 67.0142 45.1538 65.2308V60.9231C45.1538 59.1397 46.6012 57.6923 48.3846 57.6923C50.168 57.6923 51.6154 59.1397 51.6154 60.9231Z" fill="#8B95A1"/>
</svg>
