<svg width="1906" height="1001" viewBox="0 0 1906 1001" fill="none" xmlns="http://www.w3.org/2000/svg">
<g filter="url(#filter0_f_4338_10030)">
<path d="M738.714 66.4863L53 458.27C53 458.27 203 478.165 376.469 536.831C549.939 595.496 715.245 696.503 843.306 795.98C957.263 884.5 1138.71 948 1138.71 948L1853 539.892L1467.29 319.513L1095.86 531.73L810.143 368.486L1038.71 237.892L738.714 66.4863Z" stroke="black" stroke-opacity="0.25" stroke-width="10" stroke-linejoin="round"/>
</g>
<mask id="mask0_4338_10030" style="mask-type:alpha" maskUnits="userSpaceOnUse" x="48" y="21" width="1810" height="892">
<path d="M738.714 26.4863L53 418.27C53 418.27 203 438.165 376.469 496.831C549.939 555.496 715.245 656.503 843.306 755.98C957.263 844.5 1138.71 908 1138.71 908L1853 499.892L1467.29 279.513L1095.86 491.73L810.143 328.486L1038.71 197.892L738.714 26.4863Z" stroke="black" stroke-width="10" stroke-linejoin="round"/>
</mask>
<g mask="url(#mask0_4338_10030)">
<path d="M464.731 542.233L486.67 529.99L300.956 456.53L97.8944 411.128L743.303 52.5033L1001.47 195.851L780.547 323.895L892.282 395.824L923.915 377.906L845.343 328.486L1062.18 201.973L1046.87 179.527L752.486 8.12158H730.037L32.0781 394.804L41.2618 429.493L92.7924 440.716L149.425 452.449L218.813 467.243L290.241 484.588L464.731 542.233Z" fill="black"/>
<path d="M1456.57 256.047L1299.94 332.568L1208 397.534L1252.5 424.5L1464.73 309.101L1796.87 491.73L1137.69 890.655L991.772 834.03L875.956 764.142L872.894 761.081L666.262 612.632L642.282 604.469L608.099 623.855L705.037 669.257L778.507 726.392L844.833 777.405L848.915 778.936L982.588 859.027L1143.81 935.037L1849.94 541.213L1875.45 494.79L1456.57 256.047Z" fill="black"/>
<path d="M986.16 440.206L1097.89 508.564L1150 480.234L1116.07 462.5L1096.36 476.426L1008.1 427.963L986.16 440.206Z" fill="black"/>
</g>
<path d="M1324.43 361.135L1374.43 389.703L1517.29 308.081L1467.29 279.514L1324.43 361.135Z" stroke="black" stroke-width="4" stroke-linejoin="round"/>
<mask id="mask1_4338_10030" style="mask-type:alpha" maskUnits="userSpaceOnUse" x="1179" y="391" width="219" height="128">
<path d="M1181.57 442.757L1310.14 516.216L1395.86 467.243L1267.28 393.784L1181.57 442.757Z" stroke="black" stroke-width="4" stroke-linejoin="round"/>
</mask>
<g mask="url(#mask1_4338_10030)">
<path d="M1250.5 420L1220 403.5L1260.5 376.5L1375 403.5L1420 471L1358.5 511L1304.5 540L1211.5 474L1232.5 463L1245.5 467.5L1260.5 471L1322 490L1335 455L1279 420H1250.5Z" fill="black"/>
</g>
<path d="M1310.14 516.216L1381.57 557.027L1467.28 508.054L1395.85 467.243L1310.14 516.216Z" stroke="black" stroke-width="4" stroke-linejoin="round"/>
<path d="M1424.43 304L1449.46 318.266M1449.46 318.266L1475.45 333.078M1449.46 318.266L1435.14 326.446M1449.46 318.266L1463.72 310.122M1410.14 312.162L1435.14 326.446M1435.14 326.446L1460.14 340.73M1435.14 326.446L1420.86 334.608M1395.86 320.324L1420.86 334.608M1420.86 334.608L1445.86 348.892M1420.86 334.608L1406.57 342.77M1381.57 328.487L1406.57 342.77M1406.57 342.77L1431.57 357.054M1406.57 342.77L1392.29 350.932M1367.29 336.649L1392.29 350.932M1392.29 350.932L1417.29 365.216M1392.29 350.932L1378 359.095M1403 373.378L1378 359.095M1378 359.095L1349.43 375.419M1385.14 355.014L1410.14 369.297M1374.43 332.568L1424.43 361.135M1388.72 324.405L1438.72 352.973M1403 316.243L1453 344.811M1417.29 308.081L1467.29 336.649M1431.57 299.919L1481.57 328.487" stroke="black" stroke-width="2" stroke-linecap="round"/>
<path d="M1581.57 426.432L1667.28 475.405L1738.71 434.595L1653 385.622L1581.57 426.432Z" stroke="black" stroke-width="4" stroke-linejoin="round"/>
<path d="M1395.86 467.243L1538.72 548.865L1667.29 475.405L1524.43 393.784L1395.86 467.243Z" stroke="black" stroke-width="4" stroke-linejoin="round"/>
<path d="M453 548.864L595.857 630.486L645.857 601.918L503 520.297L453 548.864Z" stroke="black" stroke-width="4" stroke-linejoin="round"/>
<path d="M338.711 255.027L638.711 426.432L1038.71 197.892L738.711 26.4863L338.711 255.027Z" stroke="black" stroke-width="4" stroke-linejoin="round"/>
<path d="M317.289 308.081L381.575 344.811L438.718 312.162L374.432 275.433L317.289 308.081Z" stroke="black" stroke-width="4" stroke-linejoin="round"/>
<path d="M281.57 287.676L317.285 308.081L374.427 275.433L338.713 255.027L281.57 287.676Z" stroke="black" stroke-width="4" stroke-linejoin="round"/>
<path d="M545.859 438.676L581.574 459.081L638.717 426.432L603.002 406.027L545.859 438.676Z" stroke="black" stroke-width="4" stroke-linejoin="round"/>
<path d="M481.57 401.946L581.57 459.081L638.713 426.432L538.713 369.297L481.57 401.946Z" stroke="black" stroke-width="4" stroke-linejoin="round"/>
<path d="M381.57 344.811L481.57 401.946L538.713 369.297L438.713 312.162L381.57 344.811Z" stroke="black" stroke-width="4" stroke-linejoin="round"/>
<path d="M738.711 26.4866L1038.71 197.892L1081.57 173.405L781.568 2L738.711 26.4866Z" stroke="black" stroke-width="3" stroke-linejoin="round"/>
<path d="M1524.43 393.784L1581.57 426.433L1653 385.622L1595.86 352.973L1524.43 393.784Z" stroke="black" stroke-width="4" stroke-linejoin="round"/>
<path d="M1445.86 348.892L1495.86 377.459L1567.29 336.649L1517.29 308.081L1445.86 348.892Z" stroke="black" stroke-width="4" stroke-linejoin="round"/>
<path d="M1381.57 385.621L1431.57 414.189L1495.86 377.459L1445.86 348.892L1381.57 385.621Z" stroke="black" stroke-width="4" stroke-linejoin="round"/>
<mask id="mask2_4338_10030" style="mask-type:alpha" maskUnits="userSpaceOnUse" x="865" y="465" width="176" height="103">
<path d="M867.281 508.054L967.281 565.189L1038.71 524.378L938.71 467.243L867.281 508.054Z" stroke="black" stroke-width="4" stroke-linejoin="round"/>
</mask>
<g mask="url(#mask2_4338_10030)">
<path d="M967.492 490.075C970.826 488.242 977.792 484.576 978.992 484.576L940.492 461.081L870.992 488.576L855.992 507.572L942.492 565.562L972.492 572.56L1027.49 540.566C1032.66 538.067 1043.09 532.968 1043.49 532.568C1043.89 532.168 1044.99 526.402 1045.49 523.569L1040.49 521.07L1029.99 527.069L1020.99 528.568L964.992 558.063L942.492 542.066L882.992 507.572L888.492 502.073L940.492 475.078L967.492 490.075Z" fill="black"/>
</g>
<mask id="mask3_4338_10030" style="mask-type:alpha" maskUnits="userSpaceOnUse" x="679" y="359" width="176" height="103">
<path d="M681.57 401.946L781.57 459.081L852.999 418.27L752.999 361.135L681.57 401.946Z" stroke="black" stroke-width="4" stroke-linejoin="round"/>
</mask>
<g mask="url(#mask3_4338_10030)">
<path d="M778 384.095L790 377.096L758 348.601L673.5 390.094L687 414.089L792 473.079C812.333 462.414 853.3 440.784 854.5 439.585C855.7 438.385 864.333 426.42 868.5 420.588L856 414.089L845 420.588H839.5L781 446.583L758 439.585L695 401.591L713 390.094L754.5 370.597L778 384.095Z" fill="black"/>
</g>
<path d="M767.281 565.189L810.138 589.676L895.853 540.703L852.996 516.216L767.281 565.189Z" stroke="black" stroke-width="4" stroke-linejoin="round"/>
<path d="M853 516.216L953 573.351L967.286 565.189L867.286 508.054L853 516.216Z" stroke="black" stroke-width="4" stroke-linejoin="round"/>
<path d="M810.141 589.676L867.283 622.325L910.141 597.838L852.998 565.189L810.141 589.676Z" stroke="black" stroke-width="4" stroke-linejoin="round"/>
<path d="M853 565.189L910.143 597.838L953 573.351L895.857 540.703L853 565.189Z" stroke="black" stroke-width="4" stroke-linejoin="round"/>
<path d="M881.57 401.946L967.285 450.919L1024.43 418.27L938.713 369.297L881.57 401.946Z" stroke="black" stroke-width="4" stroke-linejoin="round"/>
<path d="M895.857 393.784L853 418.27M938.714 467.243L967.286 450.919M1038.71 524.378L1095.86 491.73" stroke="black" stroke-width="4"/>
<path d="M655.039 460.101L717.284 495.811L745.855 479.486L683.61 443.777L669.325 451.939L655.039 460.101Z" stroke="black" stroke-width="4" stroke-linejoin="round"/>
<path d="M752.999 557.027L581.57 459.081L752.999 361.135" stroke="black" stroke-width="4" stroke-linecap="round" stroke-linejoin="round"/>
<path d="M698.419 506.882C698.899 507.155 699.509 506.989 699.783 506.509C700.057 506.03 699.891 505.419 699.411 505.145L698.419 506.882ZM620.344 461.121L619.848 460.253L618.328 461.121L619.848 461.99L620.344 461.121ZM684.629 424.392L685.126 423.523C684.818 423.348 684.441 423.348 684.133 423.523L684.629 424.392ZM748.419 461.99C748.899 462.264 749.509 462.097 749.783 461.617C750.057 461.138 749.891 460.527 749.411 460.253L748.419 461.99ZM699.411 505.145L620.84 460.253L619.848 461.99L698.419 506.882L699.411 505.145ZM620.84 461.99L685.126 425.26L684.133 423.523L619.848 460.253L620.84 461.99ZM684.133 425.26L748.419 461.99L749.411 460.253L685.126 423.523L684.133 425.26Z" fill="black"/>
<path d="M681.567 516.216L717.281 495.811M667.281 508.054L702.996 487.648M652.996 499.892L688.71 479.486M638.71 491.729L674.424 471.324M624.424 483.567L660.138 463.162M655.036 460.101L617.281 438.675M631.567 430.513L668.812 451.939M645.853 422.351L683.608 443.777M724.424 426.432L688.71 446.838M738.71 434.594L702.996 455M752.996 442.756L717.281 463.162M767.281 450.919L731.567 471.324M667.281 467.243L631.567 487.648M681.567 475.405L645.853 495.811M695.853 483.567L660.138 503.973M710.138 491.729L674.424 512.135M695.853 450.919L731.567 430.513M710.138 459.081L745.853 438.675M724.424 467.243L760.138 446.838M624.424 434.594L662.179 456.02M638.71 426.432L676.465 447.858" stroke="black" stroke-width="2" stroke-linecap="round"/>
<path d="M630.586 122.062C638.262 122.043 643.066 124.543 643.086 128.781C643.066 132.941 638.262 135.402 630.586 135.383C622.93 135.402 618.066 132.941 618.086 128.781C618.066 124.543 622.93 122.043 630.586 122.062ZM614.648 141.086V138.078H646.562V141.086H614.648ZM618.477 155.891V144.211H642.656V155.891H618.477ZM621.914 128.781C621.895 131.105 625.195 132.473 630.586 132.492C635.938 132.473 639.277 131.105 639.258 128.781C639.277 126.359 635.938 124.973 630.586 124.992C625.195 124.973 621.895 126.359 621.914 128.781ZM622.148 152.883H639.062V147.18H622.148V152.883ZM658.062 123.352C663.434 123.352 667.359 126.809 667.398 131.711C667.359 136.652 663.434 140.07 658.062 140.07C652.711 140.07 648.727 136.652 648.766 131.711C648.727 126.809 652.711 123.352 658.062 123.352ZM652.398 131.711C652.359 134.855 654.781 136.945 658.062 136.906C661.344 136.945 663.746 134.855 663.766 131.711C663.746 128.586 661.344 126.535 658.062 126.516C654.781 126.535 652.359 128.586 652.398 131.711ZM652.594 146.594V143.586H675.719V156.359H672.008V146.594H652.594ZM672.008 141.867V121.32H675.719V130.109H680.797V133.156H675.719V141.867H672.008ZM709.289 121.32V130.148H714.367V133.156H709.289V142.102H705.578V121.32H709.289ZM681.75 139.367C689.953 137.062 694.973 132.492 695.656 126.828H683.312V123.82H699.68C699.68 132.863 693.527 139.406 683.273 142.375L681.75 139.367ZM686.516 149.367C686.477 145.109 691.086 142.473 698.117 142.492C705.168 142.473 709.68 145.109 709.68 149.367C709.68 153.664 705.168 156.262 698.117 156.281C691.086 156.262 686.477 153.664 686.516 149.367ZM690.188 149.367C690.168 151.828 693.215 153.332 698.117 153.352C702.98 153.332 706.047 151.828 706.047 149.367C706.047 146.906 702.98 145.402 698.117 145.422C693.215 145.402 690.168 146.906 690.188 149.367ZM742.898 121.32V130.188H747.938V133.234H742.898V141.984H739.148V121.32H742.898ZM716.844 139.445V123.898H732.469V126.906H720.516V136.438C727.41 136.398 731.297 136.203 735.711 135.305L736.062 138.312C731.375 139.27 727.195 139.445 719.617 139.445H716.844ZM719.812 149.445C719.812 145.168 724.344 142.668 731.57 142.648C738.719 142.668 743.172 145.168 743.172 149.445C743.172 153.762 738.719 156.262 731.57 156.242C724.344 156.262 719.812 153.762 719.812 149.445ZM723.484 149.445C723.465 151.867 726.512 153.293 731.57 153.273C736.531 153.293 739.598 151.867 739.617 149.445C739.598 147.023 736.531 145.637 731.57 145.656C726.512 145.637 723.465 147.023 723.484 149.445Z" fill="black"/>
<path d="M1129.36 445.086V448.133H1121.23V460.32H1117.48V448.133H1109.12V460.32H1105.29V448.133H1097.32V445.086H1129.36ZM1100.8 434.383C1100.82 429.656 1105.86 426.648 1113.26 426.648C1120.66 426.648 1125.74 429.656 1125.72 434.383C1125.74 439.051 1120.66 442 1113.26 441.961C1105.86 442 1100.82 439.051 1100.8 434.383ZM1104.63 434.383C1104.61 437.254 1108.07 439.031 1113.26 439.031C1118.48 439.031 1121.91 437.254 1121.93 434.383C1121.91 431.434 1118.48 429.637 1113.26 429.617C1108.07 429.637 1104.61 431.434 1104.63 434.383ZM1140.31 427.938C1145.54 427.957 1149.27 432.723 1149.29 440.203C1149.27 447.762 1145.54 452.527 1140.31 452.508C1135.07 452.527 1131.34 447.762 1131.36 440.203C1131.34 432.723 1135.07 427.957 1140.31 427.938ZM1134.92 440.203C1134.9 445.77 1137.12 449.188 1140.31 449.188C1143.55 449.188 1145.74 445.77 1145.74 440.203C1145.74 434.715 1143.55 431.277 1140.31 431.258C1137.12 431.277 1134.9 434.715 1134.92 440.203ZM1154.49 460.32V425.32H1158.2V439.031H1163.82V442.156H1158.2V460.32H1154.49ZM1176.69 435.633C1176.67 441.16 1180.32 447.332 1185.64 449.852L1183.53 452.742C1179.6 450.867 1176.48 446.922 1174.89 442.352C1173.29 447.332 1170.01 451.648 1166.03 453.641L1163.84 450.711C1169.15 448.152 1173 441.551 1173.02 435.633V431.922H1165.13V428.836H1184.31V431.922H1176.69V435.633ZM1188.06 460.32V425.32H1191.77V439.188H1197.39V442.312H1191.77V460.32H1188.06ZM1230.11 453.016V456.141H1198.07V453.016H1206.82V446.844H1201.98V435.711H1222.53V430.828H1201.9V427.781H1226.2V438.719H1205.65V443.797H1227.02V446.844H1221.71V453.016H1230.11ZM1210.42 453.016H1218.07V446.844H1210.42V453.016ZM1260.63 425.32V443.328H1256.96V425.32H1260.63ZM1231.76 440.203C1237.23 438.387 1240.57 433.797 1240.59 428.953V426.258H1244.38V428.953C1244.36 433.641 1247.72 437.898 1253.09 439.578L1251.25 442.469C1247.17 441.141 1244.11 438.387 1242.52 434.832C1240.94 438.66 1237.82 441.707 1233.64 443.133L1231.76 440.203ZM1237.66 447.938V445.008H1260.67V453.758H1241.37V457H1261.84V459.969H1237.78V450.945H1257V447.938H1237.66Z" fill="black"/>
<path d="M1266.63 286.32V321.398H1262.92V286.32H1266.63ZM1238.86 301.203C1238.86 293.723 1242.63 288.957 1247.92 288.938C1253.12 288.957 1256.95 293.723 1256.95 301.203C1256.95 308.762 1253.12 313.527 1247.92 313.508C1242.63 313.527 1238.86 308.762 1238.86 301.203ZM1242.45 301.203C1242.43 306.77 1244.66 310.188 1247.92 310.188C1251.12 310.188 1253.35 306.77 1253.35 301.203C1253.35 295.715 1251.12 292.277 1247.92 292.258C1244.66 292.277 1242.43 295.715 1242.45 301.203ZM1280.59 288.938C1285.83 288.957 1289.56 293.723 1289.58 301.203C1289.56 308.762 1285.83 313.527 1280.59 313.508C1275.36 313.527 1271.63 308.762 1271.65 301.203C1271.63 293.723 1275.36 288.957 1280.59 288.938ZM1275.2 301.203C1275.18 306.77 1277.41 310.188 1280.59 310.188C1283.84 310.188 1286.02 306.77 1286.02 301.203C1286.02 295.715 1283.84 292.277 1280.59 292.258C1277.41 292.277 1275.18 295.715 1275.2 301.203ZM1294.77 321.32V286.32H1298.48V294.875H1303.91V298.039H1298.48V305.305H1303.91V308.352H1298.48V321.32H1294.77ZM1333.89 286.32V321.32H1330.14V286.32H1333.89ZM1305.14 311.945C1314.44 307.512 1318.99 301.203 1319.71 293.039H1306.82V290.07H1323.46C1323.46 300.324 1319.11 309.191 1307.09 314.953L1305.14 311.945ZM1354.57 308.117C1361.78 308.117 1366.17 310.539 1366.17 314.68C1366.17 318.879 1361.78 321.301 1354.57 321.32C1347.29 321.301 1342.81 318.879 1342.81 314.68C1342.81 310.539 1347.29 308.117 1354.57 308.117ZM1339.73 304.758V288.508H1343.36V293.547H1352.54V288.508H1356.21V304.758H1339.73ZM1343.36 301.789H1352.54V296.477H1343.36V301.789ZM1346.52 314.68C1346.5 317.023 1349.51 318.352 1354.57 318.352C1359.59 318.352 1362.56 317.023 1362.54 314.68C1362.56 312.355 1359.59 311.047 1354.57 311.047C1349.51 311.047 1346.5 312.355 1346.52 314.68ZM1362.15 307.219V286.32H1365.86V294.875H1370.94V298.039H1365.86V307.219H1362.15Z" fill="black"/>
<path d="M1349.36 567.406C1349.34 572.055 1355.03 576.41 1361.9 577.328L1360.46 580.375C1354.73 579.457 1349.71 576.488 1347.43 572.367C1345.14 576.488 1340.12 579.457 1334.44 580.375L1332.96 577.328C1339.81 576.41 1345.48 572.113 1345.5 567.406V565.492H1349.36V567.406ZM1331.43 586.859V583.812H1363.35V586.859H1349.13V599.32H1345.5V586.859H1331.43ZM1397 584.086V587.133H1388.87V599.32H1385.12V587.133H1376.76V599.32H1372.93V587.133H1364.96V584.086H1397ZM1368.44 573.383C1368.46 568.656 1373.5 565.648 1380.9 565.648C1388.3 565.648 1393.38 568.656 1393.36 573.383C1393.38 578.051 1388.3 581 1380.9 580.961C1373.5 581 1368.46 578.051 1368.44 573.383ZM1372.27 573.383C1372.25 576.254 1375.71 578.031 1380.9 578.031C1386.12 578.031 1389.55 576.254 1389.57 573.383C1389.55 570.434 1386.12 568.637 1380.9 568.617C1375.71 568.637 1372.25 570.434 1372.27 573.383ZM1427.56 564.32V582.328H1423.89V564.32H1427.56ZM1398.69 579.203C1404.16 577.387 1407.5 572.797 1407.52 567.953V565.258H1411.31V567.953C1411.29 572.641 1414.65 576.898 1420.02 578.578L1418.18 581.469C1414.1 580.141 1411.04 577.387 1409.45 573.832C1407.87 577.66 1404.75 580.707 1400.57 582.133L1398.69 579.203ZM1404.59 586.938V584.008H1427.6V592.758H1408.3V596H1428.77V598.969H1404.71V589.945H1423.93V586.938H1404.59Z" fill="black"/>
<path d="M1607.36 284.398V287.406H1593.06V299.281H1589.43V287.406H1575.32V284.398H1607.36ZM1579.35 279.945V266.195H1603.33V279.945H1579.35ZM1582.98 277.055H1599.62V269.164H1582.98V277.055ZM1637.96 264.359V289.789H1634.25V264.359H1637.96ZM1609.64 275.375C1609.66 270.316 1613.68 266.723 1618.97 266.703C1624.25 266.723 1628.27 270.316 1628.27 275.375C1628.27 280.512 1624.25 284.086 1618.97 284.086C1613.68 284.086 1609.66 280.512 1609.64 275.375ZM1613.27 275.375C1613.25 278.676 1615.71 280.844 1618.97 280.844C1622.18 280.844 1624.64 278.676 1624.64 275.375C1624.64 272.152 1622.18 269.945 1618.97 269.945C1615.71 269.945 1613.25 272.152 1613.27 275.375ZM1615.07 298.578V287.211H1618.82V295.57H1639.01V298.578H1615.07ZM1670 264.359V274.672H1675.08V277.797H1670V290.062H1666.29V264.359H1670ZM1643.87 284.281V266.859H1647.5V272.445H1656.68V266.859H1660.36V284.281H1643.87ZM1647.5 281.312H1656.68V275.375H1647.5V281.312ZM1647.82 298.578V287.523H1651.53V295.57H1671.49V298.578H1647.82ZM1703.57 264.359V271.938H1708.69V275.023H1703.57V282.602H1699.86V264.359H1703.57ZM1677.68 281.117V265.922H1681.39V278.031C1686.13 277.973 1691.07 277.68 1696.46 276.547L1696.93 279.633C1691.04 280.746 1685.68 281.117 1680.53 281.117H1677.68ZM1681.11 298.891V284.359H1684.75V288.656H1699.86V284.359H1703.57V298.891H1681.11ZM1684.75 295.883H1699.86V291.664H1684.75V295.883ZM1738.63 264.32V282.328H1734.96V264.32H1738.63ZM1709.76 279.203C1715.23 277.387 1718.57 272.797 1718.59 267.953V265.258H1722.38V267.953C1722.36 272.641 1725.72 276.898 1731.09 278.578L1729.25 281.469C1725.17 280.141 1722.11 277.387 1720.52 273.832C1718.94 277.66 1715.82 280.707 1711.64 282.133L1709.76 279.203ZM1715.66 286.938V284.008H1738.67V292.758H1719.37V296H1739.84V298.969H1715.78V289.945H1735V286.938H1715.66Z" fill="black"/>
<path d="M1416.61 394V371.375H1430.8V374.344H1420.05V381.188H1430.05V384.125H1420.05V391.031H1430.92V394H1416.61ZM1442.56 370.312L1435.28 397.406H1432.31L1439.59 370.312H1442.56ZM1446.61 371.375L1452.89 389.781H1453.14L1459.42 371.375H1463.14L1454.98 394H1451.01L1442.89 371.375H1446.61Z" fill="black"/>
<path d="M814.612 563V540.375H828.8V543.344H818.05V550.188H828.05V553.125H818.05V560.031H828.925V563H814.612ZM840.562 539.312L833.281 566.406H830.312L837.594 539.312H840.562ZM844.606 540.375L850.887 558.781H851.137L857.419 540.375H861.137L852.981 563H849.012L840.887 540.375H844.606Z" fill="black"/>
<path d="M1044.07 656.938C1048.84 656.957 1052.29 660.98 1052.86 667.445H1060.09V654.32H1063.76V689.398H1060.09V670.453H1052.9C1052.49 677.289 1048.95 681.527 1044.07 681.508C1038.86 681.527 1035.16 676.762 1035.2 669.203C1035.16 661.723 1038.86 656.957 1044.07 656.938ZM1038.72 669.203C1038.74 674.77 1040.91 678.188 1044.07 678.188C1047.23 678.188 1049.4 674.77 1049.42 669.203C1049.4 663.715 1047.23 660.277 1044.07 660.258C1040.91 660.277 1038.74 663.715 1038.72 669.203ZM1097.13 654.359V680.102H1093.46V654.359H1097.13ZM1069.91 659.75V656.781H1086V667.211H1073.62V672.25C1080.04 672.211 1084.44 672.016 1089.63 671.078L1090.02 674.125C1084.52 675.082 1079.87 675.277 1072.91 675.297H1069.98V664.398H1082.33V659.75H1069.91ZM1074.01 688.578V678.07H1077.72V685.57H1098.11V688.578H1074.01ZM1130.7 654.32V689.398H1126.99V654.32H1130.7ZM1102.93 669.203C1102.93 661.723 1106.7 656.957 1111.99 656.938C1117.19 656.957 1121.02 661.723 1121.02 669.203C1121.02 676.762 1117.19 681.527 1111.99 681.508C1106.7 681.527 1102.93 676.762 1102.93 669.203ZM1106.52 669.203C1106.5 674.77 1108.73 678.188 1111.99 678.188C1115.2 678.188 1117.42 674.77 1117.42 669.203C1117.42 663.715 1115.2 660.277 1111.99 660.258C1108.73 660.277 1106.5 663.715 1106.52 669.203ZM1147.48 664.633C1147.46 670.16 1151.11 676.332 1156.42 678.852L1154.31 681.742C1150.39 679.867 1147.26 675.922 1145.68 671.352C1144.08 676.332 1140.8 680.648 1136.81 682.641L1134.62 679.711C1139.94 677.152 1143.79 670.551 1143.8 664.633V660.922H1135.91V657.836H1155.09V660.922H1147.48V664.633ZM1158.84 689.32V654.32H1162.55V668.188H1168.18V671.312H1162.55V689.32H1158.84ZM1200.89 682.016V685.141H1168.86V682.016H1177.61V675.844H1172.77V664.711H1193.31V659.828H1172.69V656.781H1196.98V667.719H1176.44V672.797H1197.8V675.844H1192.49V682.016H1200.89ZM1181.2 682.016H1188.86V675.844H1181.2V682.016ZM1231.41 654.32V672.328H1227.74V654.32H1231.41ZM1202.55 669.203C1208.02 667.387 1211.36 662.797 1211.38 657.953V655.258H1215.16V657.953C1215.14 662.641 1218.5 666.898 1223.88 668.578L1222.04 671.469C1217.96 670.141 1214.89 667.387 1213.31 663.832C1211.73 667.66 1208.6 670.707 1204.42 672.133L1202.55 669.203ZM1208.45 676.938V674.008H1231.45V682.758H1212.16V686H1232.62V688.969H1208.56V679.945H1227.78V676.938H1208.45Z" fill="black"/>
<path d="M453.316 618.094C459.081 618.094 462.597 620.031 462.597 623.344C462.597 626.703 459.081 628.641 453.316 628.656C447.487 628.641 443.909 626.703 443.909 623.344C443.909 620.031 447.487 618.094 453.316 618.094ZM441.441 615.406V602.406H444.347V606.438H451.691V602.406H454.628V615.406H441.441ZM444.347 613.031H451.691V608.781H444.347V613.031ZM446.878 623.344C446.862 625.219 449.269 626.281 453.316 626.281C457.331 626.281 459.706 625.219 459.691 623.344C459.706 621.484 457.331 620.438 453.316 620.438C449.269 620.438 446.862 621.484 446.878 623.344ZM459.378 617.375V600.656H462.347V607.5H466.409V610.031H462.347V617.375H459.378ZM492.734 614.156V616.562H481.422V619C486.578 619.266 489.609 620.938 489.641 623.781C489.609 626.906 486 628.609 479.953 628.594C473.859 628.609 470.25 626.906 470.266 623.781C470.25 620.938 473.281 619.266 478.484 619V616.562H467.203V614.156H492.734ZM469.547 604.094V601.656H490.328V604.094H486.266V609.438H490.203V611.844H469.672V609.438H473.641V604.094H469.547ZM473.234 623.781C473.234 625.469 475.672 626.375 479.953 626.344C484.172 626.375 486.609 625.469 486.609 623.781C486.609 622.141 484.172 621.219 479.953 621.219C475.672 621.219 473.234 622.141 473.234 623.781ZM476.578 609.438H483.297V604.094H476.578V609.438ZM517.247 600.656V615.062H514.309V600.656H517.247ZM494.153 612.562C498.528 611.109 501.2 607.438 501.216 603.562V601.406H504.247V603.562C504.231 607.312 506.919 610.719 511.216 612.062L509.747 614.375C506.481 613.312 504.028 611.109 502.763 608.266C501.497 611.328 498.997 613.766 495.653 614.906L494.153 612.562ZM498.872 618.75V616.406H517.278V623.406H501.841V626H518.216V628.375H498.966V621.156H514.341V618.75H498.872Z" fill="black"/>
<path d="M995.316 372.094C1001.08 372.094 1004.6 374.031 1004.6 377.344C1004.6 380.703 1001.08 382.641 995.316 382.656C989.487 382.641 985.909 380.703 985.909 377.344C985.909 374.031 989.487 372.094 995.316 372.094ZM983.441 369.406V356.406H986.347V360.438H993.691V356.406H996.628V369.406H983.441ZM986.347 367.031H993.691V362.781H986.347V367.031ZM988.878 377.344C988.862 379.219 991.269 380.281 995.316 380.281C999.331 380.281 1001.71 379.219 1001.69 377.344C1001.71 375.484 999.331 374.438 995.316 374.438C991.269 374.438 988.862 375.484 988.878 377.344ZM1001.38 371.375V354.656H1004.35V361.5H1008.41V364.031H1004.35V371.375H1001.38ZM1034.73 368.156V370.562H1023.42V373C1028.58 373.266 1031.61 374.938 1031.64 377.781C1031.61 380.906 1028 382.609 1021.95 382.594C1015.86 382.609 1012.25 380.906 1012.27 377.781C1012.25 374.938 1015.28 373.266 1020.48 373V370.562H1009.2V368.156H1034.73ZM1011.55 358.094V355.656H1032.33V358.094H1028.27V363.438H1032.2V365.844H1011.67V363.438H1015.64V358.094H1011.55ZM1015.23 377.781C1015.23 379.469 1017.67 380.375 1021.95 380.344C1026.17 380.375 1028.61 379.469 1028.61 377.781C1028.61 376.141 1026.17 375.219 1021.95 375.219C1017.67 375.219 1015.23 376.141 1015.23 377.781ZM1018.58 363.438H1025.3V358.094H1018.58V363.438ZM1059.25 354.656V369.062H1056.31V354.656H1059.25ZM1036.15 366.562C1040.53 365.109 1043.2 361.438 1043.22 357.562V355.406H1046.25V357.562C1046.23 361.312 1048.92 364.719 1053.22 366.062L1051.75 368.375C1048.48 367.312 1046.03 365.109 1044.76 362.266C1043.5 365.328 1041 367.766 1037.65 368.906L1036.15 366.562ZM1040.87 372.75V370.406H1059.28V377.406H1043.84V380H1060.22V382.375H1040.97V375.156H1056.34V372.75H1040.87Z" fill="black"/>
<path d="M739.219 386.656V398.375H743.438V400.875H739.219V414.656H736.25V386.656H739.219ZM716.938 407.031C719.141 407.031 721.703 407.031 724.375 406.953V404.109C721.219 403.641 719.156 401.734 719.188 399.031C719.156 395.875 721.891 393.797 725.875 393.781C729.844 393.797 732.609 395.875 732.625 399.031C732.609 401.734 730.516 403.656 727.344 404.109V406.844C729.828 406.719 732.328 406.516 734.656 406.188L734.844 408.375C728.781 409.453 722.234 409.516 717.406 409.5L716.938 407.031ZM717.469 392.344V389.969H724.375V386.719H727.344V389.969H734.25V392.344H717.469ZM721.969 399.031C721.969 400.812 723.531 401.922 725.875 401.906C728.219 401.922 729.766 400.812 729.781 399.031C729.766 397.234 728.219 396.094 725.875 396.094C723.531 396.094 721.969 397.234 721.969 399.031ZM753.919 391.812C753.903 395.375 756.388 398.625 760.638 399.969L759.231 402.281C756.044 401.266 753.716 399.156 752.481 396.5C751.263 399.562 748.809 401.984 745.45 403.156L743.919 400.781C748.294 399.344 750.934 395.734 750.95 391.844V391.062H744.794V388.656H759.95V391.062H753.919V391.812ZM747.7 409.344C747.7 406.062 751.278 404.141 757.106 404.156C762.872 404.141 766.388 406.062 766.388 409.344C766.388 412.672 762.872 414.609 757.106 414.594C751.278 414.609 747.7 412.672 747.7 409.344ZM750.669 409.344C750.653 411.219 753.059 412.266 757.106 412.25C761.122 412.266 763.497 411.219 763.481 409.344C763.497 407.516 761.122 406.484 757.106 406.5C753.059 406.484 750.653 407.516 750.669 409.344ZM763.169 403.469V386.656H766.138V393.594H770.2V396.031H766.138V403.469H763.169ZM794.181 386.656V401.062H791.244V386.656H794.181ZM771.088 398.562C775.463 397.109 778.134 393.438 778.15 389.562V387.406H781.181V389.562C781.166 393.312 783.853 396.719 788.15 398.062L786.681 400.375C783.416 399.312 780.963 397.109 779.697 394.266C778.431 397.328 775.931 399.766 772.588 400.906L771.088 398.562ZM775.806 404.75V402.406H794.213V409.406H778.775V412H795.15V414.375H775.9V407.156H791.275V404.75H775.806ZM799.537 403.375C799.569 397.484 801.241 392.594 804.162 388.406H807.225C805.069 391.5 803.006 397.797 803.006 403.375C803.006 408.969 805.069 415.266 807.225 418.375H804.162C801.241 414.172 799.569 409.281 799.537 403.375ZM830.488 386.688V392.906H834.581V395.375H830.488V402.469H827.519V386.688H830.488ZM809.769 400.562V388.062H812.738V398.094C816.534 398.062 820.488 397.734 824.8 396.875L825.175 399.312C820.456 400.266 816.175 400.547 812.05 400.562H809.769ZM812.55 414.281V403.938H830.488V414.281H812.55ZM815.456 411.906H827.613V406.25H815.456V411.906ZM843.031 403.375C843 409.281 841.328 414.172 838.406 418.375H835.344C837.5 415.266 839.562 408.969 839.562 403.375C839.562 397.797 837.5 391.5 835.344 388.406H838.406C841.328 392.594 843 397.484 843.031 403.375Z" fill="black"/>
<path d="M456.619 342.688V363.188H453.65V352.656H448.306V350.25H453.65V342.688H456.619ZM433.306 357.344C437.603 355.891 440.291 352.203 440.275 348.344V347.25H434.212V344.812H449.306V347.25H443.306V348.344C443.291 351.828 445.822 355.344 450.056 356.75L448.525 359.125C445.384 358.031 443.056 355.781 441.837 353C440.619 356.094 438.166 358.562 434.837 359.75L433.306 357.344ZM438.431 370.062V361.344H441.4V367.656H457.369V370.062H438.431ZM483.319 342.656V357.062H480.381V342.656H483.319ZM460.225 354.562C464.6 353.109 467.272 349.438 467.288 345.562V343.406H470.319V345.562C470.303 349.312 472.991 352.719 477.288 354.062L475.819 356.375C472.553 355.312 470.1 353.109 468.834 350.266C467.569 353.328 465.069 355.766 461.725 356.906L460.225 354.562ZM464.944 360.75V358.406H483.35V365.406H467.913V368H484.288V370.375H465.038V363.156H480.413V360.75H464.944Z" fill="black"/>
<path d="M846.219 633.656V645.375H850.438V647.875H846.219V661.656H843.25V633.656H846.219ZM823.938 654.031C826.141 654.031 828.703 654.031 831.375 653.953V651.109C828.219 650.641 826.156 648.734 826.188 646.031C826.156 642.875 828.891 640.797 832.875 640.781C836.844 640.797 839.609 642.875 839.625 646.031C839.609 648.734 837.516 650.656 834.344 651.109V653.844C836.828 653.719 839.328 653.516 841.656 653.188L841.844 655.375C835.781 656.453 829.234 656.516 824.406 656.5L823.938 654.031ZM824.469 639.344V636.969H831.375V633.719H834.344V636.969H841.25V639.344H824.469ZM828.969 646.031C828.969 647.812 830.531 648.922 832.875 648.906C835.219 648.922 836.766 647.812 836.781 646.031C836.766 644.234 835.219 643.094 832.875 643.094C830.531 643.094 828.969 644.234 828.969 646.031ZM860.919 638.812C860.903 642.375 863.388 645.625 867.638 646.969L866.231 649.281C863.044 648.266 860.716 646.156 859.481 643.5C858.263 646.562 855.809 648.984 852.45 650.156L850.919 647.781C855.294 646.344 857.934 642.734 857.95 638.844V638.062H851.794V635.656H866.95V638.062H860.919V638.812ZM854.7 656.344C854.7 653.062 858.278 651.141 864.106 651.156C869.872 651.141 873.388 653.062 873.388 656.344C873.388 659.672 869.872 661.609 864.106 661.594C858.278 661.609 854.7 659.672 854.7 656.344ZM857.669 656.344C857.653 658.219 860.059 659.266 864.106 659.25C868.122 659.266 870.497 658.219 870.481 656.344C870.497 654.516 868.122 653.484 864.106 653.5C860.059 653.484 857.653 654.516 857.669 656.344ZM870.169 650.469V633.656H873.138V640.594H877.2V643.031H873.138V650.469H870.169ZM901.181 633.656V648.062H898.244V633.656H901.181ZM878.088 645.562C882.463 644.109 885.134 640.438 885.15 636.562V634.406H888.181V636.562C888.166 640.312 890.853 643.719 895.15 645.062L893.681 647.375C890.416 646.312 887.963 644.109 886.697 641.266C885.431 644.328 882.931 646.766 879.588 647.906L878.088 645.562ZM882.806 651.75V649.406H901.213V656.406H885.775V659H902.15V661.375H882.9V654.156H898.275V651.75H882.806ZM906.537 650.375C906.569 644.484 908.241 639.594 911.162 635.406H914.225C912.069 638.5 910.006 644.797 910.006 650.375C910.006 655.969 912.069 662.266 914.225 665.375H911.162C908.241 661.172 906.569 656.281 906.537 650.375ZM937.488 633.688V639.906H941.581V642.375H937.488V649.469H934.519V633.688H937.488ZM916.769 647.562V635.062H919.738V645.094C923.534 645.062 927.488 644.734 931.8 643.875L932.175 646.312C927.456 647.266 923.175 647.547 919.05 647.562H916.769ZM919.55 661.281V650.938H937.488V661.281H919.55ZM922.456 658.906H934.613V653.25H922.456V658.906ZM950.031 650.375C950 656.281 948.328 661.172 945.406 665.375H942.344C944.5 662.266 946.562 655.969 946.562 650.375C946.562 644.797 944.5 638.5 942.344 635.406H945.406C948.328 639.594 950 644.484 950.031 650.375Z" fill="black"/>
<path d="M1471.24 463.906C1471.22 468.328 1474.15 473.266 1478.4 475.281L1476.71 477.594C1473.57 476.094 1471.07 472.938 1469.8 469.281C1468.52 473.266 1465.9 476.719 1462.71 478.312L1460.96 475.969C1465.21 473.922 1468.29 468.641 1468.3 463.906V460.938H1461.99V458.469H1477.33V460.938H1471.24V463.906ZM1480.33 483.656V455.656H1483.3V466.75H1487.8V469.25H1483.3V483.656H1480.33ZM1513.97 477.812V480.312H1488.35V477.812H1495.35V472.875H1491.47V463.969H1507.91V460.062H1491.41V457.625H1510.85V466.375H1494.41V470.438H1511.5V472.875H1507.25V477.812H1513.97ZM1498.22 477.812H1504.35V472.875H1498.22V477.812ZM1538.55 455.656V472.312H1535.58V465.219H1530.36V462.781H1535.58V455.656H1538.55ZM1515.2 469.781C1519.55 468.266 1522.22 464.484 1522.2 460.625V460H1516.14V457.594H1531.23V460H1525.23V460.594C1525.22 464.141 1527.75 467.594 1531.98 469.031L1530.45 471.375C1527.31 470.297 1525 468.047 1523.78 465.281C1522.56 468.406 1520.11 470.922 1516.77 472.156L1515.2 469.781ZM1519.7 478.375C1519.69 475.047 1523.28 473.109 1529.17 473.094C1535.03 473.109 1538.62 475.047 1538.64 478.375C1538.62 481.703 1535.03 483.641 1529.17 483.656C1523.28 483.641 1519.69 481.703 1519.7 478.375ZM1522.64 478.375C1522.62 480.266 1525.06 481.344 1529.17 481.312C1533.25 481.344 1535.69 480.266 1535.7 478.375C1535.69 476.469 1533.25 475.391 1529.17 475.406C1525.06 475.391 1522.62 476.469 1522.64 478.375ZM1565.31 455.656V483.719H1562.34V455.656H1565.31ZM1543.62 460.594V458.188H1556.75V468.406H1546.68V474.531C1551.23 474.516 1555.18 474.297 1559.87 473.531L1560.15 475.969C1555.2 476.797 1550.98 476.984 1546.03 477H1543.65V466.031H1553.72V460.594H1543.62ZM1592.1 455.656V470.062H1589.17V455.656H1592.1ZM1569.01 467.562C1573.38 466.109 1576.06 462.438 1576.07 458.562V456.406H1579.1V458.562C1579.09 462.312 1581.78 465.719 1586.07 467.062L1584.6 469.375C1581.34 468.312 1578.88 466.109 1577.62 463.266C1576.35 466.328 1573.85 468.766 1570.51 469.906L1569.01 467.562ZM1573.73 473.75V471.406H1592.13V478.406H1576.7V481H1593.07V483.375H1573.82V476.156H1589.2V473.75H1573.73Z" fill="black"/>
<path d="M924.219 494.656V506.375H928.438V508.875H924.219V522.656H921.25V494.656H924.219ZM901.938 515.031C904.141 515.031 906.703 515.031 909.375 514.953V512.109C906.219 511.641 904.156 509.734 904.188 507.031C904.156 503.875 906.891 501.797 910.875 501.781C914.844 501.797 917.609 503.875 917.625 507.031C917.609 509.734 915.516 511.656 912.344 512.109V514.844C914.828 514.719 917.328 514.516 919.656 514.188L919.844 516.375C913.781 517.453 907.234 517.516 902.406 517.5L901.938 515.031ZM902.469 500.344V497.969H909.375V494.719H912.344V497.969H919.25V500.344H902.469ZM906.969 507.031C906.969 508.812 908.531 509.922 910.875 509.906C913.219 509.922 914.766 508.812 914.781 507.031C914.766 505.234 913.219 504.094 910.875 504.094C908.531 504.094 906.969 505.234 906.969 507.031ZM938.919 499.812C938.903 503.375 941.388 506.625 945.638 507.969L944.231 510.281C941.044 509.266 938.716 507.156 937.481 504.5C936.263 507.562 933.809 509.984 930.45 511.156L928.919 508.781C933.294 507.344 935.934 503.734 935.95 499.844V499.062H929.794V496.656H944.95V499.062H938.919V499.812ZM932.7 517.344C932.7 514.062 936.278 512.141 942.106 512.156C947.872 512.141 951.388 514.062 951.388 517.344C951.388 520.672 947.872 522.609 942.106 522.594C936.278 522.609 932.7 520.672 932.7 517.344ZM935.669 517.344C935.653 519.219 938.059 520.266 942.106 520.25C946.122 520.266 948.497 519.219 948.481 517.344C948.497 515.516 946.122 514.484 942.106 514.5C938.059 514.484 935.653 515.516 935.669 517.344ZM948.169 511.469V494.656H951.138V501.594H955.2V504.031H951.138V511.469H948.169ZM979.181 494.656V509.062H976.244V494.656H979.181ZM956.088 506.562C960.463 505.109 963.134 501.438 963.15 497.562V495.406H966.181V497.562C966.166 501.312 968.853 504.719 973.15 506.062L971.681 508.375C968.416 507.312 965.963 505.109 964.697 502.266C963.431 505.328 960.931 507.766 957.588 508.906L956.088 506.562ZM960.806 512.75V510.406H979.213V517.406H963.775V520H980.15V522.375H960.9V515.156H976.275V512.75H960.806ZM984.537 511.375C984.569 505.484 986.241 500.594 989.162 496.406H992.225C990.069 499.5 988.006 505.797 988.006 511.375C988.006 516.969 990.069 523.266 992.225 526.375H989.162C986.241 522.172 984.569 517.281 984.537 511.375ZM1001.08 496.75C1003.64 496.766 1005.74 498.219 1006.97 500.75H1013.89V494.656H1016.83V522.719H1013.89V511.969H1007.18C1005.97 514.781 1003.78 516.422 1001.08 516.406C996.909 516.422 993.956 512.609 993.988 506.562C993.956 500.578 996.909 496.766 1001.08 496.75ZM996.8 506.562C996.816 511.016 998.55 513.75 1001.08 513.75C1003.61 513.75 1005.35 511.016 1005.36 506.562C1005.35 502.172 1003.61 499.422 1001.08 499.406C998.55 499.422 996.816 502.172 996.8 506.562ZM1007.82 503.188C1008.03 504.219 1008.18 505.344 1008.18 506.562C1008.18 507.625 1008.08 508.609 1007.89 509.531H1013.89V503.188H1007.82ZM1028.03 511.375C1028 517.281 1026.33 522.172 1023.41 526.375H1020.34C1022.5 523.266 1024.56 516.969 1024.56 511.375C1024.56 505.797 1022.5 499.5 1020.34 496.406H1023.41C1026.33 500.594 1028 505.484 1028.03 511.375Z" fill="black"/>
<path d="M955.219 592.656V604.375H959.438V606.875H955.219V620.656H952.25V592.656H955.219ZM932.938 613.031C935.141 613.031 937.703 613.031 940.375 612.953V610.109C937.219 609.641 935.156 607.734 935.188 605.031C935.156 601.875 937.891 599.797 941.875 599.781C945.844 599.797 948.609 601.875 948.625 605.031C948.609 607.734 946.516 609.656 943.344 610.109V612.844C945.828 612.719 948.328 612.516 950.656 612.188L950.844 614.375C944.781 615.453 938.234 615.516 933.406 615.5L932.938 613.031ZM933.469 598.344V595.969H940.375V592.719H943.344V595.969H950.25V598.344H933.469ZM937.969 605.031C937.969 606.812 939.531 607.922 941.875 607.906C944.219 607.922 945.766 606.812 945.781 605.031C945.766 603.234 944.219 602.094 941.875 602.094C939.531 602.094 937.969 603.234 937.969 605.031ZM969.919 597.812C969.903 601.375 972.388 604.625 976.638 605.969L975.231 608.281C972.044 607.266 969.716 605.156 968.481 602.5C967.263 605.562 964.809 607.984 961.45 609.156L959.919 606.781C964.294 605.344 966.934 601.734 966.95 597.844V597.062H960.794V594.656H975.95V597.062H969.919V597.812ZM963.7 615.344C963.7 612.062 967.278 610.141 973.106 610.156C978.872 610.141 982.388 612.062 982.388 615.344C982.388 618.672 978.872 620.609 973.106 620.594C967.278 620.609 963.7 618.672 963.7 615.344ZM966.669 615.344C966.653 617.219 969.059 618.266 973.106 618.25C977.122 618.266 979.497 617.219 979.481 615.344C979.497 613.516 977.122 612.484 973.106 612.5C969.059 612.484 966.653 613.516 966.669 615.344ZM979.169 609.469V592.656H982.138V599.594H986.2V602.031H982.138V609.469H979.169ZM1010.18 592.656V607.062H1007.24V592.656H1010.18ZM987.088 604.562C991.463 603.109 994.134 599.438 994.15 595.562V593.406H997.181V595.562C997.166 599.312 999.853 602.719 1004.15 604.062L1002.68 606.375C999.416 605.312 996.963 603.109 995.697 600.266C994.431 603.328 991.931 605.766 988.588 606.906L987.088 604.562ZM991.806 610.75V608.406H1010.21V615.406H994.775V618H1011.15V620.375H991.9V613.156H1007.28V610.75H991.806ZM1015.54 609.375C1015.57 603.484 1017.24 598.594 1020.16 594.406H1023.22C1021.07 597.5 1019.01 603.797 1019.01 609.375C1019.01 614.969 1021.07 621.266 1023.22 624.375H1020.16C1017.24 620.172 1015.57 615.281 1015.54 609.375ZM1032.08 594.75C1034.64 594.766 1036.74 596.219 1037.97 598.75H1044.89V592.656H1047.83V620.719H1044.89V609.969H1038.18C1036.97 612.781 1034.78 614.422 1032.08 614.406C1027.91 614.422 1024.96 610.609 1024.99 604.562C1024.96 598.578 1027.91 594.766 1032.08 594.75ZM1027.8 604.562C1027.82 609.016 1029.55 611.75 1032.08 611.75C1034.61 611.75 1036.35 609.016 1036.36 604.562C1036.35 600.172 1034.61 597.422 1032.08 597.406C1029.55 597.422 1027.82 600.172 1027.8 604.562ZM1038.82 601.188C1039.03 602.219 1039.18 603.344 1039.18 604.562C1039.18 605.625 1039.08 606.609 1038.89 607.531H1044.89V601.188H1038.82ZM1059.03 609.375C1059 615.281 1057.33 620.172 1054.41 624.375H1051.34C1053.5 621.266 1055.56 614.969 1055.56 609.375C1055.56 603.797 1053.5 597.5 1051.34 594.406H1054.41C1057.33 598.594 1059 603.484 1059.03 609.375Z" fill="black"/>
<g filter="url(#filter1_f_4338_10030)">
<ellipse cx="681" cy="292.025" rx="28" ry="7.97468" fill="black" fill-opacity="0.25"/>
</g>
<path d="M725 218.084C725 242.43 716.902 247.786 681 292.025C645.27 248.163 637 242.43 637 218.084C637 193.737 656.699 174 681 174C705.301 174 725 193.737 725 218.084Z" fill="url(#paint0_linear_4338_10030)"/>
<rect x="650.656" y="187.928" width="60.6897" height="60.5258" rx="30.2629" fill="white"/>
<path d="M685.787 204.823V231.69H680.184V210.13H680.035L673.875 213.989V209.054L680.518 204.823H685.787Z" fill="#191F28"/>
<g filter="url(#filter2_f_4338_10030)">
<ellipse cx="1135" cy="824.025" rx="28" ry="7.97468" fill="black" fill-opacity="0.25"/>
</g>
<path d="M1179 750.084C1179 774.43 1170.9 779.786 1135 824.025C1099.27 780.163 1091 774.43 1091 750.084C1091 725.737 1110.7 706 1135 706C1159.3 706 1179 725.737 1179 750.084Z" fill="url(#paint1_linear_4338_10030)"/>
<rect x="1104.66" y="719.928" width="60.6897" height="60.5258" rx="30.2629" fill="white"/>
<path d="M1125.52 763.69L1125.48 759.646L1135.13 750.776C1137.63 748.383 1138.99 746.898 1138.99 744.765C1138.99 742.371 1137.19 740.887 1134.72 740.905C1132.2 740.887 1130.55 742.482 1130.57 745.062H1125.26C1125.24 739.811 1129.14 736.452 1134.8 736.452C1140.55 736.452 1144.37 739.736 1144.37 744.394C1144.37 747.455 1142.89 749.96 1137.36 754.97L1133.27 758.94V759.089H1144.74V763.69H1125.52Z" fill="#191F28"/>
<g filter="url(#filter3_f_4338_10030)">
<ellipse cx="1181" cy="595.025" rx="28" ry="7.97468" fill="black" fill-opacity="0.25"/>
</g>
<path d="M1225 521.084C1225 545.43 1216.9 550.786 1181 595.025C1145.27 551.163 1137 545.43 1137 521.084C1137 496.737 1156.7 477 1181 477C1205.3 477 1225 496.737 1225 521.084Z" fill="url(#paint2_linear_4338_10030)"/>
<rect x="1150.66" y="490.928" width="60.6897" height="60.5258" rx="30.2629" fill="white"/>
<path d="M1180.93 535.062C1175.03 535.062 1170.79 531.814 1170.68 527.12H1176.32C1176.42 529.124 1178.37 530.441 1180.96 530.46C1183.63 530.441 1185.55 528.957 1185.53 526.786C1185.55 524.597 1183.6 523.057 1180.44 523.038H1177.96V518.919H1180.44C1183.1 518.919 1184.95 517.472 1184.93 515.356C1184.95 513.297 1183.38 511.887 1181 511.905C1178.62 511.887 1176.68 513.223 1176.58 515.282H1171.24C1171.33 510.662 1175.49 507.452 1181 507.452C1186.6 507.452 1190.33 510.773 1190.31 515.022C1190.33 518.028 1188.24 520.162 1185.23 520.7V520.923C1189.18 521.405 1191.35 523.799 1191.32 527.157C1191.35 531.759 1186.99 535.062 1180.93 535.062Z" fill="#191F28"/>
<g filter="url(#filter4_f_4338_10030)">
<ellipse cx="1304" cy="457.025" rx="28" ry="7.97468" fill="black" fill-opacity="0.25"/>
</g>
<path d="M1348 383.084C1348 407.43 1339.9 412.786 1304 457.025C1268.27 413.163 1260 407.43 1260 383.084C1260 358.737 1279.7 339 1304 339C1328.3 339 1348 358.737 1348 383.084Z" fill="url(#paint3_linear_4338_10030)"/>
<rect x="1273.66" y="352.928" width="60.6897" height="60.5258" rx="30.2629" fill="white"/>
<path d="M1293.18 391.94V387.524L1304.54 369.823H1311.55V387.45H1314.97V391.94H1311.55V396.69H1306.25V391.94H1293.18ZM1298.82 387.45H1306.32V375.946H1306.06L1298.82 387.228V387.45Z" fill="#191F28"/>
<g filter="url(#filter5_f_4338_10030)">
<ellipse cx="1381" cy="536.025" rx="28" ry="7.97468" fill="black" fill-opacity="0.25"/>
</g>
<path d="M1425 462.084C1425 486.43 1416.9 491.786 1381 536.025C1345.27 492.163 1337 486.43 1337 462.084C1337 437.737 1356.7 418 1381 418C1405.3 418 1425 437.737 1425 462.084Z" fill="url(#paint4_linear_4338_10030)"/>
<rect x="1350.66" y="431.928" width="60.6897" height="60.5258" rx="30.2629" fill="white"/>
<path d="M1381.07 476.062C1375.47 476.062 1371.37 472.759 1371.28 468.12H1376.7C1376.83 470.217 1378.74 471.664 1381.07 471.646C1383.86 471.664 1385.84 469.697 1385.82 466.896C1385.84 464.038 1383.82 462.053 1381 462.034C1378.98 462.034 1377.57 462.795 1376.77 464.298H1371.72L1373.17 448.823H1389.72V453.388H1377.77L1377.03 460.179H1377.25C1378.24 458.861 1380.28 457.896 1382.63 457.915C1387.57 457.896 1391.24 461.589 1391.24 466.747C1391.24 472.184 1387.12 476.062 1381.07 476.062Z" fill="#191F28"/>
<g filter="url(#filter6_f_4338_10030)">
<ellipse cx="1660" cy="434.025" rx="28" ry="7.97468" fill="black" fill-opacity="0.25"/>
</g>
<path d="M1704 360.084C1704 384.43 1695.9 389.786 1660 434.025C1624.27 390.163 1616 384.43 1616 360.084C1616 335.737 1635.7 316 1660 316C1684.3 316 1704 335.737 1704 360.084Z" fill="url(#paint5_linear_4338_10030)"/>
<rect x="1629.66" y="329.928" width="60.6897" height="60.5258" rx="30.2629" fill="white"/>
<path d="M1660.3 374.062C1654.75 374.043 1649.44 370.722 1649.46 360.888C1649.48 351.814 1653.8 346.452 1660.52 346.452C1665.92 346.452 1669.63 349.866 1670.17 354.282H1664.68C1664.23 352.408 1662.69 351.239 1660.52 351.239C1656.86 351.239 1654.95 354.523 1654.92 359.812H1655.18C1656.42 357.418 1659.07 356.026 1662.04 356.026C1666.88 356.026 1670.48 359.645 1670.46 364.71C1670.48 370.165 1666.36 374.08 1660.3 374.062ZM1655.47 364.858C1655.51 367.493 1657.51 369.664 1660.26 369.646C1663.02 369.664 1665.05 367.567 1665.05 364.858C1665.05 362.168 1663.06 360.09 1660.33 360.071C1657.59 360.09 1655.51 362.242 1655.47 364.858Z" fill="#191F28"/>
<defs>
<filter id="filter0_f_4338_10030" x="0" y="13.4863" width="1906" height="987.514" filterUnits="userSpaceOnUse" color-interpolation-filters="sRGB">
<feFlood flood-opacity="0" result="BackgroundImageFix"/>
<feBlend mode="normal" in="SourceGraphic" in2="BackgroundImageFix" result="shape"/>
<feGaussianBlur stdDeviation="24" result="effect1_foregroundBlur_4338_10030"/>
</filter>
<filter id="filter1_f_4338_10030" x="649" y="280.051" width="64" height="23.9492" filterUnits="userSpaceOnUse" color-interpolation-filters="sRGB">
<feFlood flood-opacity="0" result="BackgroundImageFix"/>
<feBlend mode="normal" in="SourceGraphic" in2="BackgroundImageFix" result="shape"/>
<feGaussianBlur stdDeviation="2" result="effect1_foregroundBlur_4338_10030"/>
</filter>
<filter id="filter2_f_4338_10030" x="1103" y="812.051" width="64" height="23.9492" filterUnits="userSpaceOnUse" color-interpolation-filters="sRGB">
<feFlood flood-opacity="0" result="BackgroundImageFix"/>
<feBlend mode="normal" in="SourceGraphic" in2="BackgroundImageFix" result="shape"/>
<feGaussianBlur stdDeviation="2" result="effect1_foregroundBlur_4338_10030"/>
</filter>
<filter id="filter3_f_4338_10030" x="1149" y="583.051" width="64" height="23.9492" filterUnits="userSpaceOnUse" color-interpolation-filters="sRGB">
<feFlood flood-opacity="0" result="BackgroundImageFix"/>
<feBlend mode="normal" in="SourceGraphic" in2="BackgroundImageFix" result="shape"/>
<feGaussianBlur stdDeviation="2" result="effect1_foregroundBlur_4338_10030"/>
</filter>
<filter id="filter4_f_4338_10030" x="1272" y="445.051" width="64" height="23.9492" filterUnits="userSpaceOnUse" color-interpolation-filters="sRGB">
<feFlood flood-opacity="0" result="BackgroundImageFix"/>
<feBlend mode="normal" in="SourceGraphic" in2="BackgroundImageFix" result="shape"/>
<feGaussianBlur stdDeviation="2" result="effect1_foregroundBlur_4338_10030"/>
</filter>
<filter id="filter5_f_4338_10030" x="1349" y="524.051" width="64" height="23.9492" filterUnits="userSpaceOnUse" color-interpolation-filters="sRGB">
<feFlood flood-opacity="0" result="BackgroundImageFix"/>
<feBlend mode="normal" in="SourceGraphic" in2="BackgroundImageFix" result="shape"/>
<feGaussianBlur stdDeviation="2" result="effect1_foregroundBlur_4338_10030"/>
</filter>
<filter id="filter6_f_4338_10030" x="1628" y="422.051" width="64" height="23.9492" filterUnits="userSpaceOnUse" color-interpolation-filters="sRGB">
<feFlood flood-opacity="0" result="BackgroundImageFix"/>
<feBlend mode="normal" in="SourceGraphic" in2="BackgroundImageFix" result="shape"/>
<feGaussianBlur stdDeviation="2" result="effect1_foregroundBlur_4338_10030"/>
</filter>
<linearGradient id="paint0_linear_4338_10030" x1="706.362" y1="186.086" x2="656.637" y2="271.956" gradientUnits="userSpaceOnUse">
<stop offset="0.144416" stop-color="#C41818"/>
<stop offset="1" stop-color="#072B24"/>
</linearGradient>
<linearGradient id="paint1_linear_4338_10030" x1="1160.36" y1="718.086" x2="1110.64" y2="803.956" gradientUnits="userSpaceOnUse">
<stop offset="0.144416" stop-color="#C41818"/>
<stop offset="1" stop-color="#072B24"/>
</linearGradient>
<linearGradient id="paint2_linear_4338_10030" x1="1206.36" y1="489.086" x2="1156.64" y2="574.956" gradientUnits="userSpaceOnUse">
<stop offset="0.144416" stop-color="#C41818"/>
<stop offset="1" stop-color="#072B24"/>
</linearGradient>
<linearGradient id="paint3_linear_4338_10030" x1="1329.36" y1="351.086" x2="1279.64" y2="436.956" gradientUnits="userSpaceOnUse">
<stop offset="0.144416" stop-color="#C41818"/>
<stop offset="1" stop-color="#072B24"/>
</linearGradient>
<linearGradient id="paint4_linear_4338_10030" x1="1406.36" y1="430.086" x2="1356.64" y2="515.956" gradientUnits="userSpaceOnUse">
<stop offset="0.144416" stop-color="#C41818"/>
<stop offset="1" stop-color="#072B24"/>
</linearGradient>
<linearGradient id="paint5_linear_4338_10030" x1="1685.36" y1="328.086" x2="1635.64" y2="413.956" gradientUnits="userSpaceOnUse">
<stop offset="0.144416" stop-color="#C41818"/>
<stop offset="1" stop-color="#072B24"/>
</linearGradient>
</defs>
</svg>
