<svg width="1906" height="1089" viewBox="0 0 1906 1089" fill="none" xmlns="http://www.w3.org/2000/svg">
<g filter="url(#filter0_f_4326_10223)">
<path d="M738.714 154.327L53 546.182C53 546.182 203 566.081 376.469 624.757C549.939 683.433 715.245 784.458 843.306 883.952C957.263 972.488 1138.71 1036 1138.71 1036L1853 627.818L1367.29 350.254L1224.43 431.891L738.714 154.327Z" stroke="black" stroke-opacity="0.25" stroke-width="10" stroke-linejoin="round"/>
</g>
<mask id="mask0_4326_10223" style="mask-type:alpha" maskUnits="userSpaceOnUse" x="48" y="109" width="1810" height="892">
<path d="M738.714 114.327L53 506.182C53 506.182 203 526.081 376.469 584.757C549.939 643.433 715.245 744.458 843.306 843.952C957.263 932.488 1138.71 996 1138.71 996L1853 587.818L1367.29 310.254L1224.43 391.891L738.714 114.327Z" stroke="black" stroke-width="10" stroke-linejoin="round"/>
</mask>
<g mask="url(#mask0_4326_10223)">
<path d="M660.139 714.865L663.201 701.599L589.221 609.248L138.201 490.875L743.303 140.349L1208.61 420.464L1367.28 343.419L1796.87 579.654L1143.81 961.304L1043.3 930.691L999.425 928.65L982.588 937.834V947.018L1143.81 1023.04L1849.94 629.146L1875.45 582.716L1548.4 382.707L1367.28 288.315L1222.38 374.543L752.486 95.959H730.037L32.0781 482.711L41.2618 517.407L97.8944 540.367L269.323 579.654L491.772 660.27L630.037 730.682L660.139 714.865Z" fill="black"/>
<path d="M735.139 752.621L716.262 763.846L737.18 785.786L810.65 842.932L902.996 902.118L924.935 889.362L735.139 752.621Z" fill="black"/>
</g>
<path d="M1324.43 449.036L1374.43 477.609L1517.29 395.973L1467.29 367.4L1324.43 449.036Z" stroke="black" stroke-width="4" stroke-linejoin="round"/>
<path d="M1424.43 391.891L1449.46 406.159M1449.46 406.159L1475.45 420.974M1449.46 406.159L1435.14 414.341M1449.46 406.159L1463.72 398.014M1410.14 400.055L1435.14 414.341M1435.14 414.341L1460.14 428.627M1435.14 414.341L1420.86 422.505M1395.86 408.218L1420.86 422.505M1420.86 422.505L1445.86 436.791M1420.86 422.505L1406.57 430.668M1381.57 416.382L1406.57 430.668M1406.57 430.668L1431.57 444.955M1406.57 430.668L1392.29 438.832M1367.29 424.545L1392.29 438.832M1392.29 438.832L1417.29 453.118M1392.29 438.832L1378 446.995M1403 461.282L1378 446.995M1378 446.995L1349.43 463.323M1385.14 442.914L1410.14 457.2M1374.43 420.464L1424.43 449.036M1388.72 412.3L1438.72 440.873M1403 404.136L1453 432.709M1417.29 395.973L1467.29 424.545M1431.57 387.809L1481.57 416.382" stroke="black" stroke-width="2" stroke-linecap="round"/>
<path d="M1124.43 563.327L1253 636.8L1410.14 547L1281.57 473.527L1124.43 563.327Z" stroke="black" stroke-width="4" stroke-linejoin="round"/>
<path d="M1124.43 857.218L1253 930.691L1481.57 800.072L1353 726.6L1124.43 857.218Z" stroke="black" stroke-width="4" stroke-linejoin="round"/>
<mask id="mask1_4326_10223" style="mask-type:alpha" maskUnits="userSpaceOnUse" x="865" y="553" width="176" height="103">
<path d="M867.289 595.982L967.289 653.127L1038.72 612.309L938.718 555.164L867.289 595.982Z" stroke="black" stroke-width="4" stroke-linejoin="round"/>
</mask>
<g mask="url(#mask1_4326_10223)">
<path d="M967.5 578C970.833 576.167 977.8 572.5 979 572.5L940.5 549L871 576.5L856 595.5L942.5 653.5L972.5 660.5L1027.5 628.5C1032.67 626 1043.1 620.9 1043.5 620.5C1043.9 620.1 1045 614.333 1045.5 611.5L1040.5 609L1030 615L1021 616.5L965 646L942.5 630L883 595.5L888.5 590L940.5 563L967.5 578Z" fill="black"/>
</g>
<mask id="mask2_4326_10223" style="mask-type:alpha" maskUnits="userSpaceOnUse" x="679" y="447" width="176" height="102">
<path d="M681.57 489.854L781.57 547L852.999 506.182L752.999 449.036L681.57 489.854Z" stroke="black" stroke-width="4" stroke-linejoin="round"/>
</mask>
<g mask="url(#mask2_4326_10223)">
<path d="M778 472L790 465L758 436.5L673.5 478L687 502L792 561C812.333 550.333 853.3 528.7 854.5 527.5C855.7 526.3 864.333 514.333 868.5 508.5L856 502L845 508.5H839.5L781 534.5L758 527.5L695 489.5L713 478L754.5 458.5L778 472Z" fill="black"/>
</g>
<path d="M767.289 653.127L867.289 710.273L967.289 653.127L867.289 595.982L767.289 653.127Z" stroke="black" stroke-width="4" stroke-linejoin="round"/>
<path d="M655.039 548.021L717.284 583.737L745.855 567.409L683.61 531.693L669.325 539.857L655.039 548.021Z" stroke="black" stroke-width="4" stroke-linejoin="round"/>
<path d="M638.711 726.6L710.14 767.418L781.568 726.6L710.14 685.782L638.711 726.6Z" stroke="black" stroke-width="4" stroke-linejoin="round"/>
<path d="M895.859 906.2L967.288 947.018L1038.72 906.2L967.288 865.382L895.859 906.2Z" stroke="black" stroke-width="4" stroke-linejoin="round"/>
<path d="M638.711 171.473L752.997 236.782L852.997 179.636L738.711 114.327L638.711 171.473Z" stroke="black" stroke-width="4" stroke-linejoin="round"/>
<path d="M781.57 253.109L938.713 342.909L1038.71 285.764L881.57 195.964L781.57 253.109Z" stroke="black" stroke-width="4" stroke-linejoin="round"/>
<path d="M738.711 114.327L1038.71 285.764L1067.28 269.436L767.282 98L738.711 114.327Z" stroke="black" stroke-width="4" stroke-linejoin="round"/>
<mask id="mask3_4326_10223" style="mask-type:alpha" maskUnits="userSpaceOnUse" x="708" y="283" width="233" height="136">
<path d="M710.141 359.236L810.141 416.382L938.712 342.909L838.712 285.764L710.141 359.236Z" stroke="black" stroke-width="4" stroke-linejoin="round"/>
</mask>
<g mask="url(#mask3_4326_10223)">
<path d="M722 356H735.5H759.5L847 303L920 344L805.5 403.5L764 382.5L752 391L810 436.5L960 344L843.5 273.5L808 292L825.5 307L759.5 348L740 335.5L726 340.5L722 356Z" fill="black"/>
</g>
<path d="M810.141 416.382L824.426 424.546L888.712 387.809L874.426 379.646L810.141 416.382Z" stroke="black" stroke-width="4" stroke-linejoin="round"/>
<path d="M874.43 379.646L888.715 387.809L953.001 351.073L938.715 342.909L874.43 379.646Z" stroke="black" stroke-width="4" stroke-linejoin="round"/>
<path d="M1188.71 510.263L1203 518.427L1281.57 473.527L1267.28 465.363L1188.71 510.263Z" stroke="black" stroke-width="4" stroke-linejoin="round"/>
<path d="M1110.14 555.164L1124.43 563.327L1203 518.427L1188.71 510.264L1110.14 555.164Z" stroke="black" stroke-width="4" stroke-linejoin="round"/>
<path d="M574.43 208.209L688.715 273.518L753.001 236.782L638.715 171.473L574.43 208.209Z" stroke="black" stroke-width="4" stroke-linejoin="round"/>
<mask id="mask4_4326_10223" style="mask-type:alpha" maskUnits="userSpaceOnUse" x="715" y="251" width="126" height="74">
<path d="M717.289 289.846L774.432 322.5L838.718 285.764L781.575 253.109L717.289 289.846Z" stroke="black" stroke-width="4" stroke-linejoin="round"/>
</mask>
<g mask="url(#mask4_4326_10223)">
<path d="M819 303L807.5 295.5L814.5 280.5L770.5 270.5L742 289L753 300L737.5 309.5L742 315L704.5 289L742 263L779 242.5L818.5 256.5L850 287L819 303Z" fill="black"/>
</g>
<path d="M510.141 244.945L624.426 310.254L688.712 273.518L574.426 208.209L510.141 244.945Z" stroke="black" stroke-width="4" stroke-linejoin="round"/>
<mask id="mask5_4326_10223" style="mask-type:alpha" maskUnits="userSpaceOnUse" x="651" y="287" width="126" height="75">
<path d="M653 326.582L710.143 359.237L774.429 322.5L717.286 289.846L653 326.582Z" stroke="black" stroke-width="4" stroke-linejoin="round"/>
</mask>
<g mask="url(#mask5_4326_10223)">
<path d="M754 342L741 335L713 352L668.5 325.5L721.5 300L740 308.5L749.5 302.5L717.5 282.5L705.5 291.5L654.5 319.5L644 329L710.5 364.5L754 342Z" fill="black"/>
</g>
<path d="M1524.43 481.691L1581.57 514.346L1653 473.528L1595.86 440.873L1524.43 481.691Z" stroke="black" stroke-width="4" stroke-linejoin="round"/>
<path d="M1445.86 436.791L1495.86 465.364L1567.29 424.545L1517.29 395.973L1445.86 436.791Z" stroke="black" stroke-width="4" stroke-linejoin="round"/>
<path d="M1381.57 473.527L1431.57 502.1L1495.86 465.364L1445.86 436.791L1381.57 473.527Z" stroke="black" stroke-width="4" stroke-linejoin="round"/>
<path d="M1124.43 563.327L1095.86 579.655L995.857 522.509L1024.43 506.182M853 408.218L995.857 489.855" stroke="black" stroke-width="4" stroke-linecap="round" stroke-linejoin="round"/>
<path d="M752.999 644.963L581.57 547L752.999 449.036M852.999 506.182L924.427 547" stroke="black" stroke-width="4" stroke-linecap="round" stroke-linejoin="round"/>
<path d="M698.419 594.809C698.899 595.083 699.509 594.917 699.783 594.437C700.057 593.958 699.891 593.347 699.411 593.073L698.419 594.809ZM620.344 549.041L619.848 548.173L618.328 549.041L619.848 549.909L620.344 549.041ZM684.629 512.305L685.126 511.436C684.818 511.261 684.441 511.261 684.133 511.436L684.629 512.305ZM748.419 549.909C748.899 550.183 749.509 550.017 749.783 549.537C750.057 549.058 749.891 548.447 749.411 548.173L748.419 549.909ZM699.411 593.073L620.84 548.173L619.848 549.909L698.419 594.809L699.411 593.073ZM620.84 549.909L685.126 513.173L684.133 511.436L619.848 548.173L620.84 549.909ZM684.133 513.173L748.419 549.909L749.411 548.173L685.126 511.436L684.133 513.173Z" fill="black"/>
<path d="M681.575 604.145L717.289 583.736M667.289 595.982L703.003 575.573M653.003 587.818L688.718 567.409M638.718 579.655L674.432 559.245M624.432 571.491L660.146 551.082M655.044 548.02L617.289 526.591M631.575 518.427L668.82 539.857M645.86 510.264L683.616 531.693M724.432 514.345L688.718 534.755M738.718 522.509L703.003 542.918M753.003 530.673L717.289 551.082M767.289 538.836L731.575 559.245M667.289 555.164L631.575 575.573M681.575 563.327L645.86 583.736M695.86 571.491L660.146 591.9M710.146 579.655L674.432 600.064M695.86 538.836L731.575 518.427M710.146 547L745.86 526.591M724.432 555.164L760.146 534.755M624.432 522.509L662.187 543.939M638.718 514.345L676.473 535.775" stroke="black" stroke-width="2" stroke-linecap="round"/>
<path d="M601.395 33.8203V36.9453H569.363V33.8203H601.395ZM572.098 12.7266V9.67969H598.465V12.7266H593.113V24.4062H598.348V27.375H572.176V24.4062H577.41V12.7266H572.098ZM581.082 24.4062H589.48V12.7266H581.082V24.4062ZM634.965 34.0156V37.1406H602.934V34.0156H617.035V27.8828H606.84V16.75H627.387V11.8281H606.762V8.78125H631.059V19.7188H610.512V24.8359H631.879V27.8828H620.707V34.0156H634.965ZM664.238 9.875V13.625C664.238 18.1562 664.238 23.0586 662.949 30.5391L659.16 30.1875C660.566 23.1758 660.566 18.0391 660.566 13.625V12.9219H639.941V9.875H664.238ZM636.504 36.3594V33.2734H668.418V36.3594H636.504ZM699.918 6.35938V27.1406H696.402V18.0391H692.105V26.75H688.629V6.98438H692.105V14.9922H696.402V6.35938H699.918ZM671.559 11.5156V8.54688H684.84V18.3906H675.23V22.7656C679.566 22.7461 682.867 22.5508 686.715 21.7891L687.105 24.7578C682.691 25.5781 679.059 25.6953 673.941 25.6953H671.637V15.5391H681.285V11.5156H671.559ZM676.52 40.8906V28.7031H699.918V40.8906H676.52ZM680.23 37.8828H696.285V31.6719H680.23V37.8828ZM732.629 6.32031V24.3281H728.957V6.32031H732.629ZM703.762 21.2031C709.23 19.3867 712.57 14.7969 712.59 9.95312V7.25781H716.379V9.95312C716.359 14.6406 719.719 18.8984 725.09 20.5781L723.254 23.4688C719.172 22.1406 716.105 19.3867 714.523 15.832C712.941 19.6602 709.816 22.707 705.637 24.1328L703.762 21.2031ZM709.66 28.9375V26.0078H732.668V34.7578H713.371V38H733.84V40.9688H709.777V31.9453H728.996V28.9375H709.66ZM616.203 57.7188V86H611.867V62.0156H611.711L604.953 66.4297V62.3281L611.984 57.7188H616.203ZM625.867 83.3047L622.742 94.0859H619.422L621.492 83.3047H625.867ZM638.789 86V82.875L648.594 72.9922C651.699 69.7695 653.242 67.9727 653.242 65.4922C653.242 62.6992 650.977 60.9219 648.008 60.9219C644.863 60.9219 642.871 62.9141 642.852 65.9219H638.789C638.75 60.7461 642.695 57.3281 648.086 57.3281C653.535 57.3281 657.305 60.7852 657.344 65.375C657.305 68.5391 655.82 71.0586 650.508 76.2734L644.766 82.0938V82.3281H657.812V86H638.789ZM666.656 83.3047L663.531 94.0859H660.211L662.281 83.3047H666.656ZM689.617 86.3906C683.758 86.3906 679.598 83.2461 679.422 78.6172H683.797C683.953 81.0977 686.414 82.6797 689.578 82.6797C692.996 82.6797 695.477 80.8242 695.477 78.0703C695.477 75.2773 693.152 73.2852 689.109 73.2656H686.688V69.75H689.109C692.332 69.7695 694.578 67.9727 694.578 65.2578C694.578 62.6797 692.645 60.9219 689.656 60.9219C686.824 60.9219 684.285 62.5039 684.188 65.0625H680.047C680.164 60.4531 684.422 57.3281 689.695 57.3281C695.262 57.3281 698.758 60.8438 698.719 65.0234C698.758 68.2461 696.766 70.5508 693.719 71.3125V71.5078C697.586 72.0547 699.832 74.6523 699.812 78.2266C699.832 82.9336 695.477 86.3906 689.617 86.3906Z" fill="black"/>
<path d="M863.586 106.43C871.066 106.449 876.516 110.141 876.516 115.727C876.516 120.961 871.945 124.457 865.422 124.984V131.859H879.68V134.945H847.648V131.859H861.75V124.984C855.266 124.457 850.676 120.961 850.695 115.727C850.676 110.141 856.145 106.449 863.586 106.43ZM854.289 115.727C854.289 119.652 858.195 122.094 863.586 122.133C869.016 122.094 872.902 119.652 872.922 115.727C872.902 111.938 869.016 109.438 863.586 109.477C858.195 109.438 854.289 111.938 854.289 115.727ZM910.203 104.32V139.398H906.492V104.32H910.203ZM883.445 130.805V107.562H900.203V110.648H887.195V127.641C893.816 127.621 898.074 127.426 903.016 126.547L903.406 129.633C898.172 130.59 893.602 130.785 886.336 130.805H883.445ZM930.727 106.43C938.207 106.449 943.656 110.141 943.656 115.727C943.656 120.961 939.086 124.457 932.562 124.984V131.859H946.82V134.945H914.789V131.859H928.891V124.984C922.406 124.457 917.816 120.961 917.836 115.727C917.816 110.141 923.285 106.449 930.727 106.43ZM921.43 115.727C921.43 119.652 925.336 122.094 930.727 122.133C936.156 122.094 940.043 119.652 940.062 115.727C940.043 111.938 936.156 109.438 930.727 109.477C925.336 109.438 921.43 111.938 921.43 115.727ZM980.352 122.016V124.984H966.172V128.227H976.367V138.891H952.578V128.227H962.5V124.984H948.32V122.016H980.352ZM952.344 107.953V105.102H976.328V113.656H956.094V116.625H977.031V119.594H952.422V110.961H972.617V107.953H952.344ZM956.25 135.883H972.695V131.156H956.25V135.883Z" fill="black"/>
<path d="M664.66 373.609C664.641 378.082 667.746 382.32 673.098 384.117L671.223 387.008C667.258 385.641 664.348 382.906 662.824 379.469C661.301 383.238 658.254 386.227 654.152 387.672L652.16 384.781C657.629 382.926 660.93 378.395 660.949 373.57V372.633H653.254V369.625H672.199V372.633H664.66V373.609ZM656.809 393.141V390.133H679.934V402.32H676.223V393.141H656.809ZM676.223 388.414V367.32H679.934V376.305H685.012V379.43H679.934V388.414H676.223ZM717.879 383.766V386.773H686.043V383.766H698.816V376.852H702.449V383.766H717.879ZM689.402 393.453V390.484H713.816V402.32H710.066V393.453H689.402ZM689.754 372.125V369.195H713.934V371.773C713.895 374.41 713.895 377.496 713.074 381.539L709.324 381.188C710.184 377.398 710.223 374.625 710.223 372.125H689.754ZM748.559 367.32V385.328H744.887V367.32H748.559ZM719.691 382.203C725.16 380.387 728.5 375.797 728.52 370.953V368.258H732.309V370.953C732.289 375.641 735.648 379.898 741.02 381.578L739.184 384.469C735.102 383.141 732.035 380.387 730.453 376.832C728.871 380.66 725.746 383.707 721.566 385.133L719.691 382.203ZM725.59 389.938V387.008H748.598V395.758H729.301V399H749.77V401.969H725.707V392.945H744.926V389.938H725.59Z" fill="black"/>
<path d="M1109.21 204.281C1109.21 209.984 1115.28 215.375 1122.02 216.586L1120.3 219.672C1114.7 218.461 1109.56 214.789 1107.29 209.867C1104.99 214.77 1099.85 218.422 1094.25 219.672L1092.61 216.586C1099.25 215.336 1105.28 209.984 1105.3 204.281V201.625H1109.21V204.281ZM1091.43 229.711V226.625H1123.46V229.711H1091.43ZM1142.7 202.797V225.531H1126.33V202.797H1142.7ZM1129.96 222.523H1139.03V205.727H1129.96V222.523ZM1148.56 234.32V199.32H1152.27V213.031H1157.89V216.156H1152.27V234.32H1148.56ZM1186.97 217.953V220.922H1162.6V202.211H1186.62V205.219H1166.35V209.945H1185.88V212.875H1166.35V217.953H1186.97ZM1158.57 229.906V226.859H1190.61V229.906H1158.57ZM1118.7 247.32V260.992H1124.32V264.117H1118.7V282.398H1115.03V247.32H1118.7ZM1092.8 253.492V250.484H1108.82V263.336H1096.55V270.914C1102.55 270.895 1107.02 270.68 1112.14 269.742L1112.49 272.75C1107.02 273.766 1102.29 274 1095.73 274.039H1092.88V260.328H1105.14V253.492H1092.8ZM1157 264.859V267.867H1143.13V274.664H1139.38V267.867H1124.96V264.859H1157ZM1128.48 255.25C1128.46 250.875 1133.42 248.16 1140.94 248.141C1148.46 248.16 1153.38 250.875 1153.36 255.25C1153.38 259.605 1148.46 262.32 1140.94 262.32C1133.42 262.32 1128.46 259.605 1128.48 255.25ZM1128.99 281.578V271.305H1132.7V278.531H1153.44V281.578H1128.99ZM1132.46 255.25C1132.43 257.77 1135.82 259.312 1140.94 259.312C1146.08 259.312 1149.44 257.77 1149.46 255.25C1149.44 252.652 1146.08 251.129 1140.94 251.109C1135.82 251.129 1132.43 252.652 1132.46 255.25ZM1171.46 257.633C1171.45 263.492 1175.29 269.547 1180.68 271.852L1178.65 274.742C1174.53 272.926 1171.25 269.059 1169.63 264.391C1168.01 269.391 1164.73 273.648 1160.64 275.641L1158.5 272.711C1163.77 270.23 1167.68 263.668 1167.71 257.633V253.922H1159.71V250.836H1179.43V253.922H1171.46V257.633ZM1183.85 282.32V247.32H1187.56V282.32H1183.85Z" fill="black"/>
<path d="M1450.48 544.32V579.32H1446.93V544.32H1450.48ZM1420.75 559.438C1420.75 551.859 1423.72 547.113 1428.29 547.133C1431.28 547.113 1433.59 549.105 1434.84 552.562H1439.93V544.984H1443.45V577.602H1439.93V566.312H1434.86C1433.59 569.789 1431.28 571.801 1428.29 571.781C1423.72 571.801 1420.75 567.035 1420.75 559.438ZM1424.15 559.438C1424.13 565.004 1425.7 568.285 1428.29 568.266C1430.87 568.285 1432.51 565.004 1432.51 559.438C1432.51 553.852 1430.87 550.59 1428.29 550.609C1425.7 550.59 1424.13 553.852 1424.15 559.438ZM1435.62 555.57C1435.81 556.762 1435.91 558.051 1435.91 559.438C1435.91 560.805 1435.81 562.094 1435.62 563.266H1439.93V555.57H1435.62ZM1471.79 545.648C1471.8 549.672 1477.35 553.051 1484.17 553.812L1482.88 556.625C1477.14 555.922 1472.12 553.5 1469.87 549.926C1467.61 553.5 1462.59 555.922 1456.9 556.625L1455.61 553.812C1462.45 553.051 1467.98 549.672 1468 545.648V544.477H1471.79V545.648ZM1453.93 561.625V558.656H1485.85V561.625H1471.71V564.75H1481.82V573.031H1461.43V576.117H1482.8V578.969H1457.8V570.336H1478.15V567.602H1457.76V564.75H1468V561.625H1453.93ZM1499.69 554.633C1499.67 560.16 1503.32 566.332 1508.64 568.852L1506.53 571.742C1502.6 569.867 1499.48 565.922 1497.89 561.352C1496.29 566.332 1493.01 570.648 1489.03 572.641L1486.84 569.711C1492.15 567.152 1496 560.551 1496.02 554.633V550.922H1488.13V547.836H1507.31V550.922H1499.69V554.633ZM1511.06 579.32V544.32H1514.77V558.188H1520.39V561.312H1514.77V579.32H1511.06ZM1553.11 572.016V575.141H1521.07V572.016H1529.82V565.844H1524.98V554.711H1545.53V549.828H1524.9V546.781H1549.2V557.719H1528.65V562.797H1550.02V565.844H1544.71V572.016H1553.11ZM1533.42 572.016H1541.07V565.844H1533.42V572.016ZM1583.63 544.32V562.328H1579.96V544.32H1583.63ZM1554.76 559.203C1560.23 557.387 1563.57 552.797 1563.59 547.953V545.258H1567.38V547.953C1567.36 552.641 1570.72 556.898 1576.09 558.578L1574.25 561.469C1570.17 560.141 1567.11 557.387 1565.52 553.832C1563.94 557.66 1560.82 560.707 1556.64 562.133L1554.76 559.203ZM1560.66 566.938V564.008H1583.67V572.758H1564.37V576H1584.84V578.969H1560.78V569.945H1580V566.938H1560.66Z" fill="black"/>
<path d="M1416.61 482V459.375H1430.8V462.344H1420.05V469.188H1430.05V472.125H1420.05V479.031H1430.92V482H1416.61ZM1442.56 458.312L1435.28 485.406H1432.31L1439.59 458.312H1442.56ZM1446.61 459.375L1452.89 477.781H1453.14L1459.42 459.375H1463.14L1454.98 482H1451.01L1442.89 459.375H1446.61Z" fill="black"/>
<path d="M830.612 656V633.375H844.8V636.344H834.05V643.188H844.05V646.125H834.05V653.031H844.925V656H830.612ZM856.562 632.312L849.281 659.406H846.312L853.594 632.312H856.562ZM860.606 633.375L866.887 651.781H867.137L873.419 633.375H877.137L868.981 656H865.012L856.887 633.375H860.606Z" fill="black"/>
<path d="M1054.76 629.359V655.141H1051.05V646.039H1042.36C1040.71 648.012 1038.18 649.203 1035.27 649.203C1029.99 649.203 1026.07 645.512 1026.09 640.375C1026.07 635.199 1029.99 631.508 1035.27 631.469C1038.16 631.488 1040.68 632.68 1042.32 634.633H1051.05V629.359H1054.76ZM1029.64 640.375C1029.62 643.676 1031.98 645.941 1035.27 645.922C1038.41 645.941 1040.81 643.676 1040.81 640.375C1040.81 637.074 1038.41 634.809 1035.27 634.789C1031.98 634.809 1029.62 637.074 1029.64 640.375ZM1032.02 663.578V652.445H1035.73V660.57H1055.7V663.578H1032.02ZM1043.96 637.641C1044.23 638.5 1044.37 639.398 1044.37 640.375C1044.37 641.312 1044.23 642.211 1043.98 643.031H1051.05V637.641H1043.96ZM1091.14 646.703V649.75H1059.15V646.703H1073.25V641.586H1076.92V646.703H1091.14ZM1060.98 640.57C1067.68 639.711 1073.19 635.766 1073.21 631.352V629.867H1076.96V631.352C1076.94 635.824 1082.43 639.711 1089.19 640.57L1087.74 643.5C1082.2 642.602 1077.29 639.906 1075.07 636.039C1072.84 639.906 1067.94 642.602 1062.35 643.5L1060.98 640.57ZM1062.7 655.766V652.836H1087.16V664.32H1083.41V655.766H1062.7ZM1120.22 629.32V639.672H1125.3V642.758H1120.22V654.75H1116.47V629.32H1120.22ZM1092.68 647.953C1100.88 645.492 1105.96 640.824 1106.68 635.062H1094.16V631.977H1110.73C1110.73 641.156 1104.48 647.816 1094.24 650.922L1092.68 647.953ZM1097.99 663.578V652.133H1101.74V660.57H1121.66V663.578H1097.99ZM1156.13 629.32V651.391H1152.62V641.625H1148.55V650.18H1145.08V629.984H1148.55V638.578H1152.62V629.32H1156.13ZM1126.09 636.234V633.305H1133.16V629.594H1136.84V633.305H1143.79V636.234H1126.09ZM1127.46 643.891C1127.46 640.258 1130.59 637.875 1134.96 637.875C1139.43 637.875 1142.54 640.258 1142.54 643.891C1142.54 647.523 1139.43 649.906 1134.96 649.906C1130.59 649.906 1127.46 647.523 1127.46 643.891ZM1130.78 643.891C1130.78 645.883 1132.48 647.191 1134.96 647.211C1137.48 647.191 1139.2 645.883 1139.18 643.891C1139.2 641.898 1137.48 640.59 1134.96 640.609C1132.48 640.59 1130.78 641.898 1130.78 643.891ZM1132.58 658.109C1132.54 654.145 1136.99 651.898 1144.41 651.898C1151.86 651.898 1156.31 654.145 1156.33 658.109C1156.31 662.035 1151.86 664.262 1144.41 664.242C1136.99 664.262 1132.54 662.035 1132.58 658.109ZM1136.25 658.109C1136.21 660.219 1139.22 661.43 1144.41 661.391C1149.63 661.43 1152.6 660.219 1152.62 658.109C1152.6 655.902 1149.63 654.73 1144.41 654.75C1139.22 654.73 1136.21 655.902 1136.25 658.109ZM1191.77 643.812V646.781H1177.63V649.828H1187.75V658.031H1167.36V661.117H1188.73V663.969H1163.73V655.336H1184.08V652.68H1163.69V649.828H1173.92V646.781H1159.86V643.812H1191.77ZM1163.96 641.234V630.453H1187.67V641.234H1163.96ZM1167.59 638.305H1183.96V633.383H1167.59V638.305ZM1222.41 629.32V647.328H1218.74V629.32H1222.41ZM1193.55 644.203C1199.02 642.387 1202.36 637.797 1202.38 632.953V630.258H1206.16V632.953C1206.14 637.641 1209.5 641.898 1214.88 643.578L1213.04 646.469C1208.96 645.141 1205.89 642.387 1204.31 638.832C1202.73 642.66 1199.6 645.707 1195.42 647.133L1193.55 644.203ZM1199.45 651.938V649.008H1222.45V657.758H1203.16V661H1223.62V663.969H1199.56V654.945H1218.78V651.938H1199.45Z" fill="black"/>
<path d="M775.928 913.781V916.312H750.303V913.781H761.553V907.812H752.553V905.469H756.741V896.656H752.491V894.25H773.584V896.656H769.303V905.469H773.491V907.812H764.491V913.781H775.928ZM759.678 905.469H766.397V896.656H759.678V905.469ZM801.128 891.688V910.594H798.316V891.688H801.128ZM777.284 907.688C781.175 906.062 783.691 903.953 785.144 901.438L777.784 902.219L777.347 899.781L786.112 899.281C786.425 898.344 786.612 897.375 786.706 896.344H778.628V893.938H789.597C789.597 896 789.347 897.938 788.784 899.719H792.691V892.156H795.503V908.094H792.691V902.125H787.784C786.112 905.297 783.222 907.906 778.722 909.844L777.284 907.688ZM780.628 917.219C785.925 916.438 790.144 913.312 790.128 909.781V908.969H793.066V909.781C793.066 913.312 797.284 916.438 802.566 917.219L801.409 919.531C797.066 918.812 793.362 916.672 791.612 913.688C789.847 916.672 786.144 918.812 781.816 919.531L780.628 917.219ZM827.141 910.031V919.312H808.453V910.031H811.984V906.438C809.266 906.547 806.688 906.562 804.422 906.562L804.047 904.094C809.328 904.109 816.297 904.109 822.391 903.344L822.578 905.438C820.094 905.859 817.516 906.125 814.984 906.281V910.031H827.141ZM805.203 900.25C809.438 899.281 811.969 896.688 811.984 893.75V892.406H815.016V893.75C815.016 896.547 817.594 898.922 821.703 899.844L820.422 902.062C817.172 901.328 814.766 899.656 813.547 897.391C812.328 899.828 809.906 901.688 806.578 902.531L805.203 900.25ZM811.359 916.906H824.203V912.406H811.359V916.906ZM824.172 908.594V891.688H827.141V908.594H824.172ZM854.216 891.656V919.719H851.278V904.438H845.716V902H851.278V891.656H854.216ZM832.153 913.094V894.156H845.247V896.562H835.153V902H844.059V904.375H835.153V910.625C839.841 910.625 843.091 910.484 846.809 909.844L847.122 912.25C843.044 912.906 839.528 913.078 834.341 913.094H832.153ZM858.697 917V914.5L866.541 906.594C869.025 904.016 870.259 902.578 870.259 900.594C870.259 898.359 868.447 896.938 866.072 896.938C863.556 896.938 861.963 898.531 861.947 900.938H858.697C858.666 896.797 861.822 894.062 866.134 894.062C870.494 894.062 873.509 896.828 873.541 900.5C873.509 903.031 872.322 905.047 868.072 909.219L863.478 913.875V914.062H873.916V917H858.697Z" fill="black"/>
<path d="M524.772 735.781V738.312H499.147V735.781H510.397V729.812H501.397V727.469H505.584V718.656H501.334V716.25H522.428V718.656H518.147V727.469H522.334V729.812H513.334V735.781H524.772ZM508.522 727.469H515.241V718.656H508.522V727.469ZM549.972 713.688V732.594H547.159V713.688H549.972ZM526.128 729.688C530.019 728.062 532.534 725.953 533.987 723.438L526.628 724.219L526.191 721.781L534.956 721.281C535.269 720.344 535.456 719.375 535.55 718.344H527.472V715.938H538.441C538.441 718 538.191 719.938 537.628 721.719H541.534V714.156H544.347V730.094H541.534V724.125H536.628C534.956 727.297 532.066 729.906 527.566 731.844L526.128 729.688ZM529.472 739.219C534.769 738.438 538.987 735.312 538.972 731.781V730.969H541.909V731.781C541.909 735.312 546.128 738.438 551.409 739.219L550.253 741.531C545.909 740.812 542.206 738.672 540.456 735.688C538.691 738.672 534.987 740.812 530.659 741.531L529.472 739.219ZM575.984 732.031V741.312H557.297V732.031H560.828V728.438C558.109 728.547 555.531 728.562 553.266 728.562L552.891 726.094C558.172 726.109 565.141 726.109 571.234 725.344L571.422 727.438C568.938 727.859 566.359 728.125 563.828 728.281V732.031H575.984ZM554.047 722.25C558.281 721.281 560.812 718.688 560.828 715.75V714.406H563.859V715.75C563.859 718.547 566.438 720.922 570.547 721.844L569.266 724.062C566.016 723.328 563.609 721.656 562.391 719.391C561.172 721.828 558.75 723.688 555.422 724.531L554.047 722.25ZM560.203 738.906H573.047V734.406H560.203V738.906ZM573.016 730.594V713.688H575.984V730.594H573.016ZM603.059 713.656V741.719H600.122V726.438H594.559V724H600.122V713.656H603.059ZM580.997 735.094V716.156H594.091V718.562H583.997V724H592.903V726.375H583.997V732.625C588.684 732.625 591.934 732.484 595.653 731.844L595.966 734.25C591.887 734.906 588.372 735.078 583.184 735.094H580.997ZM616.134 716.375V739H612.666V719.812H612.541L607.134 723.344V720.062L612.759 716.375H616.134Z" fill="black"/>
<path d="M739.219 474.656V486.375H743.438V488.875H739.219V502.656H736.25V474.656H739.219ZM716.938 495.031C719.141 495.031 721.703 495.031 724.375 494.953V492.109C721.219 491.641 719.156 489.734 719.188 487.031C719.156 483.875 721.891 481.797 725.875 481.781C729.844 481.797 732.609 483.875 732.625 487.031C732.609 489.734 730.516 491.656 727.344 492.109V494.844C729.828 494.719 732.328 494.516 734.656 494.188L734.844 496.375C728.781 497.453 722.234 497.516 717.406 497.5L716.938 495.031ZM717.469 480.344V477.969H724.375V474.719H727.344V477.969H734.25V480.344H717.469ZM721.969 487.031C721.969 488.812 723.531 489.922 725.875 489.906C728.219 489.922 729.766 488.812 729.781 487.031C729.766 485.234 728.219 484.094 725.875 484.094C723.531 484.094 721.969 485.234 721.969 487.031ZM753.919 479.812C753.903 483.375 756.388 486.625 760.638 487.969L759.231 490.281C756.044 489.266 753.716 487.156 752.481 484.5C751.263 487.562 748.809 489.984 745.45 491.156L743.919 488.781C748.294 487.344 750.934 483.734 750.95 479.844V479.062H744.794V476.656H759.95V479.062H753.919V479.812ZM747.7 497.344C747.7 494.062 751.278 492.141 757.106 492.156C762.872 492.141 766.388 494.062 766.388 497.344C766.388 500.672 762.872 502.609 757.106 502.594C751.278 502.609 747.7 500.672 747.7 497.344ZM750.669 497.344C750.653 499.219 753.059 500.266 757.106 500.25C761.122 500.266 763.497 499.219 763.481 497.344C763.497 495.516 761.122 494.484 757.106 494.5C753.059 494.484 750.653 495.516 750.669 497.344ZM763.169 491.469V474.656H766.138V481.594H770.2V484.031H766.138V491.469H763.169ZM794.181 474.656V489.062H791.244V474.656H794.181ZM771.088 486.562C775.463 485.109 778.134 481.438 778.15 477.562V475.406H781.181V477.562C781.166 481.312 783.853 484.719 788.15 486.062L786.681 488.375C783.416 487.312 780.963 485.109 779.697 482.266C778.431 485.328 775.931 487.766 772.588 488.906L771.088 486.562ZM775.806 492.75V490.406H794.213V497.406H778.775V500H795.15V502.375H775.9V495.156H791.275V492.75H775.806ZM799.537 491.375C799.569 485.484 801.241 480.594 804.162 476.406H807.225C805.069 479.5 803.006 485.797 803.006 491.375C803.006 496.969 805.069 503.266 807.225 506.375H804.162C801.241 502.172 799.569 497.281 799.537 491.375ZM830.488 474.688V480.906H834.581V483.375H830.488V490.469H827.519V474.688H830.488ZM809.769 488.562V476.062H812.738V486.094C816.534 486.062 820.488 485.734 824.8 484.875L825.175 487.312C820.456 488.266 816.175 488.547 812.05 488.562H809.769ZM812.55 502.281V491.938H830.488V502.281H812.55ZM815.456 499.906H827.613V494.25H815.456V499.906ZM843.031 491.375C843 497.281 841.328 502.172 838.406 506.375H835.344C837.5 503.266 839.562 496.969 839.562 491.375C839.562 485.797 837.5 479.5 835.344 476.406H838.406C841.328 480.594 843 485.484 843.031 491.375Z" fill="black"/>
<path d="M1572.22 371.656V383.375H1576.44V385.875H1572.22V399.656H1569.25V371.656H1572.22ZM1549.94 392.031C1552.14 392.031 1554.7 392.031 1557.38 391.953V389.109C1554.22 388.641 1552.16 386.734 1552.19 384.031C1552.16 380.875 1554.89 378.797 1558.88 378.781C1562.84 378.797 1565.61 380.875 1565.62 384.031C1565.61 386.734 1563.52 388.656 1560.34 389.109V391.844C1562.83 391.719 1565.33 391.516 1567.66 391.188L1567.84 393.375C1561.78 394.453 1555.23 394.516 1550.41 394.5L1549.94 392.031ZM1550.47 377.344V374.969H1557.38V371.719H1560.34V374.969H1567.25V377.344H1550.47ZM1554.97 384.031C1554.97 385.812 1556.53 386.922 1558.88 386.906C1561.22 386.922 1562.77 385.812 1562.78 384.031C1562.77 382.234 1561.22 381.094 1558.88 381.094C1556.53 381.094 1554.97 382.234 1554.97 384.031ZM1586.92 376.812C1586.9 380.375 1589.39 383.625 1593.64 384.969L1592.23 387.281C1589.04 386.266 1586.72 384.156 1585.48 381.5C1584.26 384.562 1581.81 386.984 1578.45 388.156L1576.92 385.781C1581.29 384.344 1583.93 380.734 1583.95 376.844V376.062H1577.79V373.656H1592.95V376.062H1586.92V376.812ZM1580.7 394.344C1580.7 391.062 1584.28 389.141 1590.11 389.156C1595.87 389.141 1599.39 391.062 1599.39 394.344C1599.39 397.672 1595.87 399.609 1590.11 399.594C1584.28 399.609 1580.7 397.672 1580.7 394.344ZM1583.67 394.344C1583.65 396.219 1586.06 397.266 1590.11 397.25C1594.12 397.266 1596.5 396.219 1596.48 394.344C1596.5 392.516 1594.12 391.484 1590.11 391.5C1586.06 391.484 1583.65 392.516 1583.67 394.344ZM1596.17 388.469V371.656H1599.14V378.594H1603.2V381.031H1599.14V388.469H1596.17ZM1627.18 371.656V386.062H1624.24V371.656H1627.18ZM1604.09 383.562C1608.46 382.109 1611.13 378.438 1611.15 374.562V372.406H1614.18V374.562C1614.17 378.312 1616.85 381.719 1621.15 383.062L1619.68 385.375C1616.42 384.312 1613.96 382.109 1612.7 379.266C1611.43 382.328 1608.93 384.766 1605.59 385.906L1604.09 383.562ZM1608.81 389.75V387.406H1627.21V394.406H1611.78V397H1628.15V399.375H1608.9V392.156H1624.28V389.75H1608.81ZM1632.54 388.375C1632.57 382.484 1634.24 377.594 1637.16 373.406H1640.22C1638.07 376.5 1636.01 382.797 1636.01 388.375C1636.01 393.969 1638.07 400.266 1640.22 403.375H1637.16C1634.24 399.172 1632.57 394.281 1632.54 388.375ZM1663.49 371.688V377.906H1667.58V380.375H1663.49V387.469H1660.52V371.688H1663.49ZM1642.77 385.562V373.062H1645.74V383.094C1649.53 383.062 1653.49 382.734 1657.8 381.875L1658.18 384.312C1653.46 385.266 1649.18 385.547 1645.05 385.562H1642.77ZM1645.55 399.281V388.938H1663.49V399.281H1645.55ZM1648.46 396.906H1660.61V391.25H1648.46V396.906ZM1676.03 388.375C1676 394.281 1674.33 399.172 1671.41 403.375H1668.34C1670.5 400.266 1672.56 393.969 1672.56 388.375C1672.56 382.797 1670.5 376.5 1668.34 373.406H1671.41C1674.33 377.594 1676 382.484 1676.03 388.375Z" fill="black"/>
<path d="M924.219 582.656V594.375H928.438V596.875H924.219V610.656H921.25V582.656H924.219ZM901.938 603.031C904.141 603.031 906.703 603.031 909.375 602.953V600.109C906.219 599.641 904.156 597.734 904.188 595.031C904.156 591.875 906.891 589.797 910.875 589.781C914.844 589.797 917.609 591.875 917.625 595.031C917.609 597.734 915.516 599.656 912.344 600.109V602.844C914.828 602.719 917.328 602.516 919.656 602.188L919.844 604.375C913.781 605.453 907.234 605.516 902.406 605.5L901.938 603.031ZM902.469 588.344V585.969H909.375V582.719H912.344V585.969H919.25V588.344H902.469ZM906.969 595.031C906.969 596.812 908.531 597.922 910.875 597.906C913.219 597.922 914.766 596.812 914.781 595.031C914.766 593.234 913.219 592.094 910.875 592.094C908.531 592.094 906.969 593.234 906.969 595.031ZM938.919 587.812C938.903 591.375 941.388 594.625 945.638 595.969L944.231 598.281C941.044 597.266 938.716 595.156 937.481 592.5C936.263 595.562 933.809 597.984 930.45 599.156L928.919 596.781C933.294 595.344 935.934 591.734 935.95 587.844V587.062H929.794V584.656H944.95V587.062H938.919V587.812ZM932.7 605.344C932.7 602.062 936.278 600.141 942.106 600.156C947.872 600.141 951.388 602.062 951.388 605.344C951.388 608.672 947.872 610.609 942.106 610.594C936.278 610.609 932.7 608.672 932.7 605.344ZM935.669 605.344C935.653 607.219 938.059 608.266 942.106 608.25C946.122 608.266 948.497 607.219 948.481 605.344C948.497 603.516 946.122 602.484 942.106 602.5C938.059 602.484 935.653 603.516 935.669 605.344ZM948.169 599.469V582.656H951.138V589.594H955.2V592.031H951.138V599.469H948.169ZM979.181 582.656V597.062H976.244V582.656H979.181ZM956.088 594.562C960.463 593.109 963.134 589.438 963.15 585.562V583.406H966.181V585.562C966.166 589.312 968.853 592.719 973.15 594.062L971.681 596.375C968.416 595.312 965.963 593.109 964.697 590.266C963.431 593.328 960.931 595.766 957.588 596.906L956.088 594.562ZM960.806 600.75V598.406H979.213V605.406H963.775V608H980.15V610.375H960.9V603.156H976.275V600.75H960.806ZM984.537 599.375C984.569 593.484 986.241 588.594 989.162 584.406H992.225C990.069 587.5 988.006 593.797 988.006 599.375C988.006 604.969 990.069 611.266 992.225 614.375H989.162C986.241 610.172 984.569 605.281 984.537 599.375ZM1001.08 584.75C1003.64 584.766 1005.74 586.219 1006.97 588.75H1013.89V582.656H1016.83V610.719H1013.89V599.969H1007.18C1005.97 602.781 1003.78 604.422 1001.08 604.406C996.909 604.422 993.956 600.609 993.988 594.562C993.956 588.578 996.909 584.766 1001.08 584.75ZM996.8 594.562C996.816 599.016 998.55 601.75 1001.08 601.75C1003.61 601.75 1005.35 599.016 1005.36 594.562C1005.35 590.172 1003.61 587.422 1001.08 587.406C998.55 587.422 996.816 590.172 996.8 594.562ZM1007.82 591.188C1008.03 592.219 1008.18 593.344 1008.18 594.562C1008.18 595.625 1008.08 596.609 1007.89 597.531H1013.89V591.188H1007.82ZM1028.03 599.375C1028 605.281 1026.33 610.172 1023.41 614.375H1020.34C1022.5 611.266 1024.56 604.969 1024.56 599.375C1024.56 593.797 1022.5 587.5 1020.34 584.406H1023.41C1026.33 588.594 1028 593.484 1028.03 599.375Z" fill="black"/>
<path d="M1663.22 424.656V436.375H1667.44V438.875H1663.22V452.656H1660.25V424.656H1663.22ZM1640.94 445.031C1643.14 445.031 1645.7 445.031 1648.38 444.953V442.109C1645.22 441.641 1643.16 439.734 1643.19 437.031C1643.16 433.875 1645.89 431.797 1649.88 431.781C1653.84 431.797 1656.61 433.875 1656.62 437.031C1656.61 439.734 1654.52 441.656 1651.34 442.109V444.844C1653.83 444.719 1656.33 444.516 1658.66 444.188L1658.84 446.375C1652.78 447.453 1646.23 447.516 1641.41 447.5L1640.94 445.031ZM1641.47 430.344V427.969H1648.38V424.719H1651.34V427.969H1658.25V430.344H1641.47ZM1645.97 437.031C1645.97 438.812 1647.53 439.922 1649.88 439.906C1652.22 439.922 1653.77 438.812 1653.78 437.031C1653.77 435.234 1652.22 434.094 1649.88 434.094C1647.53 434.094 1645.97 435.234 1645.97 437.031ZM1677.92 429.812C1677.9 433.375 1680.39 436.625 1684.64 437.969L1683.23 440.281C1680.04 439.266 1677.72 437.156 1676.48 434.5C1675.26 437.562 1672.81 439.984 1669.45 441.156L1667.92 438.781C1672.29 437.344 1674.93 433.734 1674.95 429.844V429.062H1668.79V426.656H1683.95V429.062H1677.92V429.812ZM1671.7 447.344C1671.7 444.062 1675.28 442.141 1681.11 442.156C1686.87 442.141 1690.39 444.062 1690.39 447.344C1690.39 450.672 1686.87 452.609 1681.11 452.594C1675.28 452.609 1671.7 450.672 1671.7 447.344ZM1674.67 447.344C1674.65 449.219 1677.06 450.266 1681.11 450.25C1685.12 450.266 1687.5 449.219 1687.48 447.344C1687.5 445.516 1685.12 444.484 1681.11 444.5C1677.06 444.484 1674.65 445.516 1674.67 447.344ZM1687.17 441.469V424.656H1690.14V431.594H1694.2V434.031H1690.14V441.469H1687.17ZM1718.18 424.656V439.062H1715.24V424.656H1718.18ZM1695.09 436.562C1699.46 435.109 1702.13 431.438 1702.15 427.562V425.406H1705.18V427.562C1705.17 431.312 1707.85 434.719 1712.15 436.062L1710.68 438.375C1707.42 437.312 1704.96 435.109 1703.7 432.266C1702.43 435.328 1699.93 437.766 1696.59 438.906L1695.09 436.562ZM1699.81 442.75V440.406H1718.21V447.406H1702.78V450H1719.15V452.375H1699.9V445.156H1715.28V442.75H1699.81ZM1723.54 441.375C1723.57 435.484 1725.24 430.594 1728.16 426.406H1731.22C1729.07 429.5 1727.01 435.797 1727.01 441.375C1727.01 446.969 1729.07 453.266 1731.22 456.375H1728.16C1725.24 452.172 1723.57 447.281 1723.54 441.375ZM1740.08 426.75C1742.64 426.766 1744.74 428.219 1745.97 430.75H1752.89V424.656H1755.83V452.719H1752.89V441.969H1746.18C1744.97 444.781 1742.78 446.422 1740.08 446.406C1735.91 446.422 1732.96 442.609 1732.99 436.562C1732.96 430.578 1735.91 426.766 1740.08 426.75ZM1735.8 436.562C1735.82 441.016 1737.55 443.75 1740.08 443.75C1742.61 443.75 1744.35 441.016 1744.36 436.562C1744.35 432.172 1742.61 429.422 1740.08 429.406C1737.55 429.422 1735.82 432.172 1735.8 436.562ZM1746.82 433.188C1747.03 434.219 1747.18 435.344 1747.18 436.562C1747.18 437.625 1747.08 438.609 1746.89 439.531H1752.89V433.188H1746.82ZM1767.03 441.375C1767 447.281 1765.33 452.172 1762.41 456.375H1759.34C1761.5 453.266 1763.56 446.969 1763.56 441.375C1763.56 435.797 1761.5 429.5 1759.34 426.406H1762.41C1765.33 430.594 1767 435.484 1767.03 441.375Z" fill="black"/>
<path d="M415.301 337.062C422.977 337.043 427.781 339.543 427.801 343.781C427.781 347.941 422.977 350.402 415.301 350.383C407.645 350.402 402.781 347.941 402.801 343.781C402.781 339.543 407.645 337.043 415.301 337.062ZM399.363 356.086V353.078H431.277V356.086H399.363ZM403.191 370.891V359.211H427.371V370.891H403.191ZM406.629 343.781C406.609 346.105 409.91 347.473 415.301 347.492C420.652 347.473 423.992 346.105 423.973 343.781C423.992 341.359 420.652 339.973 415.301 339.992C409.91 339.973 406.609 341.359 406.629 343.781ZM406.863 367.883H423.777V362.18H406.863V367.883ZM442.777 338.352C448.148 338.352 452.074 341.809 452.113 346.711C452.074 351.652 448.148 355.07 442.777 355.07C437.426 355.07 433.441 351.652 433.48 346.711C433.441 341.809 437.426 338.352 442.777 338.352ZM437.113 346.711C437.074 349.855 439.496 351.945 442.777 351.906C446.059 351.945 448.461 349.855 448.48 346.711C448.461 343.586 446.059 341.535 442.777 341.516C439.496 341.535 437.074 343.586 437.113 346.711ZM437.309 361.594V358.586H460.434V371.359H456.723V361.594H437.309ZM456.723 356.867V336.32H460.434V345.109H465.512V348.156H460.434V356.867H456.723ZM478.691 346.633C478.672 352.16 482.324 358.332 487.637 360.852L485.527 363.742C481.602 361.867 478.477 357.922 476.895 353.352C475.293 358.332 472.012 362.648 468.027 364.641L465.84 361.711C471.152 359.152 475 352.551 475.02 346.633V342.922H467.129V339.836H486.309V342.922H478.691V346.633ZM490.059 371.32V336.32H493.77V350.188H499.395V353.312H493.77V371.32H490.059ZM532.105 364.016V367.141H500.074V364.016H508.824V357.844H503.98V346.711H524.527V341.828H503.902V338.781H528.199V349.719H507.652V354.797H529.02V357.844H523.707V364.016H532.105ZM512.418 364.016H520.074V357.844H512.418V364.016ZM562.629 336.32V354.328H558.957V336.32H562.629ZM533.762 351.203C539.23 349.387 542.57 344.797 542.59 339.953V337.258H546.379V339.953C546.359 344.641 549.719 348.898 555.09 350.578L553.254 353.469C549.172 352.141 546.105 349.387 544.523 345.832C542.941 349.66 539.816 352.707 535.637 354.133L533.762 351.203ZM539.66 358.938V356.008H562.668V364.758H543.371V368H563.84V370.969H539.777V361.945H558.996V358.938H539.66Z" fill="black"/>
<path d="M776.613 303.359V329.141H772.902V320.039H764.211C762.57 322.012 760.031 323.203 757.121 323.203C751.848 323.203 747.922 319.512 747.941 314.375C747.922 309.199 751.848 305.508 757.121 305.469C760.012 305.488 762.531 306.68 764.172 308.633H772.902V303.359H776.613ZM751.496 314.375C751.477 317.676 753.84 319.941 757.121 319.922C760.266 319.941 762.668 317.676 762.668 314.375C762.668 311.074 760.266 308.809 757.121 308.789C753.84 308.809 751.477 311.074 751.496 314.375ZM753.879 337.578V326.445H757.59V334.57H777.551V337.578H753.879ZM765.812 311.641C766.086 312.5 766.223 313.398 766.223 314.375C766.223 315.312 766.086 316.211 765.832 317.031H772.902V311.641H765.812ZM812.918 323.047V326.055H798.699V338.281H795.066V326.055H781.004V323.047H812.918ZM782.801 317.461C789.324 316.562 794.754 312.676 794.871 308.359H783.973V305.391H809.91V308.359H799.09C799.148 312.676 804.539 316.562 811.16 317.461L809.793 320.391C804.051 319.492 799.09 316.66 796.961 312.676C794.812 316.66 789.871 319.492 784.207 320.391L782.801 317.461ZM843.559 303.32V321.328H839.887V303.32H843.559ZM814.691 318.203C820.16 316.387 823.5 311.797 823.52 306.953V304.258H827.309V306.953C827.289 311.641 830.648 315.898 836.02 317.578L834.184 320.469C830.102 319.141 827.035 316.387 825.453 312.832C823.871 316.66 820.746 319.707 816.566 321.133L814.691 318.203ZM820.59 325.938V323.008H843.598V331.758H824.301V335H844.77V337.969H820.707V328.945H839.926V325.938H820.59Z" fill="black"/>
<g filter="url(#filter1_f_4326_10223)">
<ellipse cx="758" cy="177.025" rx="28" ry="7.97468" fill="black" fill-opacity="0.25"/>
</g>
<path d="M802 103.084C802 127.43 793.902 132.786 758 177.025C722.27 133.163 714 127.43 714 103.084C714 78.737 733.699 59 758 59C782.301 59 802 78.737 802 103.084Z" fill="url(#paint0_linear_4326_10223)"/>
<rect x="727.656" y="72.9277" width="60.6897" height="60.5258" rx="30.2629" fill="white"/>
<path d="M762.787 89.8232V116.69H757.184V95.1299H757.035L750.875 98.9893V94.0537L757.518 89.8232H762.787Z" fill="#191F28"/>
<g filter="url(#filter2_f_4326_10223)">
<ellipse cx="666" cy="226.025" rx="28" ry="7.97468" fill="black" fill-opacity="0.25"/>
</g>
<path d="M710 152.084C710 176.43 701.902 181.786 666 226.025C630.27 182.163 622 176.43 622 152.084C622 127.737 641.699 108 666 108C690.301 108 710 127.737 710 152.084Z" fill="url(#paint1_linear_4326_10223)"/>
<rect x="635.656" y="121.928" width="60.6897" height="60.5258" rx="30.2629" fill="white"/>
<path d="M656.519 165.69L656.481 161.646L666.13 152.776C668.635 150.383 669.989 148.898 669.989 146.765C669.989 144.371 668.189 142.887 665.722 142.905C663.198 142.887 661.547 144.482 661.565 147.062H656.259C656.24 141.811 660.137 138.452 665.796 138.452C671.548 138.452 675.37 141.736 675.37 146.394C675.37 149.455 673.886 151.96 668.356 156.97L664.274 160.94V161.089H675.741V165.69H656.519Z" fill="#191F28"/>
<g filter="url(#filter3_f_4326_10223)">
<ellipse cx="598" cy="259.025" rx="28" ry="7.97468" fill="black" fill-opacity="0.25"/>
</g>
<path d="M642 185.084C642 209.43 633.902 214.786 598 259.025C562.27 215.163 554 209.43 554 185.084C554 160.737 573.699 141 598 141C622.301 141 642 160.737 642 185.084Z" fill="url(#paint2_linear_4326_10223)"/>
<rect x="567.656" y="154.928" width="60.6897" height="60.5258" rx="30.2629" fill="white"/>
<path d="M597.926 199.062C592.025 199.062 587.795 195.814 587.684 191.12H593.324C593.417 193.124 595.365 194.441 597.963 194.46C600.635 194.441 602.546 192.957 602.527 190.786C602.546 188.597 600.598 187.057 597.443 187.038H594.957V182.919H597.443C600.097 182.919 601.952 181.472 601.934 179.356C601.952 177.297 600.375 175.887 598 175.905C595.625 175.887 593.677 177.223 593.584 179.282H588.24C588.333 174.662 592.489 171.452 598 171.452C603.604 171.452 607.333 174.773 607.314 179.022C607.333 182.028 605.236 184.162 602.23 184.7V184.923C606.183 185.405 608.354 187.799 608.316 191.157C608.354 195.759 603.993 199.062 597.926 199.062Z" fill="#191F28"/>
<g filter="url(#filter4_f_4326_10223)">
<ellipse cx="914" cy="273.025" rx="28" ry="7.97468" fill="black" fill-opacity="0.25"/>
</g>
<path d="M958 199.084C958 223.43 949.902 228.786 914 273.025C878.27 229.163 870 223.43 870 199.084C870 174.737 889.699 155 914 155C938.301 155 958 174.737 958 199.084Z" fill="url(#paint3_linear_4326_10223)"/>
<rect x="883.656" y="168.928" width="60.6897" height="60.5258" rx="30.2629" fill="white"/>
<path d="M914.297 213.062C908.749 213.043 903.442 209.722 903.461 199.888C903.479 190.814 907.803 185.452 914.52 185.452C919.919 185.452 923.63 188.866 924.168 193.282H918.676C918.23 191.408 916.69 190.239 914.52 190.239C910.864 190.239 908.953 193.523 908.916 198.812H909.176C910.419 196.418 913.072 195.026 916.041 195.026C920.884 195.026 924.483 198.645 924.465 203.71C924.483 209.165 920.364 213.08 914.297 213.062ZM909.473 203.858C909.51 206.493 911.514 208.664 914.26 208.646C917.024 208.664 919.047 206.567 919.047 203.858C919.047 201.168 917.062 199.09 914.334 199.071C911.588 199.09 909.51 201.242 909.473 203.858Z" fill="#191F28"/>
<g filter="url(#filter5_f_4326_10223)">
<ellipse cx="1141" cy="418.025" rx="28" ry="7.97468" fill="black" fill-opacity="0.25"/>
</g>
<path d="M1185 344.084C1185 368.43 1176.9 373.786 1141 418.025C1105.27 374.163 1097 368.43 1097 344.084C1097 319.737 1116.7 300 1141 300C1165.3 300 1185 319.737 1185 344.084Z" fill="url(#paint4_linear_4326_10223)"/>
<rect x="1110.66" y="313.928" width="60.6897" height="60.5258" rx="30.2629" fill="white"/>
<path d="M1133.23 357.69L1144.54 335.573V335.388H1131.37V330.823H1150.33V335.462L1139.01 357.69H1133.23Z" fill="#191F28"/>
<g filter="url(#filter6_f_4326_10223)">
<ellipse cx="797" cy="287.025" rx="28" ry="7.97468" fill="black" fill-opacity="0.25"/>
</g>
<path d="M841 213.084C841 237.43 832.902 242.786 797 287.025C761.27 243.163 753 237.43 753 213.084C753 188.737 772.699 169 797 169C821.301 169 841 188.737 841 213.084Z" fill="url(#paint5_linear_4326_10223)"/>
<rect x="766.656" y="182.928" width="60.6897" height="60.5258" rx="30.2629" fill="white"/>
<path d="M797.074 227.062C791.471 227.062 787.37 223.759 787.277 219.12H792.695C792.825 221.217 794.736 222.664 797.074 222.646C799.857 222.664 801.843 220.697 801.824 217.896C801.843 215.038 799.82 213.053 797 213.034C794.978 213.034 793.567 213.795 792.77 215.298H787.723L789.17 199.823H805.721V204.388H793.771L793.029 211.179H793.252C794.235 209.861 796.276 208.896 798.633 208.915C803.568 208.896 807.242 212.589 807.242 217.747C807.242 223.184 803.123 227.062 797.074 227.062Z" fill="#191F28"/>
<g filter="url(#filter7_f_4326_10223)">
<ellipse cx="709" cy="340.025" rx="28" ry="7.97468" fill="black" fill-opacity="0.25"/>
</g>
<path d="M753 266.084C753 290.43 744.902 295.786 709 340.025C673.27 296.163 665 290.43 665 266.084C665 241.737 684.699 222 709 222C733.301 222 753 241.737 753 266.084Z" fill="url(#paint6_linear_4326_10223)"/>
<rect x="678.656" y="235.928" width="60.6897" height="60.5258" rx="30.2629" fill="white"/>
<path d="M698.183 274.94V270.524L709.538 252.823H716.552V270.45H719.966V274.94H716.552V279.69H711.245V274.94H698.183ZM703.823 270.45H711.319V258.946H711.06L703.823 270.228V270.45Z" fill="#191F28"/>
<g filter="url(#filter8_f_4326_10223)">
<ellipse cx="483" cy="510.025" rx="28" ry="7.97468" fill="black" fill-opacity="0.25"/>
</g>
<path d="M527 436.084C527 460.43 518.902 465.786 483 510.025C447.27 466.163 439 460.43 439 436.084C439 411.737 458.699 392 483 392C507.301 392 527 411.737 527 436.084Z" fill="url(#paint7_linear_4326_10223)"/>
<rect x="452.656" y="405.928" width="60.6897" height="60.5258" rx="30.2629" fill="white"/>
<path d="M482.981 450.062C476.84 450.062 472.442 446.833 472.442 442.454C472.442 439.077 475.04 436.331 478.38 435.812V435.626C475.467 435.069 473.463 432.639 473.481 429.688C473.463 425.514 477.489 422.452 482.981 422.452C488.474 422.452 492.5 425.514 492.519 429.688C492.5 432.639 490.44 435.069 487.62 435.626V435.812C490.886 436.331 493.521 439.077 493.521 442.454C493.521 446.833 489.104 450.062 482.981 450.062ZM478.269 441.897C478.25 444.198 480.143 445.812 482.981 445.794C485.82 445.812 487.713 444.198 487.694 441.897C487.713 439.578 485.709 437.871 482.981 437.853C480.254 437.871 478.25 439.56 478.269 441.897ZM478.937 430.245C478.918 432.397 480.606 433.9 482.981 433.919C485.338 433.9 487.045 432.397 487.063 430.245C487.045 428.148 485.375 426.683 482.981 426.683C480.569 426.683 478.918 428.148 478.937 430.245Z" fill="#191F28"/>
<g filter="url(#filter9_f_4326_10223)">
<ellipse cx="1126" cy="799.025" rx="28" ry="7.97468" fill="black" fill-opacity="0.25"/>
</g>
<path d="M1170 725.084C1170 749.43 1161.9 754.786 1126 799.025C1090.27 755.163 1082 749.43 1082 725.084C1082 700.737 1101.7 681 1126 681C1150.3 681 1170 700.737 1170 725.084Z" fill="url(#paint8_linear_4326_10223)"/>
<rect x="1095.66" y="694.928" width="60.6897" height="60.5258" rx="30.2629" fill="white"/>
<path d="M1125.7 711.452C1131.27 711.471 1136.54 714.792 1136.54 724.552C1136.56 733.681 1132.23 739.062 1125.48 739.062C1120.08 739.062 1116.37 735.666 1115.83 731.12H1121.32C1121.79 733.105 1123.33 734.274 1125.48 734.274C1129.14 734.274 1131.07 730.99 1131.08 725.628H1130.86C1129.6 728.003 1126.95 729.413 1123.96 729.413C1119.13 729.413 1115.57 725.776 1115.54 720.767C1115.54 715.367 1119.64 711.434 1125.7 711.452ZM1120.99 720.618C1120.99 723.271 1122.94 725.331 1125.7 725.331C1128.43 725.331 1130.53 723.16 1130.53 720.581C1130.49 718.021 1128.49 715.85 1125.74 715.831C1122.99 715.85 1120.95 717.946 1120.99 720.618Z" fill="#191F28"/>
<g filter="url(#filter10_f_4326_10223)">
<ellipse cx="1516" cy="714.025" rx="28" ry="7.97468" fill="black" fill-opacity="0.25"/>
</g>
<path d="M1560 640.084C1560 664.43 1551.9 669.786 1516 714.025C1480.27 670.163 1472 664.43 1472 640.084C1472 615.737 1491.7 596 1516 596C1540.3 596 1560 615.737 1560 640.084Z" fill="url(#paint9_linear_4326_10223)"/>
<rect x="1485.66" y="609.928" width="60.6897" height="60.5258" rx="30.2629" fill="white"/>
<path d="M1508.24 626.823V653.69H1502.64V632.13H1502.49L1496.33 635.989V631.054L1502.97 626.823H1508.24ZM1524.91 654.062C1518.17 654.062 1514.11 649.052 1514.11 640.257C1514.11 631.48 1518.21 626.452 1524.91 626.452C1531.6 626.452 1535.71 631.48 1535.71 640.257C1535.71 649.089 1531.62 654.062 1524.91 654.062ZM1519.82 640.257C1519.79 646.454 1521.79 649.46 1524.91 649.46C1528.02 649.46 1530.01 646.454 1529.99 640.257C1530.01 634.115 1528 631.035 1524.91 631.017C1521.81 631.035 1519.82 634.115 1519.82 640.257Z" fill="#191F28"/>
<defs>
<filter id="filter0_f_4326_10223" x="0" y="101.327" width="1906" height="987.673" filterUnits="userSpaceOnUse" color-interpolation-filters="sRGB">
<feFlood flood-opacity="0" result="BackgroundImageFix"/>
<feBlend mode="normal" in="SourceGraphic" in2="BackgroundImageFix" result="shape"/>
<feGaussianBlur stdDeviation="24" result="effect1_foregroundBlur_4326_10223"/>
</filter>
<filter id="filter1_f_4326_10223" x="726" y="165.051" width="64" height="23.9492" filterUnits="userSpaceOnUse" color-interpolation-filters="sRGB">
<feFlood flood-opacity="0" result="BackgroundImageFix"/>
<feBlend mode="normal" in="SourceGraphic" in2="BackgroundImageFix" result="shape"/>
<feGaussianBlur stdDeviation="2" result="effect1_foregroundBlur_4326_10223"/>
</filter>
<filter id="filter2_f_4326_10223" x="634" y="214.051" width="64" height="23.9492" filterUnits="userSpaceOnUse" color-interpolation-filters="sRGB">
<feFlood flood-opacity="0" result="BackgroundImageFix"/>
<feBlend mode="normal" in="SourceGraphic" in2="BackgroundImageFix" result="shape"/>
<feGaussianBlur stdDeviation="2" result="effect1_foregroundBlur_4326_10223"/>
</filter>
<filter id="filter3_f_4326_10223" x="566" y="247.051" width="64" height="23.9492" filterUnits="userSpaceOnUse" color-interpolation-filters="sRGB">
<feFlood flood-opacity="0" result="BackgroundImageFix"/>
<feBlend mode="normal" in="SourceGraphic" in2="BackgroundImageFix" result="shape"/>
<feGaussianBlur stdDeviation="2" result="effect1_foregroundBlur_4326_10223"/>
</filter>
<filter id="filter4_f_4326_10223" x="882" y="261.051" width="64" height="23.9492" filterUnits="userSpaceOnUse" color-interpolation-filters="sRGB">
<feFlood flood-opacity="0" result="BackgroundImageFix"/>
<feBlend mode="normal" in="SourceGraphic" in2="BackgroundImageFix" result="shape"/>
<feGaussianBlur stdDeviation="2" result="effect1_foregroundBlur_4326_10223"/>
</filter>
<filter id="filter5_f_4326_10223" x="1109" y="406.051" width="64" height="23.9492" filterUnits="userSpaceOnUse" color-interpolation-filters="sRGB">
<feFlood flood-opacity="0" result="BackgroundImageFix"/>
<feBlend mode="normal" in="SourceGraphic" in2="BackgroundImageFix" result="shape"/>
<feGaussianBlur stdDeviation="2" result="effect1_foregroundBlur_4326_10223"/>
</filter>
<filter id="filter6_f_4326_10223" x="765" y="275.051" width="64" height="23.9492" filterUnits="userSpaceOnUse" color-interpolation-filters="sRGB">
<feFlood flood-opacity="0" result="BackgroundImageFix"/>
<feBlend mode="normal" in="SourceGraphic" in2="BackgroundImageFix" result="shape"/>
<feGaussianBlur stdDeviation="2" result="effect1_foregroundBlur_4326_10223"/>
</filter>
<filter id="filter7_f_4326_10223" x="677" y="328.051" width="64" height="23.9492" filterUnits="userSpaceOnUse" color-interpolation-filters="sRGB">
<feFlood flood-opacity="0" result="BackgroundImageFix"/>
<feBlend mode="normal" in="SourceGraphic" in2="BackgroundImageFix" result="shape"/>
<feGaussianBlur stdDeviation="2" result="effect1_foregroundBlur_4326_10223"/>
</filter>
<filter id="filter8_f_4326_10223" x="451" y="498.051" width="64" height="23.9492" filterUnits="userSpaceOnUse" color-interpolation-filters="sRGB">
<feFlood flood-opacity="0" result="BackgroundImageFix"/>
<feBlend mode="normal" in="SourceGraphic" in2="BackgroundImageFix" result="shape"/>
<feGaussianBlur stdDeviation="2" result="effect1_foregroundBlur_4326_10223"/>
</filter>
<filter id="filter9_f_4326_10223" x="1094" y="787.051" width="64" height="23.9492" filterUnits="userSpaceOnUse" color-interpolation-filters="sRGB">
<feFlood flood-opacity="0" result="BackgroundImageFix"/>
<feBlend mode="normal" in="SourceGraphic" in2="BackgroundImageFix" result="shape"/>
<feGaussianBlur stdDeviation="2" result="effect1_foregroundBlur_4326_10223"/>
</filter>
<filter id="filter10_f_4326_10223" x="1484" y="702.051" width="64" height="23.9492" filterUnits="userSpaceOnUse" color-interpolation-filters="sRGB">
<feFlood flood-opacity="0" result="BackgroundImageFix"/>
<feBlend mode="normal" in="SourceGraphic" in2="BackgroundImageFix" result="shape"/>
<feGaussianBlur stdDeviation="2" result="effect1_foregroundBlur_4326_10223"/>
</filter>
<linearGradient id="paint0_linear_4326_10223" x1="783.362" y1="71.0864" x2="733.637" y2="156.956" gradientUnits="userSpaceOnUse">
<stop offset="0.144416" stop-color="#C41818"/>
<stop offset="1" stop-color="#072B24"/>
</linearGradient>
<linearGradient id="paint1_linear_4326_10223" x1="691.362" y1="120.086" x2="641.637" y2="205.956" gradientUnits="userSpaceOnUse">
<stop offset="0.144416" stop-color="#C41818"/>
<stop offset="1" stop-color="#072B24"/>
</linearGradient>
<linearGradient id="paint2_linear_4326_10223" x1="623.362" y1="153.086" x2="573.637" y2="238.956" gradientUnits="userSpaceOnUse">
<stop offset="0.144416" stop-color="#C41818"/>
<stop offset="1" stop-color="#072B24"/>
</linearGradient>
<linearGradient id="paint3_linear_4326_10223" x1="939.362" y1="167.086" x2="889.637" y2="252.956" gradientUnits="userSpaceOnUse">
<stop offset="0.144416" stop-color="#C41818"/>
<stop offset="1" stop-color="#072B24"/>
</linearGradient>
<linearGradient id="paint4_linear_4326_10223" x1="1166.36" y1="312.086" x2="1116.64" y2="397.956" gradientUnits="userSpaceOnUse">
<stop offset="0.144416" stop-color="#C41818"/>
<stop offset="1" stop-color="#072B24"/>
</linearGradient>
<linearGradient id="paint5_linear_4326_10223" x1="822.362" y1="181.086" x2="772.637" y2="266.956" gradientUnits="userSpaceOnUse">
<stop offset="0.144416" stop-color="#C41818"/>
<stop offset="1" stop-color="#072B24"/>
</linearGradient>
<linearGradient id="paint6_linear_4326_10223" x1="734.362" y1="234.086" x2="684.637" y2="319.956" gradientUnits="userSpaceOnUse">
<stop offset="0.144416" stop-color="#C41818"/>
<stop offset="1" stop-color="#072B24"/>
</linearGradient>
<linearGradient id="paint7_linear_4326_10223" x1="508.362" y1="404.086" x2="458.637" y2="489.956" gradientUnits="userSpaceOnUse">
<stop offset="0.144416" stop-color="#C41818"/>
<stop offset="1" stop-color="#072B24"/>
</linearGradient>
<linearGradient id="paint8_linear_4326_10223" x1="1151.36" y1="693.086" x2="1101.64" y2="778.956" gradientUnits="userSpaceOnUse">
<stop offset="0.144416" stop-color="#C41818"/>
<stop offset="1" stop-color="#072B24"/>
</linearGradient>
<linearGradient id="paint9_linear_4326_10223" x1="1541.36" y1="608.086" x2="1491.64" y2="693.956" gradientUnits="userSpaceOnUse">
<stop offset="0.144416" stop-color="#C41818"/>
<stop offset="1" stop-color="#072B24"/>
</linearGradient>
</defs>
</svg>
