<svg width="1906" height="1023" viewBox="0 0 1906 1023" fill="none" xmlns="http://www.w3.org/2000/svg">
<g filter="url(#filter0_f_4230_10380)">
<path d="M738.714 88L53 480C53 480 203 499.906 376.469 558.604C549.939 617.302 715.245 718.365 843.306 817.896C957.263 906.465 1138.71 970 1138.71 970L1853 561.667L1367.29 284L1224.43 365.667L738.714 88Z" stroke="black" stroke-opacity="0.25" stroke-width="10" stroke-linejoin="round"/>
</g>
<mask id="mask0_4230_10380" style="mask-type:alpha" maskUnits="userSpaceOnUse" x="48" y="43" width="1810" height="892">
<path d="M738.714 48L53 440C53 440 203 459.906 376.469 518.604C549.939 577.302 715.245 678.365 843.306 777.896C957.263 866.465 1138.71 930 1138.71 930L1853 521.667L1367.29 244L1224.43 325.667L738.714 48Z" stroke="black" stroke-width="10" stroke-linejoin="round"/>
</mask>
<g mask="url(#mask0_4230_10380)">
<path d="M271.874 493.083L286.67 484.406L287.18 460.417L138.201 424.688L702.997 97.3885L716.997 90.5L675.997 68.5V59.5811L32.0781 416.521L41.2618 451.229L97.8944 474.198H149.425L212.69 491.552L231.568 497.167L271.874 493.083Z" fill="black"/>
<path d="M1367.28 222.052L1222.38 308.312L842.497 90.5L828.997 87.8634L796.497 103.5L1208.61 354.25L1367.28 277.177L1796.87 513.5L1137.69 912.646L991.772 855.99L875.956 786.062L848.915 800.865L982.588 881L1143.81 957.052L1849.94 563.01L1875.45 516.562L1548.4 316.479L1367.28 222.052Z" fill="black"/>
<path d="M392.792 507.885L360.139 525.24L705.037 691.125L778.507 748.292L793.303 751.354L811.16 739.615L666.262 634.469L392.792 507.885Z" fill="black"/>
</g>
<path d="M1524.43 415.5L1453 456.333" stroke="black" stroke-width="4" stroke-linecap="round"/>
<path d="M1324.43 382.834L1374.43 411.417L1517.29 329.75L1467.29 301.167L1324.43 382.834Z" stroke="black" stroke-width="4" stroke-linejoin="round"/>
<path d="M1424.43 325.667L1449.46 339.941M1449.46 339.941L1475.45 354.761M1449.46 339.941L1435.14 348.125M1449.46 339.941L1463.72 331.792M1410.14 333.833L1435.14 348.125M1435.14 348.125L1460.14 362.417M1435.14 348.125L1420.86 356.292M1395.86 342L1420.86 356.292M1420.86 356.292L1445.86 370.583M1420.86 356.292L1406.57 364.458M1381.57 350.167L1406.57 364.458M1406.57 364.458L1431.57 378.75M1406.57 364.458L1392.29 372.625M1367.29 358.333L1392.29 372.625M1392.29 372.625L1417.29 386.917M1392.29 372.625L1378 380.792M1403 395.083L1378 380.792M1378 380.792L1349.43 397.125M1385.14 376.708L1410.14 391M1374.43 354.25L1424.43 382.833M1388.72 346.083L1438.72 374.667M1403 337.917L1453 366.5M1417.29 329.75L1467.29 358.333M1431.57 321.583L1481.57 350.167" stroke="black" stroke-width="2" stroke-linecap="round"/>
<path d="M1124.43 497.166L1253 570.666L1410.14 480.833L1281.57 407.333L1124.43 497.166Z" stroke="black" stroke-width="4" stroke-linejoin="round"/>
<path d="M1124.43 791.167L1253 864.667L1481.57 734L1353 660.5L1124.43 791.167Z" stroke="black" stroke-width="4" stroke-linejoin="round"/>
<path d="M267.289 497.167L338.718 538L410.146 497.167L338.718 456.333L267.289 497.167Z" stroke="black" stroke-width="4" stroke-linejoin="round"/>
<path d="M767.289 766.667L838.718 807.5L910.146 766.667L838.718 725.833L767.289 766.667Z" stroke="black" stroke-width="4" stroke-linejoin="round"/>
<mask id="mask1_4230_10380" style="mask-type:alpha" maskUnits="userSpaceOnUse" x="708" y="217" width="233" height="136">
<path d="M710.141 293L810.141 350.167L938.712 276.667L838.712 219.5L710.141 293Z" stroke="black" stroke-width="4" stroke-linejoin="round"/>
</mask>
<g mask="url(#mask1_4230_10380)">
<path d="M721 284.5H734.5H758.5L846 231.5L919 272.5L804.5 332L776 323.5L764 332L809 365L959 272.5L842.5 202L807 220.5L824.5 235.5L758.5 276.5L739 264L725 269L721 284.5Z" fill="black"/>
</g>
<path d="M810.141 350.167L824.426 358.333L888.712 321.583L874.426 313.417L810.141 350.167Z" stroke="black" stroke-width="4" stroke-linejoin="round"/>
<path d="M874.43 313.417L888.715 321.584L953.001 284.834L938.715 276.667L874.43 313.417Z" stroke="black" stroke-width="4" stroke-linejoin="round"/>
<path d="M1188.71 444.084L1203 452.25L1281.57 407.334L1267.28 399.167L1188.71 444.084Z" stroke="black" stroke-width="4" stroke-linejoin="round"/>
<path d="M1110.14 489L1124.43 497.167L1203 452.25L1188.71 444.083L1110.14 489Z" stroke="black" stroke-width="4" stroke-linejoin="round"/>
<path d="M717.289 223.583L774.432 256.25L838.718 219.5L781.575 186.833L717.289 223.583Z" stroke="black" stroke-width="4" stroke-linejoin="round"/>
<path d="M510.141 178.667L624.426 244L752.998 170.5L638.712 105.167L510.141 178.667Z" stroke="black" stroke-width="4" stroke-linejoin="round"/>
<path d="M653 260.333L710.143 293L774.429 256.25L717.286 223.583L653 260.333Z" stroke="black" stroke-width="4" stroke-linejoin="round"/>
<path d="M1524.43 415.5L1581.57 448.167L1653 407.333L1595.86 374.667L1524.43 415.5Z" stroke="black" stroke-width="4" stroke-linejoin="round"/>
<path d="M1445.86 370.583L1495.86 399.167L1567.29 358.333L1517.29 329.75L1445.86 370.583Z" stroke="black" stroke-width="4" stroke-linejoin="round"/>
<path d="M1381.57 407.333L1431.57 435.917L1495.86 399.167L1445.86 370.583L1381.57 407.333Z" stroke="black" stroke-width="4" stroke-linejoin="round"/>
<path d="M1124.43 497.167L1095.86 513.5L995.858 456.333L824.43 358.333" stroke="black" stroke-width="4" stroke-linecap="round" stroke-linejoin="round"/>
<mask id="mask2_4230_10380" style="mask-type:alpha" maskUnits="userSpaceOnUse" x="865" y="487" width="176" height="102">
<path d="M867.281 529.833L967.281 587L1038.71 546.167L938.71 489L867.281 529.833Z" stroke="black" stroke-width="4" stroke-linejoin="round"/>
</mask>
<g mask="url(#mask2_4230_10380)">
<path d="M967.492 511.845C970.826 510.011 977.792 506.343 978.992 506.343L940.492 482.834L870.992 510.344L855.992 529.351L942.492 587.373L972.492 594.375L1027.49 562.363C1032.66 559.863 1043.09 554.761 1043.49 554.361C1043.89 553.96 1044.99 548.192 1045.49 545.357L1040.49 542.856L1029.99 548.858L1020.99 550.359L964.992 579.87L942.492 563.864L882.992 529.351L888.492 523.849L940.492 496.839L967.492 511.845Z" fill="black"/>
</g>
<mask id="mask3_4230_10380" style="mask-type:alpha" maskUnits="userSpaceOnUse" x="679" y="380" width="176" height="103">
<path d="M681.57 423.666L781.57 480.833L852.999 440L752.999 382.833L681.57 423.666Z" stroke="black" stroke-width="4" stroke-linejoin="round"/>
</mask>
<g mask="url(#mask3_4230_10380)">
<path d="M778 405.805L790 398.803L758 370.292L673.5 411.807L687 435.816L792 494.838C812.333 484.168 853.3 462.526 854.5 461.326C855.7 460.125 864.333 448.154 868.5 442.319L856 435.816L845 442.319H839.5L781 468.328L758 461.326L695 423.312L713 411.807L754.5 392.3L778 405.805Z" fill="black"/>
</g>
<path d="M767.281 587L867.281 644.166L967.281 587L867.281 529.833L767.281 587Z" stroke="black" stroke-width="4" stroke-linejoin="round"/>
<path d="M655.039 481.854L717.284 517.583L745.855 501.25L683.61 465.521L669.325 473.687L655.039 481.854Z" stroke="black" stroke-width="4" stroke-linejoin="round"/>
<path d="M752.999 578.833L581.57 480.833L752.999 382.833M852.999 440L924.427 480.833" stroke="black" stroke-width="4" stroke-linecap="round" stroke-linejoin="round"/>
<path d="M698.419 528.66C698.898 528.934 699.509 528.767 699.783 528.288C700.057 527.809 699.891 527.198 699.411 526.924L698.419 528.66ZM620.344 482.875L619.847 482.007L618.329 482.875L619.847 483.743L620.344 482.875ZM684.629 446.125L685.126 445.257C684.818 445.081 684.441 445.081 684.133 445.257L684.629 446.125ZM748.419 483.743C748.898 484.017 749.509 483.851 749.783 483.371C750.057 482.892 749.891 482.281 749.411 482.007L748.419 483.743ZM699.411 526.924L620.84 482.007L619.847 483.743L698.419 528.66L699.411 526.924ZM620.84 483.743L685.126 446.993L684.133 445.257L619.847 482.007L620.84 483.743ZM684.133 446.993L748.419 483.743L749.411 482.007L685.126 445.257L684.133 446.993Z" fill="black"/>
<path d="M681.567 538L717.281 517.583M667.281 529.833L702.996 509.416M652.996 521.666L688.71 501.25M638.71 513.5L674.424 493.083M624.424 505.333L660.138 484.916M655.036 481.854L617.281 460.416M631.567 452.25L668.812 473.687M645.853 444.083L683.608 465.521M724.424 448.166L688.71 468.583M738.71 456.333L702.996 476.75M752.996 464.5L717.281 484.916M767.281 472.666L731.567 493.083M667.281 489L631.567 509.416M681.567 497.166L645.853 517.583M695.853 505.333L660.138 525.75M710.138 513.5L674.424 533.916M695.853 472.666L731.567 452.25M710.138 480.833L745.853 460.416M724.424 489L760.138 468.583M624.424 456.333L662.179 477.771M638.71 448.166L676.465 469.604" stroke="black" stroke-width="2" stroke-linecap="round"/>
<path d="M611.551 10.0703V13.0391H583.074V10.0703H595.535V6.16406H599.207V10.0703H611.551ZM581.434 31.7109V28.7031H613.465V31.7109H605.379V41.3594H601.629V31.7109H593.191V41.3594H589.48V31.7109H581.434ZM585.73 20.6953C585.711 16.9258 590.086 14.8359 597.371 14.8359C604.637 14.8359 609.012 16.9258 609.012 20.6953C609.012 24.4453 604.637 26.5547 597.371 26.5547C590.086 26.5547 585.711 24.4453 585.73 20.6953ZM589.559 20.6953C589.559 22.6484 592.352 23.7227 597.371 23.7031C602.371 23.7227 605.164 22.6484 605.184 20.6953C605.164 18.7227 602.371 17.668 597.371 17.6484C592.352 17.668 589.559 18.7227 589.559 20.6953ZM645.082 6.32031V41.3203H641.566V6.32031H645.082ZM614.887 31.2031C622.309 26.7891 625.863 20.9102 626.508 13.7031H616.527V10.6562H630.199C630.18 14.0742 629.711 17.3359 628.637 20.3828H634.184V7.21875H637.699V39.6016H634.184V23.3516H627.348C625.277 27.4141 621.938 30.9688 616.996 33.8594L614.887 31.2031ZM677.559 6.32031V24.3281H673.887V6.32031H677.559ZM648.691 21.2031C654.16 19.3867 657.5 14.7969 657.52 9.95312V7.25781H661.309V9.95312C661.289 14.6406 664.648 18.8984 670.02 20.5781L668.184 23.4688C664.102 22.1406 661.035 19.3867 659.453 15.832C657.871 19.6602 654.746 22.707 650.566 24.1328L648.691 21.2031ZM654.59 28.9375V26.0078H677.598V34.7578H658.301V38H678.77V40.9688H654.707V31.9453H673.926V28.9375H654.59Z" fill="black"/>
<path d="M672.66 308.609C672.641 313.082 675.746 317.32 681.098 319.117L679.223 322.008C675.258 320.641 672.348 317.906 670.824 314.469C669.301 318.238 666.254 321.227 662.152 322.672L660.16 319.781C665.629 317.926 668.93 313.395 668.949 308.57V307.633H661.254V304.625H680.199V307.633H672.66V308.609ZM664.809 328.141V325.133H687.934V337.32H684.223V328.141H664.809ZM684.223 323.414V302.32H687.934V311.305H693.012V314.43H687.934V323.414H684.223ZM721.27 302.32V316.266H726.699V319.352H721.27V337.281H717.559V302.32H721.27ZM694.043 327.945C702.812 323.57 707.578 317.242 708.34 309.078H695.801V305.992H712.129C712.09 316.109 707.637 325.152 696.113 330.836L694.043 327.945ZM756.559 302.32V320.328H752.887V302.32H756.559ZM727.691 317.203C733.16 315.387 736.5 310.797 736.52 305.953V303.258H740.309V305.953C740.289 310.641 743.648 314.898 749.02 316.578L747.184 319.469C743.102 318.141 740.035 315.387 738.453 311.832C736.871 315.66 733.746 318.707 729.566 320.133L727.691 317.203ZM733.59 324.938V322.008H756.598V330.758H737.301V334H757.77V336.969H733.707V327.945H752.926V324.938H733.59Z" fill="black"/>
<path d="M1045.16 327.102C1052.79 327.082 1057.64 329.66 1057.66 333.977C1057.64 337.902 1053.55 340.363 1046.99 340.754V343.938H1061.13V346.906H1029.22V343.938H1043.32V340.754C1036.74 340.363 1032.64 337.902 1032.66 333.977C1032.64 329.66 1037.5 327.082 1045.16 327.102ZM1032.77 352.922V349.953H1057.23V361.32H1053.48V352.922H1032.77ZM1036.48 333.977C1036.46 336.418 1039.77 337.863 1045.16 337.883C1050.51 337.863 1053.85 336.418 1053.83 333.977C1053.85 331.477 1050.51 330.051 1045.16 330.07C1039.77 330.051 1036.46 331.477 1036.48 333.977ZM1074.2 328.547C1079.72 328.547 1083.71 331.945 1083.73 336.867C1083.71 341.223 1080.58 344.387 1076.03 345.051V350.578C1079.33 350.422 1082.69 350.129 1085.84 349.68L1086.11 352.375C1078.2 353.84 1069.7 353.879 1063.45 353.898L1062.98 350.852C1065.74 350.852 1068.94 350.832 1072.32 350.734V345.051C1067.79 344.367 1064.64 341.203 1064.66 336.867C1064.64 331.945 1068.69 328.547 1074.2 328.547ZM1068.34 336.867C1068.3 339.934 1070.8 342.023 1074.2 341.984C1077.59 342.023 1080.09 339.934 1080.09 336.867C1080.09 333.742 1077.59 331.75 1074.2 331.75C1070.8 331.75 1068.3 333.742 1068.34 336.867ZM1088.02 361.398V326.32H1091.73V361.398H1088.02ZM1026.77 378.461V381.43H1017.24V387.875H1025.21V390.766H1017.24V398.109C1021.81 398.051 1024.8 397.875 1028.41 397.211L1028.72 400.219C1024.7 401.039 1021.38 401.098 1015.95 401.117H1013.68V378.461H1026.77ZM1027.04 390.453V387.445H1031.77V375.062H1035.29V407.562H1031.77V390.453H1027.04ZM1038.92 409.32V374.32H1042.51V409.32H1038.92ZM1073.27 374.32V387.992H1078.89V391.117H1073.27V409.398H1069.6V374.32H1073.27ZM1047.37 380.492V377.484H1063.39V390.336H1051.12V397.914C1057.12 397.895 1061.59 397.68 1066.71 396.742L1067.06 399.75C1061.59 400.766 1056.86 401 1050.3 401.039H1047.45V387.328H1059.71V380.492H1047.37ZM1097.35 379.281C1097.35 384.984 1103.42 390.375 1110.16 391.586L1108.44 394.672C1102.84 393.461 1097.7 389.789 1095.43 384.867C1093.13 389.77 1087.99 393.422 1082.39 394.672L1080.75 391.586C1087.39 390.336 1093.42 384.984 1093.44 379.281V376.625H1097.35V379.281ZM1079.57 404.711V401.625H1111.61V404.711H1079.57Z" fill="black"/>
<path d="M1033.29 572.492C1038.56 572.531 1042.45 575.754 1042.46 580.344C1042.45 584.953 1038.56 588.156 1033.29 588.156C1027.95 588.156 1024.09 584.953 1024.07 580.344C1024.09 575.754 1027.95 572.531 1033.29 572.492ZM1027.7 580.344C1027.68 583.234 1030.06 585.148 1033.29 585.148C1036.49 585.148 1038.87 583.234 1038.87 580.344C1038.87 577.492 1036.49 575.578 1033.29 575.617C1030.06 575.578 1027.68 577.492 1027.7 580.344ZM1029.38 593.703V590.734H1052.39V599.562H1033.09V602.922H1053.56V605.891H1029.5V596.789H1048.71V593.703H1029.38ZM1048.68 589.133V571.32H1052.39V589.133H1048.68ZM1084.43 571.359V581.672H1089.51V584.797H1084.43V597.062H1080.72V571.359H1084.43ZM1058.3 591.281V573.859H1061.93V579.445H1071.11V573.859H1074.79V591.281H1058.3ZM1061.93 588.312H1071.11V582.375H1061.93V588.312ZM1062.25 605.578V594.523H1065.96V602.57H1085.92V605.578H1062.25ZM1102.69 581.633C1102.67 587.16 1106.32 593.332 1111.64 595.852L1109.53 598.742C1105.6 596.867 1102.48 592.922 1100.89 588.352C1099.29 593.332 1096.01 597.648 1092.03 599.641L1089.84 596.711C1095.15 594.152 1099 587.551 1099.02 581.633V577.922H1091.13V574.836H1110.31V577.922H1102.69V581.633ZM1114.06 606.32V571.32H1117.77V585.188H1123.39V588.312H1117.77V606.32H1114.06ZM1156.11 599.016V602.141H1124.07V599.016H1132.82V592.844H1127.98V581.711H1148.53V576.828H1127.9V573.781H1152.2V584.719H1131.65V589.797H1153.02V592.844H1147.71V599.016H1156.11ZM1136.42 599.016H1144.07V592.844H1136.42V599.016ZM1186.63 571.32V589.328H1182.96V571.32H1186.63ZM1157.76 586.203C1163.23 584.387 1166.57 579.797 1166.59 574.953V572.258H1170.38V574.953C1170.36 579.641 1173.72 583.898 1179.09 585.578L1177.25 588.469C1173.17 587.141 1170.11 584.387 1168.52 580.832C1166.94 584.66 1163.82 587.707 1159.64 589.133L1157.76 586.203ZM1163.66 593.938V591.008H1186.67V599.758H1167.37V603H1187.84V605.969H1163.78V596.945H1183V593.938H1163.66Z" fill="black"/>
<path d="M1416.61 416V393.375H1430.8V396.344H1420.05V403.188H1430.05V406.125H1420.05V413.031H1430.92V416H1416.61ZM1442.56 392.312L1435.28 419.406H1432.31L1439.59 392.312H1442.56ZM1446.61 393.375L1452.89 411.781H1453.14L1459.42 393.375H1463.14L1454.98 416H1451.01L1442.89 393.375H1446.61Z" fill="black"/>
<path d="M830.612 590V567.375H844.8V570.344H834.05V577.188H844.05V580.125H834.05V587.031H844.925V590H830.612ZM856.562 566.312L849.281 593.406H846.312L853.594 566.312H856.562ZM860.606 567.375L866.887 585.781H867.137L873.419 567.375H877.137L868.981 590H865.012L856.887 567.375H860.606Z" fill="black"/>
<path d="M1309.63 577.32V591.5H1315.25V594.586H1309.63V612.32H1305.96V577.32H1309.63ZM1282.17 585.836V582.789H1290.8V577.789H1294.51V582.789H1302.91V585.836H1282.17ZM1283.96 596.539C1283.96 591.773 1287.64 588.414 1292.68 588.414C1297.7 588.414 1301.37 591.773 1301.39 596.539C1301.37 601.344 1297.7 604.684 1292.68 604.703C1287.64 604.684 1283.96 601.344 1283.96 596.539ZM1287.52 596.539C1287.5 599.586 1289.69 601.617 1292.68 601.578C1295.64 601.617 1297.81 599.586 1297.83 596.539C1297.81 593.551 1295.64 591.48 1292.68 591.461C1289.69 591.48 1287.5 593.551 1287.52 596.539ZM1347.96 604.859V607.945H1315.93V604.859H1330.04V596.773H1319.61V580.133H1344.14V596.773H1333.71V604.859H1347.96ZM1323.2 593.844H1340.5V583.102H1323.2V593.844ZM1378.57 577.32V612.32H1374.86V577.32H1378.57ZM1351.65 603.414V580.719H1355.32V600.211C1360.44 600.191 1365.81 599.742 1371.42 598.609L1371.93 601.734C1365.73 603.004 1360.11 603.434 1354.58 603.414H1351.65ZM1400.85 582.281C1400.85 587.984 1406.92 593.375 1413.66 594.586L1411.94 597.672C1406.34 596.461 1401.2 592.789 1398.93 587.867C1396.63 592.77 1391.49 596.422 1385.89 597.672L1384.25 594.586C1390.89 593.336 1396.92 587.984 1396.94 582.281V579.625H1400.85V582.281ZM1383.07 607.711V604.625H1415.11V607.711H1383.07ZM1446.49 577.32V597.086H1442.97V577.32H1446.49ZM1418.21 595.797V579.391H1431.53V582.359H1421.76V585.953H1430.16V588.844H1421.76V592.828C1426.39 592.789 1429.42 592.613 1433.01 591.93L1433.36 594.898C1429.34 595.699 1426 595.816 1420.47 595.797H1418.21ZM1423.13 611.891V598.57H1426.8V602.086H1442.86V598.57H1446.49V611.891H1423.13ZM1426.8 608.883H1442.86V605.055H1426.8V608.883ZM1431.76 588.57V585.562H1436.18V577.945H1439.69V596.734H1436.18V588.57H1431.76Z" fill="black"/>
<path d="M645.787 774.781V777.312H620.162V774.781H631.412V768.812H622.412V766.469H626.6V757.656H622.35V755.25H643.444V757.656H639.162V766.469H643.35V768.812H634.35V774.781H645.787ZM629.537 766.469H636.256V757.656H629.537V766.469ZM670.987 752.688V771.594H668.175V752.688H670.987ZM647.144 768.688C651.034 767.062 653.55 764.953 655.003 762.438L647.644 763.219L647.206 760.781L655.972 760.281C656.284 759.344 656.472 758.375 656.566 757.344H648.487V754.938H659.456C659.456 757 659.206 758.938 658.644 760.719H662.55V753.156H665.362V769.094H662.55V763.125H657.644C655.972 766.297 653.081 768.906 648.581 770.844L647.144 768.688ZM650.487 778.219C655.784 777.438 660.003 774.312 659.987 770.781V769.969H662.925V770.781C662.925 774.312 667.144 777.438 672.425 778.219L671.269 780.531C666.925 779.812 663.222 777.672 661.472 774.688C659.706 777.672 656.003 779.812 651.675 780.531L650.487 778.219ZM697 771.031V780.312H678.312V771.031H681.844V767.438C679.125 767.547 676.547 767.562 674.281 767.562L673.906 765.094C679.188 765.109 686.156 765.109 692.25 764.344L692.438 766.438C689.953 766.859 687.375 767.125 684.844 767.281V771.031H697ZM675.062 761.25C679.297 760.281 681.828 757.688 681.844 754.75V753.406H684.875V754.75C684.875 757.547 687.453 759.922 691.562 760.844L690.281 763.062C687.031 762.328 684.625 760.656 683.406 758.391C682.188 760.828 679.766 762.688 676.438 763.531L675.062 761.25ZM681.219 777.906H694.062V773.406H681.219V777.906ZM694.031 769.594V752.688H697V769.594H694.031ZM724.075 752.656V780.719H721.137V765.438H715.575V763H721.137V752.656H724.075ZM702.012 774.094V755.156H715.106V757.562H705.012V763H713.919V765.375H705.012V771.625C709.7 771.625 712.95 771.484 716.669 770.844L716.981 773.25C712.903 773.906 709.387 774.078 704.2 774.094H702.012ZM728.056 773.594V770.812L738.056 755.375H742.306V770.688H745.4V773.594H742.306V778H739.056V773.594H728.056ZM731.681 770.688H739.056V759.469H738.806L731.681 770.5V770.688Z" fill="black"/>
<path d="M190.959 543.781V546.312H165.334V543.781H176.584V537.812H167.584V535.469H171.772V526.656H167.522V524.25H188.616V526.656H184.334V535.469H188.522V537.812H179.522V543.781H190.959ZM174.709 535.469H181.428V526.656H174.709V535.469ZM216.159 521.688V540.594H213.347V521.688H216.159ZM192.316 537.688C196.206 536.062 198.722 533.953 200.175 531.438L192.816 532.219L192.378 529.781L201.144 529.281C201.456 528.344 201.644 527.375 201.737 526.344H193.659V523.938H204.628C204.628 526 204.378 527.938 203.816 529.719H207.722V522.156H210.534V538.094H207.722V532.125H202.816C201.144 535.297 198.253 537.906 193.753 539.844L192.316 537.688ZM195.659 547.219C200.956 546.438 205.175 543.312 205.159 539.781V538.969H208.097V539.781C208.097 543.312 212.316 546.438 217.597 547.219L216.441 549.531C212.097 548.812 208.394 546.672 206.644 543.688C204.878 546.672 201.175 548.812 196.847 549.531L195.659 547.219ZM242.172 540.031V549.312H223.484V540.031H227.016V536.438C224.297 536.547 221.719 536.562 219.453 536.562L219.078 534.094C224.359 534.109 231.328 534.109 237.422 533.344L237.609 535.438C235.125 535.859 232.547 536.125 230.016 536.281V540.031H242.172ZM220.234 530.25C224.469 529.281 227 526.688 227.016 523.75V522.406H230.047V523.75C230.047 526.547 232.625 528.922 236.734 529.844L235.453 532.062C232.203 531.328 229.797 529.656 228.578 527.391C227.359 529.828 224.938 531.688 221.609 532.531L220.234 530.25ZM226.391 546.906H239.234V542.406H226.391V546.906ZM239.203 538.594V521.688H242.172V538.594H239.203ZM269.247 521.656V549.719H266.309V534.438H260.747V532H266.309V521.656H269.247ZM247.184 543.094V524.156H260.278V526.562H250.184V532H259.091V534.375H250.184V540.625C254.872 540.625 258.122 540.484 261.841 539.844L262.153 542.25C258.075 542.906 254.559 543.078 249.372 543.094H247.184ZM281.759 547.312C277.072 547.312 273.744 544.797 273.603 541.094H277.103C277.228 543.078 279.197 544.344 281.728 544.344C284.463 544.344 286.447 542.859 286.447 540.656C286.447 538.422 284.588 536.828 281.353 536.812H279.416V534H281.353C283.931 534.016 285.728 532.578 285.728 530.406C285.728 528.344 284.181 526.938 281.791 526.938C279.525 526.938 277.494 528.203 277.416 530.25H274.103C274.197 526.562 277.603 524.062 281.822 524.062C286.275 524.062 289.072 526.875 289.041 530.219C289.072 532.797 287.478 534.641 285.041 535.25V535.406C288.134 535.844 289.931 537.922 289.916 540.781C289.931 544.547 286.447 547.312 281.759 547.312Z" fill="black"/>
<path d="M739.219 408.656V420.375H743.438V422.875H739.219V436.656H736.25V408.656H739.219ZM716.938 429.031C719.141 429.031 721.703 429.031 724.375 428.953V426.109C721.219 425.641 719.156 423.734 719.188 421.031C719.156 417.875 721.891 415.797 725.875 415.781C729.844 415.797 732.609 417.875 732.625 421.031C732.609 423.734 730.516 425.656 727.344 426.109V428.844C729.828 428.719 732.328 428.516 734.656 428.188L734.844 430.375C728.781 431.453 722.234 431.516 717.406 431.5L716.938 429.031ZM717.469 414.344V411.969H724.375V408.719H727.344V411.969H734.25V414.344H717.469ZM721.969 421.031C721.969 422.812 723.531 423.922 725.875 423.906C728.219 423.922 729.766 422.812 729.781 421.031C729.766 419.234 728.219 418.094 725.875 418.094C723.531 418.094 721.969 419.234 721.969 421.031ZM753.919 413.812C753.903 417.375 756.388 420.625 760.638 421.969L759.231 424.281C756.044 423.266 753.716 421.156 752.481 418.5C751.263 421.562 748.809 423.984 745.45 425.156L743.919 422.781C748.294 421.344 750.934 417.734 750.95 413.844V413.062H744.794V410.656H759.95V413.062H753.919V413.812ZM747.7 431.344C747.7 428.062 751.278 426.141 757.106 426.156C762.872 426.141 766.388 428.062 766.388 431.344C766.388 434.672 762.872 436.609 757.106 436.594C751.278 436.609 747.7 434.672 747.7 431.344ZM750.669 431.344C750.653 433.219 753.059 434.266 757.106 434.25C761.122 434.266 763.497 433.219 763.481 431.344C763.497 429.516 761.122 428.484 757.106 428.5C753.059 428.484 750.653 429.516 750.669 431.344ZM763.169 425.469V408.656H766.138V415.594H770.2V418.031H766.138V425.469H763.169ZM794.181 408.656V423.062H791.244V408.656H794.181ZM771.088 420.562C775.463 419.109 778.134 415.438 778.15 411.562V409.406H781.181V411.562C781.166 415.312 783.853 418.719 788.15 420.062L786.681 422.375C783.416 421.312 780.963 419.109 779.697 416.266C778.431 419.328 775.931 421.766 772.588 422.906L771.088 420.562ZM775.806 426.75V424.406H794.213V431.406H778.775V434H795.15V436.375H775.9V429.156H791.275V426.75H775.806ZM799.537 425.375C799.569 419.484 801.241 414.594 804.162 410.406H807.225C805.069 413.5 803.006 419.797 803.006 425.375C803.006 430.969 805.069 437.266 807.225 440.375H804.162C801.241 436.172 799.569 431.281 799.537 425.375ZM830.488 408.688V414.906H834.581V417.375H830.488V424.469H827.519V408.688H830.488ZM809.769 422.562V410.062H812.738V420.094C816.534 420.062 820.488 419.734 824.8 418.875L825.175 421.312C820.456 422.266 816.175 422.547 812.05 422.562H809.769ZM812.55 436.281V425.938H830.488V436.281H812.55ZM815.456 433.906H827.613V428.25H815.456V433.906ZM843.031 425.375C843 431.281 841.328 436.172 838.406 440.375H835.344C837.5 437.266 839.562 430.969 839.562 425.375C839.562 419.797 837.5 413.5 835.344 410.406H838.406C841.328 414.594 843 419.484 843.031 425.375Z" fill="black"/>
<path d="M1572.22 305.656V317.375H1576.44V319.875H1572.22V333.656H1569.25V305.656H1572.22ZM1549.94 326.031C1552.14 326.031 1554.7 326.031 1557.38 325.953V323.109C1554.22 322.641 1552.16 320.734 1552.19 318.031C1552.16 314.875 1554.89 312.797 1558.88 312.781C1562.84 312.797 1565.61 314.875 1565.62 318.031C1565.61 320.734 1563.52 322.656 1560.34 323.109V325.844C1562.83 325.719 1565.33 325.516 1567.66 325.188L1567.84 327.375C1561.78 328.453 1555.23 328.516 1550.41 328.5L1549.94 326.031ZM1550.47 311.344V308.969H1557.38V305.719H1560.34V308.969H1567.25V311.344H1550.47ZM1554.97 318.031C1554.97 319.812 1556.53 320.922 1558.88 320.906C1561.22 320.922 1562.77 319.812 1562.78 318.031C1562.77 316.234 1561.22 315.094 1558.88 315.094C1556.53 315.094 1554.97 316.234 1554.97 318.031ZM1586.92 310.812C1586.9 314.375 1589.39 317.625 1593.64 318.969L1592.23 321.281C1589.04 320.266 1586.72 318.156 1585.48 315.5C1584.26 318.562 1581.81 320.984 1578.45 322.156L1576.92 319.781C1581.29 318.344 1583.93 314.734 1583.95 310.844V310.062H1577.79V307.656H1592.95V310.062H1586.92V310.812ZM1580.7 328.344C1580.7 325.062 1584.28 323.141 1590.11 323.156C1595.87 323.141 1599.39 325.062 1599.39 328.344C1599.39 331.672 1595.87 333.609 1590.11 333.594C1584.28 333.609 1580.7 331.672 1580.7 328.344ZM1583.67 328.344C1583.65 330.219 1586.06 331.266 1590.11 331.25C1594.12 331.266 1596.5 330.219 1596.48 328.344C1596.5 326.516 1594.12 325.484 1590.11 325.5C1586.06 325.484 1583.65 326.516 1583.67 328.344ZM1596.17 322.469V305.656H1599.14V312.594H1603.2V315.031H1599.14V322.469H1596.17ZM1627.18 305.656V320.062H1624.24V305.656H1627.18ZM1604.09 317.562C1608.46 316.109 1611.13 312.438 1611.15 308.562V306.406H1614.18V308.562C1614.17 312.312 1616.85 315.719 1621.15 317.062L1619.68 319.375C1616.42 318.312 1613.96 316.109 1612.7 313.266C1611.43 316.328 1608.93 318.766 1605.59 319.906L1604.09 317.562ZM1608.81 323.75V321.406H1627.21V328.406H1611.78V331H1628.15V333.375H1608.9V326.156H1624.28V323.75H1608.81ZM1632.54 322.375C1632.57 316.484 1634.24 311.594 1637.16 307.406H1640.22C1638.07 310.5 1636.01 316.797 1636.01 322.375C1636.01 327.969 1638.07 334.266 1640.22 337.375H1637.16C1634.24 333.172 1632.57 328.281 1632.54 322.375ZM1663.49 305.688V311.906H1667.58V314.375H1663.49V321.469H1660.52V305.688H1663.49ZM1642.77 319.562V307.062H1645.74V317.094C1649.53 317.062 1653.49 316.734 1657.8 315.875L1658.18 318.312C1653.46 319.266 1649.18 319.547 1645.05 319.562H1642.77ZM1645.55 333.281V322.938H1663.49V333.281H1645.55ZM1648.46 330.906H1660.61V325.25H1648.46V330.906ZM1676.03 322.375C1676 328.281 1674.33 333.172 1671.41 337.375H1668.34C1670.5 334.266 1672.56 327.969 1672.56 322.375C1672.56 316.797 1670.5 310.5 1668.34 307.406H1671.41C1674.33 311.594 1676 316.484 1676.03 322.375Z" fill="black"/>
<path d="M924.219 516.656V528.375H928.438V530.875H924.219V544.656H921.25V516.656H924.219ZM901.938 537.031C904.141 537.031 906.703 537.031 909.375 536.953V534.109C906.219 533.641 904.156 531.734 904.188 529.031C904.156 525.875 906.891 523.797 910.875 523.781C914.844 523.797 917.609 525.875 917.625 529.031C917.609 531.734 915.516 533.656 912.344 534.109V536.844C914.828 536.719 917.328 536.516 919.656 536.188L919.844 538.375C913.781 539.453 907.234 539.516 902.406 539.5L901.938 537.031ZM902.469 522.344V519.969H909.375V516.719H912.344V519.969H919.25V522.344H902.469ZM906.969 529.031C906.969 530.812 908.531 531.922 910.875 531.906C913.219 531.922 914.766 530.812 914.781 529.031C914.766 527.234 913.219 526.094 910.875 526.094C908.531 526.094 906.969 527.234 906.969 529.031ZM938.919 521.812C938.903 525.375 941.388 528.625 945.638 529.969L944.231 532.281C941.044 531.266 938.716 529.156 937.481 526.5C936.263 529.562 933.809 531.984 930.45 533.156L928.919 530.781C933.294 529.344 935.934 525.734 935.95 521.844V521.062H929.794V518.656H944.95V521.062H938.919V521.812ZM932.7 539.344C932.7 536.062 936.278 534.141 942.106 534.156C947.872 534.141 951.388 536.062 951.388 539.344C951.388 542.672 947.872 544.609 942.106 544.594C936.278 544.609 932.7 542.672 932.7 539.344ZM935.669 539.344C935.653 541.219 938.059 542.266 942.106 542.25C946.122 542.266 948.497 541.219 948.481 539.344C948.497 537.516 946.122 536.484 942.106 536.5C938.059 536.484 935.653 537.516 935.669 539.344ZM948.169 533.469V516.656H951.138V523.594H955.2V526.031H951.138V533.469H948.169ZM979.181 516.656V531.062H976.244V516.656H979.181ZM956.088 528.562C960.463 527.109 963.134 523.438 963.15 519.562V517.406H966.181V519.562C966.166 523.312 968.853 526.719 973.15 528.062L971.681 530.375C968.416 529.312 965.963 527.109 964.697 524.266C963.431 527.328 960.931 529.766 957.588 530.906L956.088 528.562ZM960.806 534.75V532.406H979.213V539.406H963.775V542H980.15V544.375H960.9V537.156H976.275V534.75H960.806ZM984.537 533.375C984.569 527.484 986.241 522.594 989.162 518.406H992.225C990.069 521.5 988.006 527.797 988.006 533.375C988.006 538.969 990.069 545.266 992.225 548.375H989.162C986.241 544.172 984.569 539.281 984.537 533.375ZM1001.08 518.75C1003.64 518.766 1005.74 520.219 1006.97 522.75H1013.89V516.656H1016.83V544.719H1013.89V533.969H1007.18C1005.97 536.781 1003.78 538.422 1001.08 538.406C996.909 538.422 993.956 534.609 993.988 528.562C993.956 522.578 996.909 518.766 1001.08 518.75ZM996.8 528.562C996.816 533.016 998.55 535.75 1001.08 535.75C1003.61 535.75 1005.35 533.016 1005.36 528.562C1005.35 524.172 1003.61 521.422 1001.08 521.406C998.55 521.422 996.816 524.172 996.8 528.562ZM1007.82 525.188C1008.03 526.219 1008.18 527.344 1008.18 528.562C1008.18 529.625 1008.08 530.609 1007.89 531.531H1013.89V525.188H1007.82ZM1028.03 533.375C1028 539.281 1026.33 544.172 1023.41 548.375H1020.34C1022.5 545.266 1024.56 538.969 1024.56 533.375C1024.56 527.797 1022.5 521.5 1020.34 518.406H1023.41C1026.33 522.594 1028 527.484 1028.03 533.375Z" fill="black"/>
<path d="M1663.22 358.656V370.375H1667.44V372.875H1663.22V386.656H1660.25V358.656H1663.22ZM1640.94 379.031C1643.14 379.031 1645.7 379.031 1648.38 378.953V376.109C1645.22 375.641 1643.16 373.734 1643.19 371.031C1643.16 367.875 1645.89 365.797 1649.88 365.781C1653.84 365.797 1656.61 367.875 1656.62 371.031C1656.61 373.734 1654.52 375.656 1651.34 376.109V378.844C1653.83 378.719 1656.33 378.516 1658.66 378.188L1658.84 380.375C1652.78 381.453 1646.23 381.516 1641.41 381.5L1640.94 379.031ZM1641.47 364.344V361.969H1648.38V358.719H1651.34V361.969H1658.25V364.344H1641.47ZM1645.97 371.031C1645.97 372.812 1647.53 373.922 1649.88 373.906C1652.22 373.922 1653.77 372.812 1653.78 371.031C1653.77 369.234 1652.22 368.094 1649.88 368.094C1647.53 368.094 1645.97 369.234 1645.97 371.031ZM1677.92 363.812C1677.9 367.375 1680.39 370.625 1684.64 371.969L1683.23 374.281C1680.04 373.266 1677.72 371.156 1676.48 368.5C1675.26 371.562 1672.81 373.984 1669.45 375.156L1667.92 372.781C1672.29 371.344 1674.93 367.734 1674.95 363.844V363.062H1668.79V360.656H1683.95V363.062H1677.92V363.812ZM1671.7 381.344C1671.7 378.062 1675.28 376.141 1681.11 376.156C1686.87 376.141 1690.39 378.062 1690.39 381.344C1690.39 384.672 1686.87 386.609 1681.11 386.594C1675.28 386.609 1671.7 384.672 1671.7 381.344ZM1674.67 381.344C1674.65 383.219 1677.06 384.266 1681.11 384.25C1685.12 384.266 1687.5 383.219 1687.48 381.344C1687.5 379.516 1685.12 378.484 1681.11 378.5C1677.06 378.484 1674.65 379.516 1674.67 381.344ZM1687.17 375.469V358.656H1690.14V365.594H1694.2V368.031H1690.14V375.469H1687.17ZM1718.18 358.656V373.062H1715.24V358.656H1718.18ZM1695.09 370.562C1699.46 369.109 1702.13 365.438 1702.15 361.562V359.406H1705.18V361.562C1705.17 365.312 1707.85 368.719 1712.15 370.062L1710.68 372.375C1707.42 371.312 1704.96 369.109 1703.7 366.266C1702.43 369.328 1699.93 371.766 1696.59 372.906L1695.09 370.562ZM1699.81 376.75V374.406H1718.21V381.406H1702.78V384H1719.15V386.375H1699.9V379.156H1715.28V376.75H1699.81ZM1723.54 375.375C1723.57 369.484 1725.24 364.594 1728.16 360.406H1731.22C1729.07 363.5 1727.01 369.797 1727.01 375.375C1727.01 380.969 1729.07 387.266 1731.22 390.375H1728.16C1725.24 386.172 1723.57 381.281 1723.54 375.375ZM1740.08 360.75C1742.64 360.766 1744.74 362.219 1745.97 364.75H1752.89V358.656H1755.83V386.719H1752.89V375.969H1746.18C1744.97 378.781 1742.78 380.422 1740.08 380.406C1735.91 380.422 1732.96 376.609 1732.99 370.562C1732.96 364.578 1735.91 360.766 1740.08 360.75ZM1735.8 370.562C1735.82 375.016 1737.55 377.75 1740.08 377.75C1742.61 377.75 1744.35 375.016 1744.36 370.562C1744.35 366.172 1742.61 363.422 1740.08 363.406C1737.55 363.422 1735.82 366.172 1735.8 370.562ZM1746.82 367.188C1747.03 368.219 1747.18 369.344 1747.18 370.562C1747.18 371.625 1747.08 372.609 1746.89 373.531H1752.89V367.188H1746.82ZM1767.03 375.375C1767 381.281 1765.33 386.172 1762.41 390.375H1759.34C1761.5 387.266 1763.56 380.969 1763.56 375.375C1763.56 369.797 1761.5 363.5 1759.34 360.406H1762.41C1765.33 364.594 1767 369.484 1767.03 375.375Z" fill="black"/>
<path d="M431.355 288.016V291.023H417.449V297.82H413.777V291.023H399.324V288.016H431.355ZM403.309 304.578V294.5H407.02V301.57H427.801V304.578H403.309ZM403.426 284.383V271.961H427.215V284.383H403.426ZM407.059 281.453H423.543V274.891H407.059V281.453ZM453.832 273.875V276.844H432.973V273.875H441.566V270.164H445.277V273.875H453.832ZM434.887 284.773C434.867 280.945 438.344 278.445 443.402 278.406C448.441 278.445 451.879 280.945 451.879 284.773C451.879 288.621 448.441 291.141 443.402 291.141C438.344 291.141 434.867 288.621 434.887 284.773ZM437.309 297V293.992H460.434V305.32H456.723V297H437.309ZM438.48 284.773C438.441 286.941 440.434 288.25 443.402 288.25C446.371 288.25 448.363 286.941 448.402 284.773C448.363 282.625 446.371 281.277 443.402 281.258C440.434 281.277 438.441 282.625 438.48 284.773ZM456.723 292.195V270.32H460.434V279.812H465.512V282.898H460.434V292.195H456.723ZM478.691 280.633C478.672 286.16 482.324 292.332 487.637 294.852L485.527 297.742C481.602 295.867 478.477 291.922 476.895 287.352C475.293 292.332 472.012 296.648 468.027 298.641L465.84 295.711C471.152 293.152 475 286.551 475.02 280.633V276.922H467.129V273.836H486.309V276.922H478.691V280.633ZM490.059 305.32V270.32H493.77V284.188H499.395V287.312H493.77V305.32H490.059ZM532.105 298.016V301.141H500.074V298.016H508.824V291.844H503.98V280.711H524.527V275.828H503.902V272.781H528.199V283.719H507.652V288.797H529.02V291.844H523.707V298.016H532.105ZM512.418 298.016H520.074V291.844H512.418V298.016ZM562.629 270.32V288.328H558.957V270.32H562.629ZM533.762 285.203C539.23 283.387 542.57 278.797 542.59 273.953V271.258H546.379V273.953C546.359 278.641 549.719 282.898 555.09 284.578L553.254 287.469C549.172 286.141 546.105 283.387 544.523 279.832C542.941 283.66 539.816 286.707 535.637 288.133L533.762 285.203ZM539.66 292.938V290.008H562.668V298.758H543.371V302H563.84V304.969H539.777V295.945H558.996V292.938H539.66Z" fill="black"/>
<path d="M720.551 59.6328C720.531 65.1602 724.184 71.332 729.496 73.8516L727.387 76.7422C723.461 74.8672 720.336 70.9219 718.754 66.3516C717.152 71.332 713.871 75.6484 709.887 77.6406L707.699 74.7109C713.012 72.1523 716.859 65.5508 716.879 59.6328V55.9219H708.988V52.8359H728.168V55.9219H720.551V59.6328ZM731.918 84.3203V49.3203H735.629V63.1875H741.254V66.3125H735.629V84.3203H731.918ZM771.035 49.3594V75.8828H767.324V72.5234H760.293V69.9062H767.324V49.3594H771.035ZM741.777 65.3359C748.242 65.2773 756.973 65.2188 764.434 64.2812L764.668 66.9375C761.68 67.4453 758.535 67.7578 755.449 67.9727V74.7891H751.738V68.168C748.34 68.3047 745.078 68.3047 742.246 68.3047L741.777 65.3359ZM744.512 56.8594C744.492 53.1484 748.027 50.6875 753.223 50.6875C758.34 50.6875 761.895 53.1484 761.895 56.8594C761.895 60.5898 758.34 62.9531 753.223 62.9531C748.047 62.9531 744.492 60.5898 744.512 56.8594ZM746.621 83.5781V73.3047H750.293V80.5703H771.895V83.5781H746.621ZM748.027 56.8594C748.008 58.9297 750.117 60.2188 753.223 60.2188C756.211 60.2188 758.359 58.9297 758.379 56.8594C758.359 54.7695 756.211 53.4219 753.223 53.4609C750.117 53.4219 748.008 54.7695 748.027 56.8594ZM807.418 66.625V69.6719H775.504V66.625H789.605V63.2266H779.684V50.2578H783.355V53.8906H799.566V50.2578H803.277V63.2266H793.277V66.625H807.418ZM779.332 78.1094C779.312 74.1641 783.805 71.9375 791.441 71.9375C798.98 71.9375 803.512 74.1641 803.551 78.1094C803.512 82.0742 798.98 84.2617 791.441 84.2422C783.805 84.2617 779.312 82.0742 779.332 78.1094ZM783.043 78.1094C783.043 80.2383 786.09 81.4297 791.441 81.3906C796.715 81.4297 799.762 80.2383 799.762 78.1094C799.762 75.9609 796.715 74.8086 791.441 74.7891C786.09 74.8086 783.043 75.9609 783.043 78.1094ZM783.355 60.2969H799.566V56.7422H783.355V60.2969ZM821.223 58.2266C821.184 64.418 824.797 70.7656 830.012 73.3047L827.707 76.2734C823.898 74.2812 820.949 70.375 819.406 65.707C817.844 70.668 814.777 74.8672 810.793 76.9375L808.488 73.9297C813.859 71.3516 817.492 64.6328 817.512 58.2266V52.25H821.223V58.2266ZM832.629 84.3203V49.3203H836.34V63.2656H841.965V66.4297H836.34V84.3203H832.629ZM871.629 49.3203V67.3281H867.957V49.3203H871.629ZM842.762 64.2031C848.23 62.3867 851.57 57.7969 851.59 52.9531V50.2578H855.379V52.9531C855.359 57.6406 858.719 61.8984 864.09 63.5781L862.254 66.4688C858.172 65.1406 855.105 62.3867 853.523 58.832C851.941 62.6602 848.816 65.707 844.637 67.1328L842.762 64.2031ZM848.66 71.9375V69.0078H871.668V77.7578H852.371V81H872.84V83.9688H848.777V74.9453H867.996V71.9375H848.66Z" fill="black"/>
<g filter="url(#filter1_f_4230_10380)">
<ellipse cx="631" cy="177.025" rx="28" ry="7.97468" fill="black" fill-opacity="0.25"/>
</g>
<path d="M675 103.084C675 127.43 666.902 132.786 631 177.025C595.27 133.163 587 127.43 587 103.084C587 78.737 606.699 59 631 59C655.301 59 675 78.737 675 103.084Z" fill="url(#paint0_linear_4230_10380)"/>
<rect x="600.656" y="72.9277" width="60.6897" height="60.5258" rx="30.2629" fill="white"/>
<path d="M635.787 89.8232V116.69H630.184V95.1299H630.035L623.875 98.9893V94.0537L630.518 89.8232H635.787Z" fill="#191F28"/>
<g filter="url(#filter2_f_4230_10380)">
<ellipse cx="792" cy="219.025" rx="28" ry="7.97468" fill="black" fill-opacity="0.25"/>
</g>
<path d="M836 145.084C836 169.43 827.902 174.786 792 219.025C756.27 175.163 748 169.43 748 145.084C748 120.737 767.699 101 792 101C816.301 101 836 120.737 836 145.084Z" fill="url(#paint1_linear_4230_10380)"/>
<rect x="761.656" y="114.928" width="60.6897" height="60.5258" rx="30.2629" fill="white"/>
<path d="M782.519 158.69L782.481 154.646L792.13 145.776C794.635 143.383 795.989 141.898 795.989 139.765C795.989 137.371 794.189 135.887 791.722 135.905C789.198 135.887 787.547 137.482 787.565 140.062H782.259C782.24 134.811 786.137 131.452 791.796 131.452C797.548 131.452 801.37 134.736 801.37 139.394C801.37 142.455 799.886 144.96 794.356 149.97L790.274 153.94V154.089H801.741V158.69H782.519Z" fill="#191F28"/>
<g filter="url(#filter3_f_4230_10380)">
<ellipse cx="708" cy="267.025" rx="28" ry="7.97468" fill="black" fill-opacity="0.25"/>
</g>
<path d="M752 193.084C752 217.43 743.902 222.786 708 267.025C672.27 223.163 664 217.43 664 193.084C664 168.737 683.699 149 708 149C732.301 149 752 168.737 752 193.084Z" fill="url(#paint2_linear_4230_10380)"/>
<rect x="677.656" y="162.928" width="60.6897" height="60.5258" rx="30.2629" fill="white"/>
<path d="M707.926 207.062C702.025 207.062 697.795 203.814 697.684 199.12H703.324C703.417 201.124 705.365 202.441 707.963 202.46C710.635 202.441 712.546 200.957 712.527 198.786C712.546 196.597 710.598 195.057 707.443 195.038H704.957V190.919H707.443C710.097 190.919 711.952 189.472 711.934 187.356C711.952 185.297 710.375 183.887 708 183.905C705.625 183.887 703.677 185.223 703.584 187.282H698.24C698.333 182.662 702.489 179.452 708 179.452C713.604 179.452 717.333 182.773 717.314 187.022C717.333 190.028 715.236 192.162 712.23 192.7V192.923C716.183 193.405 718.354 195.799 718.316 199.157C718.354 203.759 713.993 207.062 707.926 207.062Z" fill="#191F28"/>
<g filter="url(#filter4_f_4230_10380)">
<ellipse cx="483" cy="444.025" rx="28" ry="7.97468" fill="black" fill-opacity="0.25"/>
</g>
<path d="M527 370.084C527 394.43 518.902 399.786 483 444.025C447.27 400.163 439 394.43 439 370.084C439 345.737 458.699 326 483 326C507.301 326 527 345.737 527 370.084Z" fill="url(#paint3_linear_4230_10380)"/>
<rect x="452.656" y="339.928" width="60.6897" height="60.5258" rx="30.2629" fill="white"/>
<path d="M472.183 378.94V374.524L483.538 356.823H490.552V374.45H493.966V378.94H490.552V383.69H485.245V378.94H472.183ZM477.823 374.45H485.319V362.946H485.06L477.823 374.228V374.45Z" fill="#191F28"/>
<g filter="url(#filter5_f_4230_10380)">
<ellipse cx="1366" cy="745.025" rx="28" ry="7.97468" fill="black" fill-opacity="0.25"/>
</g>
<path d="M1410 671.084C1410 695.43 1401.9 700.786 1366 745.025C1330.27 701.163 1322 695.43 1322 671.084C1322 646.737 1341.7 627 1366 627C1390.3 627 1410 646.737 1410 671.084Z" fill="url(#paint4_linear_4230_10380)"/>
<rect x="1335.66" y="640.928" width="60.6897" height="60.5258" rx="30.2629" fill="white"/>
<path d="M1366.3 685.062C1360.75 685.043 1355.44 681.722 1355.46 671.888C1355.48 662.814 1359.8 657.452 1366.52 657.452C1371.92 657.452 1375.63 660.866 1376.17 665.282H1370.68C1370.23 663.408 1368.69 662.239 1366.52 662.239C1362.86 662.239 1360.95 665.523 1360.92 670.812H1361.18C1362.42 668.418 1365.07 667.026 1368.04 667.026C1372.88 667.026 1376.48 670.645 1376.46 675.71C1376.48 681.165 1372.36 685.08 1366.3 685.062ZM1361.47 675.858C1361.51 678.493 1363.51 680.664 1366.26 680.646C1369.02 680.664 1371.05 678.567 1371.05 675.858C1371.05 673.168 1369.06 671.09 1366.33 671.071C1363.59 671.09 1361.51 673.242 1361.47 675.858Z" fill="#191F28"/>
<g filter="url(#filter6_f_4230_10380)">
<ellipse cx="1107" cy="741.025" rx="28" ry="7.97468" fill="black" fill-opacity="0.25"/>
</g>
<path d="M1151 667.084C1151 691.43 1142.9 696.786 1107 741.025C1071.27 697.163 1063 691.43 1063 667.084C1063 642.737 1082.7 623 1107 623C1131.3 623 1151 642.737 1151 667.084Z" fill="url(#paint5_linear_4230_10380)"/>
<rect x="1076.66" y="636.928" width="60.6897" height="60.5258" rx="30.2629" fill="white"/>
<path d="M1107.07 681.062C1101.47 681.062 1097.37 677.759 1097.28 673.12H1102.7C1102.83 675.217 1104.74 676.664 1107.07 676.646C1109.86 676.664 1111.84 674.697 1111.82 671.896C1111.84 669.038 1109.82 667.053 1107 667.034C1104.98 667.034 1103.57 667.795 1102.77 669.298H1097.72L1099.17 653.823H1115.72V658.388H1103.77L1103.03 665.179H1103.25C1104.24 663.861 1106.28 662.896 1108.63 662.915C1113.57 662.896 1117.24 666.589 1117.24 671.747C1117.24 677.184 1113.12 681.062 1107.07 681.062Z" fill="#191F28"/>
<defs>
<filter id="filter0_f_4230_10380" x="0" y="35" width="1906" height="988" filterUnits="userSpaceOnUse" color-interpolation-filters="sRGB">
<feFlood flood-opacity="0" result="BackgroundImageFix"/>
<feBlend mode="normal" in="SourceGraphic" in2="BackgroundImageFix" result="shape"/>
<feGaussianBlur stdDeviation="24" result="effect1_foregroundBlur_4230_10380"/>
</filter>
<filter id="filter1_f_4230_10380" x="599" y="165.051" width="64" height="23.9492" filterUnits="userSpaceOnUse" color-interpolation-filters="sRGB">
<feFlood flood-opacity="0" result="BackgroundImageFix"/>
<feBlend mode="normal" in="SourceGraphic" in2="BackgroundImageFix" result="shape"/>
<feGaussianBlur stdDeviation="2" result="effect1_foregroundBlur_4230_10380"/>
</filter>
<filter id="filter2_f_4230_10380" x="760" y="207.051" width="64" height="23.9492" filterUnits="userSpaceOnUse" color-interpolation-filters="sRGB">
<feFlood flood-opacity="0" result="BackgroundImageFix"/>
<feBlend mode="normal" in="SourceGraphic" in2="BackgroundImageFix" result="shape"/>
<feGaussianBlur stdDeviation="2" result="effect1_foregroundBlur_4230_10380"/>
</filter>
<filter id="filter3_f_4230_10380" x="676" y="255.051" width="64" height="23.9492" filterUnits="userSpaceOnUse" color-interpolation-filters="sRGB">
<feFlood flood-opacity="0" result="BackgroundImageFix"/>
<feBlend mode="normal" in="SourceGraphic" in2="BackgroundImageFix" result="shape"/>
<feGaussianBlur stdDeviation="2" result="effect1_foregroundBlur_4230_10380"/>
</filter>
<filter id="filter4_f_4230_10380" x="451" y="432.051" width="64" height="23.9492" filterUnits="userSpaceOnUse" color-interpolation-filters="sRGB">
<feFlood flood-opacity="0" result="BackgroundImageFix"/>
<feBlend mode="normal" in="SourceGraphic" in2="BackgroundImageFix" result="shape"/>
<feGaussianBlur stdDeviation="2" result="effect1_foregroundBlur_4230_10380"/>
</filter>
<filter id="filter5_f_4230_10380" x="1334" y="733.051" width="64" height="23.9492" filterUnits="userSpaceOnUse" color-interpolation-filters="sRGB">
<feFlood flood-opacity="0" result="BackgroundImageFix"/>
<feBlend mode="normal" in="SourceGraphic" in2="BackgroundImageFix" result="shape"/>
<feGaussianBlur stdDeviation="2" result="effect1_foregroundBlur_4230_10380"/>
</filter>
<filter id="filter6_f_4230_10380" x="1075" y="729.051" width="64" height="23.9492" filterUnits="userSpaceOnUse" color-interpolation-filters="sRGB">
<feFlood flood-opacity="0" result="BackgroundImageFix"/>
<feBlend mode="normal" in="SourceGraphic" in2="BackgroundImageFix" result="shape"/>
<feGaussianBlur stdDeviation="2" result="effect1_foregroundBlur_4230_10380"/>
</filter>
<linearGradient id="paint0_linear_4230_10380" x1="656.362" y1="71.0864" x2="606.637" y2="156.956" gradientUnits="userSpaceOnUse">
<stop offset="0.144416" stop-color="#C41818"/>
<stop offset="1" stop-color="#072B24"/>
</linearGradient>
<linearGradient id="paint1_linear_4230_10380" x1="817.362" y1="113.086" x2="767.637" y2="198.956" gradientUnits="userSpaceOnUse">
<stop offset="0.144416" stop-color="#C41818"/>
<stop offset="1" stop-color="#072B24"/>
</linearGradient>
<linearGradient id="paint2_linear_4230_10380" x1="733.362" y1="161.086" x2="683.637" y2="246.956" gradientUnits="userSpaceOnUse">
<stop offset="0.144416" stop-color="#C41818"/>
<stop offset="1" stop-color="#072B24"/>
</linearGradient>
<linearGradient id="paint3_linear_4230_10380" x1="508.362" y1="338.086" x2="458.637" y2="423.956" gradientUnits="userSpaceOnUse">
<stop offset="0.144416" stop-color="#C41818"/>
<stop offset="1" stop-color="#072B24"/>
</linearGradient>
<linearGradient id="paint4_linear_4230_10380" x1="1391.36" y1="639.086" x2="1341.64" y2="724.956" gradientUnits="userSpaceOnUse">
<stop offset="0.144416" stop-color="#C41818"/>
<stop offset="1" stop-color="#072B24"/>
</linearGradient>
<linearGradient id="paint5_linear_4230_10380" x1="1132.36" y1="635.086" x2="1082.64" y2="720.956" gradientUnits="userSpaceOnUse">
<stop offset="0.144416" stop-color="#C41818"/>
<stop offset="1" stop-color="#072B24"/>
</linearGradient>
</defs>
</svg>
