<svg width="1906" height="993" viewBox="0 0 1906 993" fill="none" xmlns="http://www.w3.org/2000/svg">
<g filter="url(#filter0_f_4326_10338)">
<path d="M738.714 58.3276L53 450.182C53 450.182 203 470.081 376.469 528.757C549.939 587.433 715.245 688.458 843.306 787.953C957.263 876.489 1138.71 940 1138.71 940L1853 531.819L1367.29 254.255L1224.43 335.891L738.714 58.3276Z" stroke="black" stroke-opacity="0.25" stroke-width="10" stroke-linejoin="round"/>
</g>
<mask id="mask0_4326_10338" style="mask-type:alpha" maskUnits="userSpaceOnUse" x="48" y="13" width="1810" height="893">
<path d="M738.714 18.3276L53 410.182C53 410.182 203 430.081 376.469 488.757C549.939 547.433 715.245 648.458 843.306 747.953C957.263 836.489 1138.71 900 1138.71 900L1853 491.819L1367.29 214.255L1224.43 295.891L738.714 18.3276Z" stroke="black" stroke-width="10" stroke-linejoin="round"/>
</mask>
<g mask="url(#mask0_4326_10338)">
<path d="M454.527 523.962L476.466 511.717L300.956 448.449L97.8944 403.039L743.303 44.3488L1208.61 324.464L1367.28 247.419L1796.87 483.654L1137.69 882.652L991.772 826.017L875.956 756.116L872.894 753.054L666.262 604.578L558.609 546.923L525.956 564.27L705.037 661.214L778.507 718.359L844.833 769.382L848.915 770.912L982.588 851.018L1143.81 927.042L1849.94 533.146L1875.45 486.716L1548.4 286.707L1367.28 192.315L1222.38 278.543L752.486 -0.0410156H730.037L32.0781 386.711L41.2618 421.407L92.7924 432.632L149.425 444.367L218.813 459.164L290.241 476.511L454.527 523.962Z" fill="black"/>
</g>
<path d="M1324.43 353.036L1374.43 381.609L1517.29 299.973L1467.29 271.4L1324.43 353.036Z" stroke="black" stroke-width="4" stroke-linejoin="round"/>
<mask id="mask1_4326_10338" style="mask-type:alpha" maskUnits="userSpaceOnUse" x="1201" y="412" width="197" height="115">
<path d="M1203 479.573L1281.57 524.473L1395.86 459.164L1317.29 414.264L1203 479.573Z" stroke="black" stroke-width="4" stroke-linejoin="round"/>
</mask>
<g mask="url(#mask1_4326_10338)">
<path d="M1359 470.5L1297.5 497L1323 514L1384 493L1411 454C1392.83 437.833 1355.6 405.1 1352 403.5C1348.4 401.9 1325.17 399.833 1314 399L1265 429.5L1286 445L1362 454L1359 470.5Z" fill="black"/>
</g>
<path d="M1353 483.655L1445.86 536.719L1488.71 512.228L1395.86 459.164L1353 483.655Z" stroke="black" stroke-width="4" stroke-linejoin="round"/>
<mask id="mask2_4326_10338" style="mask-type:alpha" maskUnits="userSpaceOnUse" x="1086" y="477" width="198" height="115">
<path d="M1088.71 544.881L1167.28 589.781L1281.57 524.472L1203 479.572L1088.71 544.881Z" stroke="black" stroke-width="4" stroke-linejoin="round"/>
</mask>
<g mask="url(#mask2_4326_10338)">
<path d="M1169.5 511L1145.5 499L1134 506L1060 534L1143.5 602.5L1191 609L1277 544.5L1255.5 530.5L1211 540L1172 567.5L1124 540L1169.5 511Z" fill="black"/>
</g>
<path d="M917.289 642.845L995.86 687.745L1167.29 589.782L1088.72 544.882L917.289 642.845Z" stroke="black" stroke-width="4" stroke-linejoin="round"/>
<path d="M1424.43 295.891L1449.46 310.159M1449.46 310.159L1475.45 324.974M1449.46 310.159L1435.14 318.341M1449.46 310.159L1463.72 302.014M1410.14 304.055L1435.14 318.341M1435.14 318.341L1460.14 332.627M1435.14 318.341L1420.86 326.505M1395.86 312.218L1420.86 326.505M1420.86 326.505L1445.86 340.791M1420.86 326.505L1406.57 334.668M1381.57 320.382L1406.57 334.668M1406.57 334.668L1431.57 348.955M1406.57 334.668L1392.29 342.832M1367.29 328.545L1392.29 342.832M1392.29 342.832L1417.29 357.118M1392.29 342.832L1378 350.995M1403 365.282L1378 350.995M1378 350.995L1349.43 367.323M1385.14 346.914L1410.14 361.2M1374.43 324.464L1424.43 353.036M1388.72 316.3L1438.72 344.873M1403 308.136L1453 336.709M1417.29 299.973L1467.29 328.545M1431.57 291.809L1481.57 320.382" stroke="black" stroke-width="2" stroke-linecap="round"/>
<path d="M1510.14 459.164L1638.71 532.636L1781.57 451L1653 377.527L1510.14 459.164Z" stroke="black" stroke-width="4" stroke-linejoin="round"/>
<path d="M1638.71 532.636L1710.14 573.455L1853 491.818L1781.57 451L1638.71 532.636Z" stroke="black" stroke-width="4" stroke-linejoin="round"/>
<path d="M1481.57 557.127L1610.14 630.6L1710.14 573.454L1581.57 499.981L1481.57 557.127Z" stroke="black" stroke-width="4" stroke-linejoin="round"/>
<path d="M1353 630.6L1481.57 704.073L1610.14 630.6L1481.57 557.127L1353 630.6Z" stroke="black" stroke-width="4" stroke-linejoin="round"/>
<path d="M1224.43 704.072L1353 777.545L1481.57 704.072L1353 630.6L1224.43 704.072Z" stroke="black" stroke-width="4" stroke-linejoin="round"/>
<path d="M1095.86 777.545L992.289 836.732" stroke="black" stroke-width="4" stroke-linecap="round"/>
<path d="M1095.86 777.545L1224.43 851.018L1353 777.545L1224.43 704.073L1095.86 777.545Z" stroke="black" stroke-width="4" stroke-linejoin="round"/>
<path d="M453 524.473L524.429 565.291L595.857 524.473L524.429 483.655L453 524.473Z" stroke="black" stroke-width="4" stroke-linejoin="round"/>
<path d="M538.711 361.2L638.711 418.345L752.997 353.036L652.997 295.891L538.711 361.2Z" stroke="black" stroke-width="4" stroke-linejoin="round"/>
<path d="M481.57 279.564L581.57 336.709L652.999 295.891L552.999 238.746L481.57 279.564Z" stroke="black" stroke-width="4" stroke-linejoin="round"/>
<mask id="mask3_4326_10338" style="mask-type:alpha" maskUnits="userSpaceOnUse" x="429" y="277" width="119" height="70">
<path d="M431.57 308.136L495.856 344.873L545.856 316.3L481.57 279.563L431.57 308.136Z" stroke="black" stroke-width="4" stroke-linejoin="round"/>
</mask>
<g mask="url(#mask3_4326_10338)">
<path d="M482.5 284.5V265.5L517 280.5L554.5 309L547 333L494.5 352.5L466 337L483.5 328L504 333L530 316L482.5 284.5Z" fill="black"/>
</g>
<path d="M203 438.755L388 333" stroke="black" stroke-width="4" stroke-linecap="round"/>
<path d="M481.57 393.854L581.57 451L638.713 418.345L538.713 361.2L481.57 393.854Z" stroke="black" stroke-width="4" stroke-linejoin="round"/>
<path d="M738.711 18.3273L1038.71 189.764L1067.28 173.436L767.282 2L738.711 18.3273Z" stroke="black" stroke-width="4" stroke-linejoin="round"/>
<path d="M1188.71 414.263L1203 422.427L1281.57 377.527L1267.28 369.363L1188.71 414.263Z" stroke="black" stroke-width="4" stroke-linejoin="round"/>
<path d="M1110.14 459.164L1124.43 467.327L1203 422.427L1188.71 414.264L1110.14 459.164Z" stroke="black" stroke-width="4" stroke-linejoin="round"/>
<path d="M1524.43 385.691L1581.57 418.345L1653 377.527L1595.86 344.873L1524.43 385.691Z" stroke="black" stroke-width="4" stroke-linejoin="round"/>
<path d="M1453 426.509L1510.14 459.164L1581.57 418.345L1524.43 385.691L1453 426.509Z" stroke="black" stroke-width="4" stroke-linejoin="round"/>
<path d="M1445.86 340.791L1495.86 369.364L1567.29 328.545L1517.29 299.973L1445.86 340.791Z" stroke="black" stroke-width="4" stroke-linejoin="round"/>
<path d="M1381.57 377.527L1431.57 406.1L1495.86 369.364L1445.86 340.791L1381.57 377.527Z" stroke="black" stroke-width="4" stroke-linejoin="round"/>
<path d="M1124.43 467.327L1095.85 483.654L995.854 426.509L824.425 328.545L952.997 255.073L638.711 75.4727" stroke="black" stroke-width="4" stroke-linecap="round" stroke-linejoin="round"/>
<mask id="mask4_4326_10338" style="mask-type:alpha" maskUnits="userSpaceOnUse" x="865" y="457" width="176" height="103">
<path d="M867.281 499.982L967.281 557.128L1038.71 516.31L938.71 459.164L867.281 499.982Z" stroke="black" stroke-width="4" stroke-linejoin="round"/>
</mask>
<g mask="url(#mask4_4326_10338)">
<path d="M967.492 482C970.826 480.167 977.792 476.5 978.992 476.5L940.492 453L870.992 480.5L855.992 499.5L942.492 557.5L972.492 564.5L1027.49 532.5C1032.66 530 1043.09 524.9 1043.49 524.5C1043.89 524.1 1044.99 518.333 1045.49 515.5L1040.49 513L1029.99 519L1020.99 520.5L964.992 550L942.492 534L882.992 499.5L888.492 494L940.492 467L967.492 482Z" fill="black"/>
</g>
<mask id="mask5_4326_10338" style="mask-type:alpha" maskUnits="userSpaceOnUse" x="679" y="351" width="176" height="103">
<path d="M681.57 393.855L781.57 451L852.999 410.182L752.999 353.037L681.57 393.855Z" stroke="black" stroke-width="4" stroke-linejoin="round"/>
</mask>
<g mask="url(#mask5_4326_10338)">
<path d="M778 376L790 369L758 340.5L673.5 382L687 406L792 465C812.333 454.333 853.3 432.7 854.5 431.5C855.7 430.3 864.333 418.333 868.5 412.5L856 406L845 412.5H839.5L781 438.5L758 431.5L695 393.5L713 382L754.5 362.5L778 376Z" fill="black"/>
</g>
<path d="M767.281 557.127L867.281 614.272L967.281 557.127L867.281 499.981L767.281 557.127Z" stroke="black" stroke-width="4" stroke-linejoin="round"/>
<path d="M655.039 452.02L717.284 487.736L745.855 471.409L683.61 435.693L669.325 443.857L655.039 452.02Z" stroke="black" stroke-width="4" stroke-linejoin="round"/>
<path d="M752.999 548.964L581.57 451L752.999 353.037M852.999 410.182L924.427 451" stroke="black" stroke-width="4" stroke-linecap="round" stroke-linejoin="round"/>
<path d="M698.419 498.809C698.899 499.083 699.509 498.917 699.783 498.437C700.057 497.958 699.891 497.347 699.411 497.073L698.419 498.809ZM620.344 453.041L619.848 452.173L618.328 453.041L619.848 453.909L620.344 453.041ZM684.629 416.305L685.126 415.436C684.818 415.261 684.441 415.261 684.133 415.436L684.629 416.305ZM748.419 453.909C748.899 454.183 749.509 454.017 749.783 453.537C750.057 453.058 749.891 452.447 749.411 452.173L748.419 453.909ZM699.411 497.073L620.84 452.173L619.848 453.909L698.419 498.809L699.411 497.073ZM620.84 453.909L685.126 417.173L684.133 415.436L619.848 452.173L620.84 453.909ZM684.133 417.173L748.419 453.909L749.411 452.173L685.126 415.436L684.133 417.173Z" fill="black"/>
<path d="M681.567 508.145L717.281 487.736M667.281 499.982L702.996 479.573M652.996 491.818L688.71 471.409M638.71 483.655L674.424 463.245M624.424 475.491L660.138 455.082M655.036 452.02L617.281 430.591M631.567 422.427L668.812 443.857M645.853 414.264L683.608 435.693M724.424 418.345L688.71 438.755M738.71 426.509L702.996 446.918M752.996 434.673L717.281 455.082M767.281 442.836L731.567 463.245M667.281 459.164L631.567 479.573M681.567 467.327L645.853 487.736M695.853 475.491L660.138 495.9M710.138 483.655L674.424 504.064M695.853 442.836L731.567 422.427M710.138 451L745.853 430.591M724.424 459.164L760.138 438.755M624.424 426.509L662.179 447.939M638.71 418.345L676.465 439.775" stroke="black" stroke-width="2" stroke-linecap="round"/>
<path d="M644.406 203.102C652.043 203.082 656.887 205.66 656.906 209.977C656.887 213.902 652.805 216.363 646.242 216.754V219.938H660.383V222.906H628.469V219.938H642.57V216.754C635.988 216.363 631.887 213.902 631.906 209.977C631.887 205.66 636.75 203.082 644.406 203.102ZM632.023 228.922V225.953H656.477V237.32H652.727V228.922H632.023ZM635.734 209.977C635.715 212.418 639.016 213.863 644.406 213.883C649.758 213.863 653.098 212.418 653.078 209.977C653.098 207.477 649.758 206.051 644.406 206.07C639.016 206.051 635.715 207.477 635.734 209.977ZM673.445 204.547C678.973 204.547 682.957 207.945 682.977 212.867C682.957 217.223 679.832 220.387 675.281 221.051V226.578C678.582 226.422 681.941 226.129 685.086 225.68L685.359 228.375C677.449 229.84 668.953 229.879 662.703 229.898L662.234 226.852C664.988 226.852 668.191 226.832 671.57 226.734V221.051C667.039 220.367 663.895 217.203 663.914 212.867C663.895 207.945 667.938 204.547 673.445 204.547ZM667.586 212.867C667.547 215.934 670.047 218.023 673.445 217.984C676.844 218.023 679.344 215.934 679.344 212.867C679.344 209.742 676.844 207.75 673.445 207.75C670.047 207.75 667.547 209.742 667.586 212.867ZM687.273 237.398V202.32H690.984V237.398H687.273ZM709.945 206.461V209.43H700.414V215.875H708.383V218.766H700.414V226.109C704.984 226.051 707.973 225.875 711.586 225.211L711.898 228.219C707.875 229.039 704.555 229.098 699.125 229.117H696.859V206.461H709.945ZM710.219 218.453V215.445H714.945V203.062H718.461V235.562H714.945V218.453H710.219ZM722.094 237.32V202.32H725.688V237.32H722.094ZM756.445 202.32V215.992H762.07V219.117H756.445V237.398H752.773V202.32H756.445ZM730.547 208.492V205.484H746.562V218.336H734.297V225.914C740.293 225.895 744.766 225.68 749.883 224.742L750.234 227.75C744.766 228.766 740.039 229 733.477 229.039H730.625V215.328H742.891V208.492H730.547ZM780.523 207.281C780.523 212.984 786.598 218.375 793.336 219.586L791.617 222.672C786.012 221.461 780.875 217.789 778.609 212.867C776.305 217.77 771.168 221.422 765.562 222.672L763.922 219.586C770.562 218.336 776.598 212.984 776.617 207.281V204.625H780.523V207.281ZM762.75 232.711V229.625H794.781V232.711H762.75ZM797.531 234V230.875L807.336 220.992C810.441 217.77 811.984 215.973 811.984 213.492C811.984 210.699 809.719 208.922 806.75 208.922C803.605 208.922 801.613 210.914 801.594 213.922H797.531C797.492 208.746 801.438 205.328 806.828 205.328C812.277 205.328 816.047 208.785 816.086 213.375C816.047 216.539 814.562 219.059 809.25 224.273L803.508 230.094V230.328H816.555V234H797.531Z" fill="black"/>
<path d="M1416.61 386V363.375H1430.8V366.344H1420.05V373.188H1430.05V376.125H1420.05V383.031H1430.92V386H1416.61ZM1442.56 362.312L1435.28 389.406H1432.31L1439.59 362.312H1442.56ZM1446.61 363.375L1452.89 381.781H1453.14L1459.42 363.375H1463.14L1454.98 386H1451.01L1442.89 363.375H1446.61Z" fill="black"/>
<path d="M830.612 560V537.375H844.8V540.344H834.05V547.188H844.05V550.125H834.05V557.031H844.925V560H830.612ZM856.562 536.312L849.281 563.406H846.312L853.594 536.312H856.562ZM860.606 537.375L866.887 555.781H867.137L873.419 537.375H877.137L868.981 560H865.012L856.887 537.375H860.606Z" fill="black"/>
<path d="M1217.11 447.633C1217.09 453.492 1220.94 459.547 1226.33 461.852L1224.3 464.742C1220.18 462.926 1216.89 459.059 1215.27 454.391C1213.65 459.391 1210.37 463.648 1206.29 465.641L1204.14 462.711C1209.41 460.23 1213.32 453.668 1213.36 447.633V443.922H1205.35V440.836H1225.08V443.922H1217.11V447.633ZM1229.49 472.32V437.32H1233.2V472.32H1229.49ZM1266.97 459.781V472.32H1263.26V462.711H1243.26V459.781H1266.97ZM1238.3 447.711C1238.28 442.77 1242.2 439.254 1247.48 439.273C1250.45 439.254 1253 440.406 1254.62 442.32H1263.26V437.32H1266.97V457.945H1263.26V453.141H1254.62C1252.98 455.055 1250.45 456.207 1247.48 456.188C1242.2 456.207 1238.28 452.691 1238.3 447.711ZM1241.85 447.711C1241.83 450.914 1244.2 453.043 1247.48 453.062C1250.62 453.043 1253.02 450.914 1253.02 447.711C1253.02 444.586 1250.62 442.418 1247.48 442.398C1244.2 442.418 1241.83 444.586 1241.85 447.711ZM1256.25 450.094H1263.26V445.367H1256.27C1256.46 446.109 1256.58 446.891 1256.58 447.711C1256.58 448.551 1256.46 449.352 1256.25 450.094ZM1182.91 492.82C1182.91 496.883 1186.08 500.652 1191.43 502.156L1189.71 505.086C1185.69 503.914 1182.7 501.434 1181.16 498.25C1179.61 501.844 1176.57 504.637 1172.45 505.984L1170.61 503.055C1175.96 501.473 1179.24 497.352 1179.24 492.82V492.391H1171.62V489.383H1179.24V485.164H1182.95V489.383H1190.53V492.391H1182.91V492.82ZM1175.1 513.875C1175.1 509.773 1179.54 507.449 1186.86 507.469C1194.11 507.449 1198.46 509.773 1198.46 513.875C1198.46 517.898 1194.11 520.223 1186.86 520.242C1179.54 520.223 1175.1 517.898 1175.1 513.875ZM1178.81 513.875C1178.79 516.121 1181.76 517.371 1186.86 517.391C1191.88 517.371 1194.85 516.121 1194.83 513.875C1194.85 511.57 1191.88 510.359 1186.86 510.359C1181.76 510.359 1178.79 511.57 1178.81 513.875ZM1194.44 506.648V485.32H1198.15V494.148H1203.23V497.195H1198.15V506.648H1194.44ZM1213.91 486.922C1218.52 486.883 1222.09 489.559 1222.85 493.484H1229.69V485.32H1233.4V504.109H1229.69V496.531H1222.87C1222.15 500.555 1218.55 503.25 1213.91 503.25C1208.55 503.25 1204.71 499.871 1204.73 495.047C1204.71 490.281 1208.55 486.883 1213.91 486.922ZM1208.28 495.047C1208.26 498.035 1210.61 500.125 1213.91 500.125C1217.15 500.125 1219.45 498.035 1219.45 495.047C1219.45 492.039 1217.15 489.988 1213.91 490.008C1210.61 489.988 1208.26 492.039 1208.28 495.047ZM1210.59 519.891V505.789H1214.26V509.852H1229.69V505.789H1233.4V519.891H1210.59ZM1214.26 516.844H1229.69V512.781H1214.26V516.844ZM1267.63 485.32V511.57H1264.12V485.32H1267.63ZM1237.71 503.836C1242.32 501.648 1244.8 496.883 1244.78 492.742V487.742H1248.38V492.742C1248.38 496.844 1250.66 500.984 1255.13 502.938L1253.06 505.789C1249.96 504.363 1247.81 501.863 1246.64 498.836C1245.37 502.195 1243.06 505.125 1239.78 506.688L1237.71 503.836ZM1244.43 519.578V508.367H1248.1V516.57H1268.65V519.578H1244.43ZM1252.01 496.961V493.914H1257.12V485.945H1260.68V510.555H1257.12V496.961H1252.01ZM1300.54 485.32V520.398H1296.87V501.297H1289.91V498.25H1296.87V485.32H1300.54ZM1272.96 512.117V488.445H1289.33V491.453H1276.71V498.25H1287.84V501.219H1276.71V509.031C1282.57 509.031 1286.63 508.855 1291.28 508.055L1291.67 511.062C1286.57 511.883 1282.18 512.098 1275.7 512.117H1272.96Z" fill="black"/>
<path d="M1637.62 419.688V441.031H1634.65V435.25H1630.15V432.875H1634.65V429.406H1630.15V426.969H1634.65V419.688H1637.62ZM1614.31 425.344V422.938H1620.87V419.656H1623.81V422.938H1630.06V425.344H1614.31ZM1615.87 432.062C1615.87 428.859 1618.52 426.672 1622.31 426.688C1626.07 426.672 1628.76 428.859 1628.77 432.062C1628.76 435.281 1626.07 437.469 1622.31 437.469C1618.52 437.469 1615.87 435.281 1615.87 432.062ZM1618.65 432.062C1618.63 433.969 1620.13 435.156 1622.31 435.156C1624.45 435.156 1625.96 433.969 1625.99 432.062C1625.96 430.219 1624.45 429.031 1622.31 429C1620.13 429.031 1618.63 430.219 1618.65 432.062ZM1619.34 447.062V439.156H1622.34V444.656H1638.24V447.062H1619.34ZM1650.91 424.812C1650.9 428.375 1653.38 431.625 1657.63 432.969L1656.22 435.281C1653.04 434.266 1650.71 432.156 1649.47 429.5C1648.26 432.562 1645.8 434.984 1642.44 436.156L1640.91 433.781C1645.29 432.344 1647.93 428.734 1647.94 424.844V424.062H1641.79V421.656H1656.94V424.062H1650.91V424.812ZM1644.69 442.344C1644.69 439.062 1648.27 437.141 1654.1 437.156C1659.87 437.141 1663.38 439.062 1663.38 442.344C1663.38 445.672 1659.87 447.609 1654.1 447.594C1648.27 447.609 1644.69 445.672 1644.69 442.344ZM1647.66 442.344C1647.65 444.219 1650.05 445.266 1654.1 445.25C1658.12 445.266 1660.49 444.219 1660.47 442.344C1660.49 440.516 1658.12 439.484 1654.1 439.5C1650.05 439.484 1647.65 440.516 1647.66 442.344ZM1660.16 436.469V419.656H1663.13V426.594H1667.19V429.031H1663.13V436.469H1660.16ZM1597.73 465.906C1597.72 470.594 1600.79 475.438 1605.11 477.281L1603.48 479.594C1600.18 478.141 1597.56 475.047 1596.26 471.312C1594.97 475.312 1592.34 478.719 1589.08 480.312L1587.36 477.969C1591.58 475.984 1594.7 470.734 1594.73 465.906V462.938H1588.33V460.469H1604.11V462.938H1597.73V465.906ZM1607.64 485.656V457.656H1610.61V485.656H1607.64ZM1637.56 457.688V478.906H1634.59V476.219H1628.96V474.125H1634.59V457.688H1637.56ZM1614.15 470.469C1619.32 470.422 1626.31 470.375 1632.28 469.625L1632.46 471.75C1630.07 472.156 1627.56 472.406 1625.09 472.578V478.031H1622.12V472.734C1619.4 472.844 1616.79 472.844 1614.53 472.844L1614.15 470.469ZM1616.34 463.688C1616.32 460.719 1619.15 458.75 1623.31 458.75C1627.4 458.75 1630.24 460.719 1630.24 463.688C1630.24 466.672 1627.4 468.562 1623.31 468.562C1619.17 468.562 1616.32 466.672 1616.34 463.688ZM1618.03 485.062V476.844H1620.96V482.656H1638.24V485.062H1618.03ZM1619.15 463.688C1619.13 465.344 1620.82 466.375 1623.31 466.375C1625.7 466.375 1627.42 465.344 1627.43 463.688C1627.42 462.016 1625.7 460.938 1623.31 460.969C1620.82 460.938 1619.13 462.016 1619.15 463.688ZM1665.01 457.656V478.656H1662.19V457.656H1665.01ZM1641.07 472.469C1644.76 470.719 1646.74 466.906 1646.73 463.594V459.594H1649.6V463.594C1649.6 466.875 1651.43 470.188 1655.01 471.75L1653.35 474.031C1650.87 472.891 1649.15 470.891 1648.21 468.469C1647.19 471.156 1645.35 473.5 1642.73 474.75L1641.07 472.469ZM1646.44 485.062V476.094H1649.38V482.656H1665.82V485.062H1646.44ZM1652.51 466.969V464.531H1656.6V458.156H1659.44V477.844H1656.6V466.969H1652.51ZM1691.33 457.656V485.719H1688.39V470.438H1682.83V468H1688.39V457.656H1691.33ZM1669.27 479.094V460.156H1682.36V462.562H1672.27V468H1681.18V470.375H1672.27V476.625C1676.96 476.625 1680.21 476.484 1683.93 475.844L1684.24 478.25C1680.16 478.906 1676.64 479.078 1671.46 479.094H1669.27Z" fill="black"/>
<path d="M375.741 570.781V573.312H350.116V570.781H361.366V564.812H352.366V562.469H356.553V553.656H352.303V551.25H373.397V553.656H369.116V562.469H373.303V564.812H364.303V570.781H375.741ZM359.491 562.469H366.209V553.656H359.491V562.469ZM400.941 548.688V567.594H398.128V548.688H400.941ZM377.097 564.688C380.987 563.062 383.503 560.953 384.956 558.438L377.597 559.219L377.159 556.781L385.925 556.281C386.237 555.344 386.425 554.375 386.519 553.344H378.441V550.938H389.409C389.409 553 389.159 554.938 388.597 556.719H392.503V549.156H395.316V565.094H392.503V559.125H387.597C385.925 562.297 383.034 564.906 378.534 566.844L377.097 564.688ZM380.441 574.219C385.737 573.438 389.956 570.312 389.941 566.781V565.969H392.878V566.781C392.878 570.312 397.097 573.438 402.378 574.219L401.222 576.531C396.878 575.812 393.175 573.672 391.425 570.688C389.659 573.672 385.956 575.812 381.628 576.531L380.441 574.219ZM426.953 567.031V576.312H408.266V567.031H411.797V563.438C409.078 563.547 406.5 563.562 404.234 563.562L403.859 561.094C409.141 561.109 416.109 561.109 422.203 560.344L422.391 562.438C419.906 562.859 417.328 563.125 414.797 563.281V567.031H426.953ZM405.016 557.25C409.25 556.281 411.781 553.688 411.797 550.75V549.406H414.828V550.75C414.828 553.547 417.406 555.922 421.516 556.844L420.234 559.062C416.984 558.328 414.578 556.656 413.359 554.391C412.141 556.828 409.719 558.688 406.391 559.531L405.016 557.25ZM411.172 573.906H424.016V569.406H411.172V573.906ZM423.984 565.594V548.688H426.953V565.594H423.984ZM454.028 548.656V576.719H451.091V561.438H445.528V559H451.091V548.656H454.028ZM431.966 570.094V551.156H445.059V553.562H434.966V559H443.872V561.375H434.966V567.625C439.653 567.625 442.903 567.484 446.622 566.844L446.934 569.25C442.856 569.906 439.341 570.078 434.153 570.094H431.966ZM466.197 574.312C461.916 574.312 458.697 571.703 458.541 568.094H461.884C462.072 570.016 463.916 571.422 466.197 571.438C468.947 571.422 470.916 569.438 470.916 566.75C470.916 564 468.884 562 466.041 561.969C464.228 561.969 462.838 562.578 462.072 563.969H458.822L460.291 551.375H473.103V554.312H463.134L462.384 560.656H462.603C463.541 559.75 465.134 559.141 466.853 559.125C471.119 559.141 474.259 562.297 474.259 566.656C474.259 571.109 470.916 574.312 466.197 574.312Z" fill="black"/>
<path d="M739.219 378.656V390.375H743.438V392.875H739.219V406.656H736.25V378.656H739.219ZM716.938 399.031C719.141 399.031 721.703 399.031 724.375 398.953V396.109C721.219 395.641 719.156 393.734 719.188 391.031C719.156 387.875 721.891 385.797 725.875 385.781C729.844 385.797 732.609 387.875 732.625 391.031C732.609 393.734 730.516 395.656 727.344 396.109V398.844C729.828 398.719 732.328 398.516 734.656 398.188L734.844 400.375C728.781 401.453 722.234 401.516 717.406 401.5L716.938 399.031ZM717.469 384.344V381.969H724.375V378.719H727.344V381.969H734.25V384.344H717.469ZM721.969 391.031C721.969 392.812 723.531 393.922 725.875 393.906C728.219 393.922 729.766 392.812 729.781 391.031C729.766 389.234 728.219 388.094 725.875 388.094C723.531 388.094 721.969 389.234 721.969 391.031ZM753.919 383.812C753.903 387.375 756.388 390.625 760.638 391.969L759.231 394.281C756.044 393.266 753.716 391.156 752.481 388.5C751.263 391.562 748.809 393.984 745.45 395.156L743.919 392.781C748.294 391.344 750.934 387.734 750.95 383.844V383.062H744.794V380.656H759.95V383.062H753.919V383.812ZM747.7 401.344C747.7 398.062 751.278 396.141 757.106 396.156C762.872 396.141 766.388 398.062 766.388 401.344C766.388 404.672 762.872 406.609 757.106 406.594C751.278 406.609 747.7 404.672 747.7 401.344ZM750.669 401.344C750.653 403.219 753.059 404.266 757.106 404.25C761.122 404.266 763.497 403.219 763.481 401.344C763.497 399.516 761.122 398.484 757.106 398.5C753.059 398.484 750.653 399.516 750.669 401.344ZM763.169 395.469V378.656H766.138V385.594H770.2V388.031H766.138V395.469H763.169ZM794.181 378.656V393.062H791.244V378.656H794.181ZM771.088 390.562C775.463 389.109 778.134 385.438 778.15 381.562V379.406H781.181V381.562C781.166 385.312 783.853 388.719 788.15 390.062L786.681 392.375C783.416 391.312 780.963 389.109 779.697 386.266C778.431 389.328 775.931 391.766 772.588 392.906L771.088 390.562ZM775.806 396.75V394.406H794.213V401.406H778.775V404H795.15V406.375H775.9V399.156H791.275V396.75H775.806ZM799.537 395.375C799.569 389.484 801.241 384.594 804.162 380.406H807.225C805.069 383.5 803.006 389.797 803.006 395.375C803.006 400.969 805.069 407.266 807.225 410.375H804.162C801.241 406.172 799.569 401.281 799.537 395.375ZM830.488 378.688V384.906H834.581V387.375H830.488V394.469H827.519V378.688H830.488ZM809.769 392.562V380.062H812.738V390.094C816.534 390.062 820.488 389.734 824.8 388.875L825.175 391.312C820.456 392.266 816.175 392.547 812.05 392.562H809.769ZM812.55 406.281V395.938H830.488V406.281H812.55ZM815.456 403.906H827.613V398.25H815.456V403.906ZM843.031 395.375C843 401.281 841.328 406.172 838.406 410.375H835.344C837.5 407.266 839.562 400.969 839.562 395.375C839.562 389.797 837.5 383.5 835.344 380.406H838.406C841.328 384.594 843 389.484 843.031 395.375Z" fill="black"/>
<path d="M1572.22 275.656V287.375H1576.44V289.875H1572.22V303.656H1569.25V275.656H1572.22ZM1549.94 296.031C1552.14 296.031 1554.7 296.031 1557.38 295.953V293.109C1554.22 292.641 1552.16 290.734 1552.19 288.031C1552.16 284.875 1554.89 282.797 1558.88 282.781C1562.84 282.797 1565.61 284.875 1565.62 288.031C1565.61 290.734 1563.52 292.656 1560.34 293.109V295.844C1562.83 295.719 1565.33 295.516 1567.66 295.188L1567.84 297.375C1561.78 298.453 1555.23 298.516 1550.41 298.5L1549.94 296.031ZM1550.47 281.344V278.969H1557.38V275.719H1560.34V278.969H1567.25V281.344H1550.47ZM1554.97 288.031C1554.97 289.812 1556.53 290.922 1558.88 290.906C1561.22 290.922 1562.77 289.812 1562.78 288.031C1562.77 286.234 1561.22 285.094 1558.88 285.094C1556.53 285.094 1554.97 286.234 1554.97 288.031ZM1586.92 280.812C1586.9 284.375 1589.39 287.625 1593.64 288.969L1592.23 291.281C1589.04 290.266 1586.72 288.156 1585.48 285.5C1584.26 288.562 1581.81 290.984 1578.45 292.156L1576.92 289.781C1581.29 288.344 1583.93 284.734 1583.95 280.844V280.062H1577.79V277.656H1592.95V280.062H1586.92V280.812ZM1580.7 298.344C1580.7 295.062 1584.28 293.141 1590.11 293.156C1595.87 293.141 1599.39 295.062 1599.39 298.344C1599.39 301.672 1595.87 303.609 1590.11 303.594C1584.28 303.609 1580.7 301.672 1580.7 298.344ZM1583.67 298.344C1583.65 300.219 1586.06 301.266 1590.11 301.25C1594.12 301.266 1596.5 300.219 1596.48 298.344C1596.5 296.516 1594.12 295.484 1590.11 295.5C1586.06 295.484 1583.65 296.516 1583.67 298.344ZM1596.17 292.469V275.656H1599.14V282.594H1603.2V285.031H1599.14V292.469H1596.17ZM1627.18 275.656V290.062H1624.24V275.656H1627.18ZM1604.09 287.562C1608.46 286.109 1611.13 282.438 1611.15 278.562V276.406H1614.18V278.562C1614.17 282.312 1616.85 285.719 1621.15 287.062L1619.68 289.375C1616.42 288.312 1613.96 286.109 1612.7 283.266C1611.43 286.328 1608.93 288.766 1605.59 289.906L1604.09 287.562ZM1608.81 293.75V291.406H1627.21V298.406H1611.78V301H1628.15V303.375H1608.9V296.156H1624.28V293.75H1608.81ZM1632.54 292.375C1632.57 286.484 1634.24 281.594 1637.16 277.406H1640.22C1638.07 280.5 1636.01 286.797 1636.01 292.375C1636.01 297.969 1638.07 304.266 1640.22 307.375H1637.16C1634.24 303.172 1632.57 298.281 1632.54 292.375ZM1663.49 275.688V281.906H1667.58V284.375H1663.49V291.469H1660.52V275.688H1663.49ZM1642.77 289.562V277.062H1645.74V287.094C1649.53 287.062 1653.49 286.734 1657.8 285.875L1658.18 288.312C1653.46 289.266 1649.18 289.547 1645.05 289.562H1642.77ZM1645.55 303.281V292.938H1663.49V303.281H1645.55ZM1648.46 300.906H1660.61V295.25H1648.46V300.906ZM1676.03 292.375C1676 298.281 1674.33 303.172 1671.41 307.375H1668.34C1670.5 304.266 1672.56 297.969 1672.56 292.375C1672.56 286.797 1670.5 280.5 1668.34 277.406H1671.41C1674.33 281.594 1676 286.484 1676.03 292.375Z" fill="black"/>
<path d="M924.219 486.656V498.375H928.438V500.875H924.219V514.656H921.25V486.656H924.219ZM901.938 507.031C904.141 507.031 906.703 507.031 909.375 506.953V504.109C906.219 503.641 904.156 501.734 904.188 499.031C904.156 495.875 906.891 493.797 910.875 493.781C914.844 493.797 917.609 495.875 917.625 499.031C917.609 501.734 915.516 503.656 912.344 504.109V506.844C914.828 506.719 917.328 506.516 919.656 506.188L919.844 508.375C913.781 509.453 907.234 509.516 902.406 509.5L901.938 507.031ZM902.469 492.344V489.969H909.375V486.719H912.344V489.969H919.25V492.344H902.469ZM906.969 499.031C906.969 500.812 908.531 501.922 910.875 501.906C913.219 501.922 914.766 500.812 914.781 499.031C914.766 497.234 913.219 496.094 910.875 496.094C908.531 496.094 906.969 497.234 906.969 499.031ZM938.919 491.812C938.903 495.375 941.388 498.625 945.638 499.969L944.231 502.281C941.044 501.266 938.716 499.156 937.481 496.5C936.263 499.562 933.809 501.984 930.45 503.156L928.919 500.781C933.294 499.344 935.934 495.734 935.95 491.844V491.062H929.794V488.656H944.95V491.062H938.919V491.812ZM932.7 509.344C932.7 506.062 936.278 504.141 942.106 504.156C947.872 504.141 951.388 506.062 951.388 509.344C951.388 512.672 947.872 514.609 942.106 514.594C936.278 514.609 932.7 512.672 932.7 509.344ZM935.669 509.344C935.653 511.219 938.059 512.266 942.106 512.25C946.122 512.266 948.497 511.219 948.481 509.344C948.497 507.516 946.122 506.484 942.106 506.5C938.059 506.484 935.653 507.516 935.669 509.344ZM948.169 503.469V486.656H951.138V493.594H955.2V496.031H951.138V503.469H948.169ZM979.181 486.656V501.062H976.244V486.656H979.181ZM956.088 498.562C960.463 497.109 963.134 493.438 963.15 489.562V487.406H966.181V489.562C966.166 493.312 968.853 496.719 973.15 498.062L971.681 500.375C968.416 499.312 965.963 497.109 964.697 494.266C963.431 497.328 960.931 499.766 957.588 500.906L956.088 498.562ZM960.806 504.75V502.406H979.213V509.406H963.775V512H980.15V514.375H960.9V507.156H976.275V504.75H960.806ZM984.537 503.375C984.569 497.484 986.241 492.594 989.162 488.406H992.225C990.069 491.5 988.006 497.797 988.006 503.375C988.006 508.969 990.069 515.266 992.225 518.375H989.162C986.241 514.172 984.569 509.281 984.537 503.375ZM1001.08 488.75C1003.64 488.766 1005.74 490.219 1006.97 492.75H1013.89V486.656H1016.83V514.719H1013.89V503.969H1007.18C1005.97 506.781 1003.78 508.422 1001.08 508.406C996.909 508.422 993.956 504.609 993.988 498.562C993.956 492.578 996.909 488.766 1001.08 488.75ZM996.8 498.562C996.816 503.016 998.55 505.75 1001.08 505.75C1003.61 505.75 1005.35 503.016 1005.36 498.562C1005.35 494.172 1003.61 491.422 1001.08 491.406C998.55 491.422 996.816 494.172 996.8 498.562ZM1007.82 495.188C1008.03 496.219 1008.18 497.344 1008.18 498.562C1008.18 499.625 1008.08 500.609 1007.89 501.531H1013.89V495.188H1007.82ZM1028.03 503.375C1028 509.281 1026.33 514.172 1023.41 518.375H1020.34C1022.5 515.266 1024.56 508.969 1024.56 503.375C1024.56 497.797 1022.5 491.5 1020.34 488.406H1023.41C1026.33 492.594 1028 497.484 1028.03 503.375Z" fill="black"/>
<path d="M1663.22 328.656V340.375H1667.44V342.875H1663.22V356.656H1660.25V328.656H1663.22ZM1640.94 349.031C1643.14 349.031 1645.7 349.031 1648.38 348.953V346.109C1645.22 345.641 1643.16 343.734 1643.19 341.031C1643.16 337.875 1645.89 335.797 1649.88 335.781C1653.84 335.797 1656.61 337.875 1656.62 341.031C1656.61 343.734 1654.52 345.656 1651.34 346.109V348.844C1653.83 348.719 1656.33 348.516 1658.66 348.188L1658.84 350.375C1652.78 351.453 1646.23 351.516 1641.41 351.5L1640.94 349.031ZM1641.47 334.344V331.969H1648.38V328.719H1651.34V331.969H1658.25V334.344H1641.47ZM1645.97 341.031C1645.97 342.812 1647.53 343.922 1649.88 343.906C1652.22 343.922 1653.77 342.812 1653.78 341.031C1653.77 339.234 1652.22 338.094 1649.88 338.094C1647.53 338.094 1645.97 339.234 1645.97 341.031ZM1677.92 333.812C1677.9 337.375 1680.39 340.625 1684.64 341.969L1683.23 344.281C1680.04 343.266 1677.72 341.156 1676.48 338.5C1675.26 341.562 1672.81 343.984 1669.45 345.156L1667.92 342.781C1672.29 341.344 1674.93 337.734 1674.95 333.844V333.062H1668.79V330.656H1683.95V333.062H1677.92V333.812ZM1671.7 351.344C1671.7 348.062 1675.28 346.141 1681.11 346.156C1686.87 346.141 1690.39 348.062 1690.39 351.344C1690.39 354.672 1686.87 356.609 1681.11 356.594C1675.28 356.609 1671.7 354.672 1671.7 351.344ZM1674.67 351.344C1674.65 353.219 1677.06 354.266 1681.11 354.25C1685.12 354.266 1687.5 353.219 1687.48 351.344C1687.5 349.516 1685.12 348.484 1681.11 348.5C1677.06 348.484 1674.65 349.516 1674.67 351.344ZM1687.17 345.469V328.656H1690.14V335.594H1694.2V338.031H1690.14V345.469H1687.17ZM1718.18 328.656V343.062H1715.24V328.656H1718.18ZM1695.09 340.562C1699.46 339.109 1702.13 335.438 1702.15 331.562V329.406H1705.18V331.562C1705.17 335.312 1707.85 338.719 1712.15 340.062L1710.68 342.375C1707.42 341.312 1704.96 339.109 1703.7 336.266C1702.43 339.328 1699.93 341.766 1696.59 342.906L1695.09 340.562ZM1699.81 346.75V344.406H1718.21V351.406H1702.78V354H1719.15V356.375H1699.9V349.156H1715.28V346.75H1699.81ZM1723.54 345.375C1723.57 339.484 1725.24 334.594 1728.16 330.406H1731.22C1729.07 333.5 1727.01 339.797 1727.01 345.375C1727.01 350.969 1729.07 357.266 1731.22 360.375H1728.16C1725.24 356.172 1723.57 351.281 1723.54 345.375ZM1740.08 330.75C1742.64 330.766 1744.74 332.219 1745.97 334.75H1752.89V328.656H1755.83V356.719H1752.89V345.969H1746.18C1744.97 348.781 1742.78 350.422 1740.08 350.406C1735.91 350.422 1732.96 346.609 1732.99 340.562C1732.96 334.578 1735.91 330.766 1740.08 330.75ZM1735.8 340.562C1735.82 345.016 1737.55 347.75 1740.08 347.75C1742.61 347.75 1744.35 345.016 1744.36 340.562C1744.35 336.172 1742.61 333.422 1740.08 333.406C1737.55 333.422 1735.82 336.172 1735.8 340.562ZM1746.82 337.188C1747.03 338.219 1747.18 339.344 1747.18 340.562C1747.18 341.625 1747.08 342.609 1746.89 343.531H1752.89V337.188H1746.82ZM1767.03 345.375C1767 351.281 1765.33 356.172 1762.41 360.375H1759.34C1761.5 357.266 1763.56 350.969 1763.56 345.375C1763.56 339.797 1761.5 333.5 1759.34 330.406H1762.41C1765.33 334.594 1767 339.484 1767.03 345.375Z" fill="black"/>
<path d="M402.793 260.453V263.422H392.207V271.977H406.465V275.023H374.434V271.977H388.535V263.422H378.418V247.016H402.48V250.023H382.129V260.453H402.793ZM420.621 253.227C420.621 259.633 424.215 266.02 429.566 268.422L427.301 271.391C423.336 269.398 420.328 265.453 418.785 260.668C417.242 265.707 414.195 269.965 410.152 272.055L407.809 269.047C413.238 266.449 416.852 259.711 416.871 253.227V247.25H420.621V253.227ZM425.699 258.969V255.961H433.512V244.32H437.184V279.398H433.512V258.969H425.699ZM461.066 246.977V248.93C461.027 251.273 461.027 254.75 460.168 259.281L456.496 258.93C457.258 255.062 457.375 252.23 457.414 250.023H443.41V246.977H461.066ZM441.301 262.289C443.449 262.289 445.891 262.27 448.449 262.211V254.828H452.121V262.094C455.871 261.938 459.738 261.664 463.254 261.156L463.488 263.852C456.184 265.141 447.824 265.277 441.652 265.297L441.301 262.289ZM446.613 278.578V268.227H450.324V275.57H470.402V278.578H446.613ZM465.48 270.609V244.32H469.27V255.453H474.074V258.578H469.27V270.609H465.48ZM386.582 301.227C386.543 307.418 390.156 313.766 395.371 316.305L393.066 319.273C389.258 317.281 386.309 313.375 384.766 308.707C383.203 313.668 380.137 317.867 376.152 319.938L373.848 316.93C379.219 314.352 382.852 307.633 382.871 301.227V295.25H386.582V301.227ZM397.988 327.32V292.32H401.699V306.266H407.324V309.43H401.699V327.32H397.988ZM439.996 312.398V315.406H425.699V327.281H422.066V315.406H407.965V312.398H439.996ZM411.988 307.945V294.195H435.973V307.945H411.988ZM415.621 305.055H432.262V297.164H415.621V305.055ZM470.559 292.32V310.328H466.887V292.32H470.559ZM441.691 307.203C447.16 305.387 450.5 300.797 450.52 295.953V293.258H454.309V295.953C454.289 300.641 457.648 304.898 463.02 306.578L461.184 309.469C457.102 308.141 454.035 305.387 452.453 301.832C450.871 305.66 447.746 308.707 443.566 310.133L441.691 307.203ZM447.59 314.938V312.008H470.598V320.758H451.301V324H471.77V326.969H447.707V317.945H466.926V314.938H447.59Z" fill="black"/>
<g filter="url(#filter1_f_4326_10338)">
<ellipse cx="424" cy="462.025" rx="28" ry="7.97468" fill="black" fill-opacity="0.25"/>
</g>
<path d="M468 388.084C468 412.43 459.902 417.786 424 462.025C388.27 418.163 380 412.43 380 388.084C380 363.737 399.699 344 424 344C448.301 344 468 363.737 468 388.084Z" fill="url(#paint0_linear_4326_10338)"/>
<rect x="393.656" y="357.928" width="60.6897" height="60.5258" rx="30.2629" fill="white"/>
<path d="M428.787 374.823V401.69H423.184V380.13H423.035L416.875 383.989V379.054L423.518 374.823H428.787Z" fill="#191F28"/>
<g filter="url(#filter2_f_4326_10338)">
<ellipse cx="1238" cy="656.025" rx="28" ry="7.97468" fill="black" fill-opacity="0.25"/>
</g>
<path d="M1282 582.084C1282 606.43 1273.9 611.786 1238 656.025C1202.27 612.163 1194 606.43 1194 582.084C1194 557.737 1213.7 538 1238 538C1262.3 538 1282 557.737 1282 582.084Z" fill="url(#paint1_linear_4326_10338)"/>
<rect x="1207.66" y="551.928" width="60.6897" height="60.5258" rx="30.2629" fill="white"/>
<path d="M1228.52 595.69L1228.48 591.646L1238.13 582.776C1240.63 580.383 1241.99 578.898 1241.99 576.765C1241.99 574.371 1240.19 572.887 1237.72 572.905C1235.2 572.887 1233.55 574.482 1233.57 577.062H1228.26C1228.24 571.811 1232.14 568.452 1237.8 568.452C1243.55 568.452 1247.37 571.736 1247.37 576.394C1247.37 579.455 1245.89 581.96 1240.36 586.97L1236.27 590.94V591.089H1247.74V595.69H1228.52Z" fill="#191F28"/>
<defs>
<filter id="filter0_f_4326_10338" x="0" y="5.32764" width="1906" height="987.673" filterUnits="userSpaceOnUse" color-interpolation-filters="sRGB">
<feFlood flood-opacity="0" result="BackgroundImageFix"/>
<feBlend mode="normal" in="SourceGraphic" in2="BackgroundImageFix" result="shape"/>
<feGaussianBlur stdDeviation="24" result="effect1_foregroundBlur_4326_10338"/>
</filter>
<filter id="filter1_f_4326_10338" x="392" y="450.051" width="64" height="23.9492" filterUnits="userSpaceOnUse" color-interpolation-filters="sRGB">
<feFlood flood-opacity="0" result="BackgroundImageFix"/>
<feBlend mode="normal" in="SourceGraphic" in2="BackgroundImageFix" result="shape"/>
<feGaussianBlur stdDeviation="2" result="effect1_foregroundBlur_4326_10338"/>
</filter>
<filter id="filter2_f_4326_10338" x="1206" y="644.051" width="64" height="23.9492" filterUnits="userSpaceOnUse" color-interpolation-filters="sRGB">
<feFlood flood-opacity="0" result="BackgroundImageFix"/>
<feBlend mode="normal" in="SourceGraphic" in2="BackgroundImageFix" result="shape"/>
<feGaussianBlur stdDeviation="2" result="effect1_foregroundBlur_4326_10338"/>
</filter>
<linearGradient id="paint0_linear_4326_10338" x1="449.362" y1="356.086" x2="399.637" y2="441.956" gradientUnits="userSpaceOnUse">
<stop offset="0.144416" stop-color="#C41818"/>
<stop offset="1" stop-color="#072B24"/>
</linearGradient>
<linearGradient id="paint1_linear_4326_10338" x1="1263.36" y1="550.086" x2="1213.64" y2="635.956" gradientUnits="userSpaceOnUse">
<stop offset="0.144416" stop-color="#C41818"/>
<stop offset="1" stop-color="#072B24"/>
</linearGradient>
</defs>
</svg>
