<svg width="1906" height="1134" viewBox="0 0 1906 1134" fill="none" xmlns="http://www.w3.org/2000/svg">
<g filter="url(#filter0_f_4360_10174)">
<path d="M991.571 53L53 589.029L914.429 1081L1853 544.971L1518.71 354.057L1505.86 346.714L1261.57 207.2L991.571 53Z" stroke="black" stroke-opacity="0.25" stroke-width="10" stroke-linejoin="round"/>
</g>
<path d="M991.571 13L53 549.029L914.429 1041L1853 504.971L1518.71 314.057L1505.86 306.714L1261.57 167.2L991.571 13Z" stroke="black" stroke-width="10" stroke-linejoin="round"/>
<path d="M1197.29 498.628L1242.29 524.328L1370.86 450.9L1325.86 425.2L1197.29 498.628Z" stroke="black" stroke-width="4" stroke-linejoin="round"/>
<path d="M695.859 917.171L811.574 983.257L875.859 946.543L760.145 880.457L695.859 917.171Z" stroke="black" stroke-width="4" stroke-linejoin="round"/>
<path d="M927.289 50.7143L1043 116.8L1107.29 80.0857L991.575 14L927.289 50.7143Z" stroke="black" stroke-width="4" stroke-linejoin="round"/>
<path d="M1454.43 351.771L1570.14 417.857L1634.43 381.143L1518.72 315.057L1454.43 351.771Z" stroke="black" stroke-width="4" stroke-linejoin="round"/>
<path d="M1415.86 476.6L1414.87 478.337C1415.48 478.688 1416.24 478.688 1416.85 478.337L1415.86 476.6ZM1326.85 423.463C1325.89 422.915 1324.67 423.249 1324.12 424.208C1323.57 425.167 1323.91 426.389 1324.87 426.937L1326.85 423.463ZM1416.85 478.337L1545.42 404.908L1543.44 401.435L1414.87 474.863L1416.85 478.337ZM1416.85 474.863L1326.85 423.463L1324.87 426.937L1414.87 478.337L1416.85 474.863Z" fill="black"/>
<path d="M1120.14 542.686L1210.14 594.086L1293.71 546.357L1248.71 520.657L1242.28 524.328L1197.28 498.628L1120.14 542.686Z" stroke="black" stroke-width="4" stroke-linejoin="round"/>
<path d="M1287.29 447.229L1309.82 460.062M1309.82 460.062L1333.21 473.387M1309.82 460.062L1296.93 467.421M1309.82 460.062L1322.65 452.736M1274.43 454.571L1296.93 467.421M1296.93 467.421L1319.43 480.271M1296.93 467.421L1284.07 474.764M1261.57 461.914L1284.07 474.764M1284.07 474.764L1306.57 487.614M1284.07 474.764L1271.22 482.107M1248.72 469.257L1271.22 482.107M1271.22 482.107L1293.72 494.957M1271.22 482.107L1258.36 489.45M1235.86 476.6L1258.36 489.45M1258.36 489.45L1280.86 502.3M1258.36 489.45L1245.5 496.793M1268 509.643L1245.5 496.793M1245.5 496.793L1219.79 511.479M1251.93 493.121L1274.43 505.971M1242.29 472.929L1287.29 498.629M1255.15 465.586L1300.15 491.286M1268 458.243L1313 483.943M1280.86 450.9L1325.86 476.6M1293.72 443.557L1338.72 469.257" stroke="black" stroke-width="2" stroke-linecap="round"/>
<path d="M1364.43 652.829L1480.14 718.915L1595.86 652.829L1480.14 586.743L1364.43 652.829Z" stroke="black" stroke-width="4" stroke-linejoin="round"/>
<path d="M1197.29 748.286L1313 814.371L1454.43 733.6L1338.72 667.514L1197.29 748.286Z" stroke="black" stroke-width="4" stroke-linejoin="round"/>
<path d="M1300.14 689.543L1299.15 691.28C1299.76 691.631 1300.52 691.631 1301.13 691.28L1300.14 689.543ZM1171.57 616.115L1170.58 614.378C1169.96 614.734 1169.57 615.397 1169.57 616.115C1169.57 616.832 1169.96 617.495 1170.58 617.851L1171.57 616.115ZM1545.42 551.766C1546.38 551.218 1546.71 549.996 1546.16 549.037C1545.62 548.078 1544.39 547.744 1543.44 548.292L1545.42 551.766ZM1301.13 687.806L1172.56 614.378L1170.58 617.851L1299.15 691.28L1301.13 687.806ZM1172.56 617.851L1211.13 595.823L1209.15 592.349L1170.58 614.378L1172.56 617.851ZM1301.13 691.28L1545.42 551.766L1543.44 548.292L1299.15 687.806L1301.13 691.28Z" fill="black"/>
<path d="M258.711 432.543L438.711 535.343L528.711 483.943L348.711 381.143L258.711 432.543Z" stroke="black" stroke-width="4" stroke-linejoin="round"/>
<path d="M387.289 564.714L445.146 597.757L586.575 516.986L528.718 483.943L387.289 564.714Z" stroke="black" stroke-width="4" stroke-linejoin="round"/>
<path d="M348.711 381.143L412.997 417.857L490.14 373.8L425.854 337.085L348.711 381.143Z" stroke="black" stroke-width="4" stroke-linejoin="round"/>
<path d="M528.717 586.743L425.859 645.486L593.002 740.943L490.145 799.686L580.145 851.086L785.859 733.6L528.717 586.743Z" stroke="black" stroke-width="4" stroke-linejoin="round"/>
<path d="M1248.71 520.657L1293.71 546.357L1351.57 513.314L1306.57 487.614L1248.71 520.657Z" stroke="black" stroke-width="4" stroke-linejoin="round"/>
<path d="M695.852 682.2L734.423 704.229L811.566 660.171L772.994 638.143L695.852 682.2Z" stroke="black" stroke-width="4" stroke-linejoin="round"/>
<path d="M594.836 587.66L650.856 619.785L676.571 605.1L620.55 572.975L607.693 580.317L594.836 587.66Z" stroke="black" stroke-width="4" stroke-linejoin="round"/>
<path d="M682.997 674.857L528.711 586.743L618.711 535.343L785.854 630.8L695.854 682.2L682.997 674.857Z" stroke="black" stroke-width="4" stroke-linecap="round" stroke-linejoin="round"/>
<path d="M633.828 629.833C634.307 630.106 634.918 629.94 635.192 629.46C635.466 628.981 635.299 628.37 634.82 628.096L633.828 629.833ZM563.609 588.579L563.113 587.71L561.593 588.579L563.113 589.447L563.609 588.579ZM621.467 555.536L621.962 554.667C621.655 554.492 621.278 554.492 620.971 554.667L621.467 555.536ZM678.828 589.447C679.307 589.721 679.918 589.554 680.192 589.074C680.466 588.595 680.299 587.984 679.82 587.71L678.828 589.447ZM634.82 628.096L564.105 587.71L563.113 589.447L633.828 629.833L634.82 628.096ZM564.105 589.447L621.962 556.404L620.971 554.667L563.113 587.71L564.105 589.447ZM620.971 556.404L678.828 589.447L679.82 587.71L621.962 554.667L620.971 556.404Z" fill="black"/>
<path d="M618.709 638.143L650.852 619.785M605.852 630.8L637.994 612.443M592.994 623.457L625.137 605.1M580.137 616.114L612.28 597.757M567.28 608.771L599.423 590.414M594.831 587.66L560.852 568.385M573.709 561.043L607.229 580.318M586.566 553.7L620.545 572.975M657.28 557.371L625.137 575.728M670.137 564.714L637.994 583.071M682.994 572.057L650.852 590.414M695.852 579.4L663.709 597.757M605.852 594.085L573.709 612.443M618.709 601.428L586.566 619.785M631.566 608.771L599.423 627.128M644.423 616.114L612.28 634.471M631.566 579.4L663.709 561.043M644.423 586.743L676.566 568.385M657.28 594.085L689.423 575.728M567.28 564.714L601.26 583.989M580.137 557.371L614.117 576.646" stroke="black" stroke-width="2" stroke-linecap="round"/>
<path d="M865.145 221.312C872.723 221.312 877.508 223.715 877.527 227.797C877.508 231.859 872.723 234.262 865.145 234.242C857.645 234.262 852.84 231.859 852.84 227.797C852.84 223.715 857.645 221.312 865.145 221.312ZM849.402 218.422V215.414H862.176V208.852H865.809V215.414H881.238V218.422H849.402ZM853.113 204.008V201.039H877.254V203.969C877.273 206.762 877.273 209.652 876.277 213.266L872.645 212.875C873.582 209.301 873.582 206.723 873.582 204.008H853.113ZM856.551 227.797C856.512 230.062 859.852 231.371 865.145 231.391C870.496 231.371 873.816 230.062 873.855 227.797C873.816 225.492 870.496 224.145 865.145 224.125C859.852 224.145 856.512 225.492 856.551 227.797ZM898.715 221.312C906.293 221.312 911.078 223.715 911.098 227.797C911.078 231.859 906.293 234.262 898.715 234.242C891.215 234.262 886.41 231.859 886.41 227.797C886.41 223.715 891.215 221.312 898.715 221.312ZM882.973 218.422V215.414H895.746V208.852H899.379V215.414H914.809V218.422H882.973ZM886.684 204.008V201.039H910.824V203.969C910.844 206.762 910.844 209.652 909.848 213.266L906.215 212.875C907.152 209.301 907.152 206.723 907.152 204.008H886.684ZM890.121 227.797C890.082 230.062 893.422 231.371 898.715 231.391C904.066 231.371 907.387 230.062 907.426 227.797C907.387 225.492 904.066 224.145 898.715 224.125C893.422 224.145 890.082 225.492 890.121 227.797ZM944.863 215.453V218.422H934.277V226.977H948.535V230.023H916.504V226.977H930.605V218.422H920.488V202.016H944.551V205.023H924.199V215.453H944.863ZM962.691 208.227C962.691 214.633 966.285 221.02 971.637 223.422L969.371 226.391C965.406 224.398 962.398 220.453 960.855 215.668C959.312 220.707 956.266 224.965 952.223 227.055L949.879 224.047C955.309 221.449 958.922 214.711 958.941 208.227V202.25H962.691V208.227ZM967.77 213.969V210.961H975.582V199.32H979.254V234.398H975.582V213.969H967.77ZM1003.14 201.977V203.93C1003.1 206.273 1003.1 209.75 1002.24 214.281L998.566 213.93C999.328 210.062 999.445 207.23 999.484 205.023H985.48V201.977H1003.14ZM983.371 217.289C985.52 217.289 987.961 217.27 990.52 217.211V209.828H994.191V217.094C997.941 216.938 1001.81 216.664 1005.32 216.156L1005.56 218.852C998.254 220.141 989.895 220.277 983.723 220.297L983.371 217.289ZM988.684 233.578V223.227H992.395V230.57H1012.47V233.578H988.684ZM1007.55 225.609V199.32H1011.34V210.453H1016.14V213.578H1011.34V225.609H1007.55ZM914.848 267.047V270.055H900.629V282.281H896.996V270.055H882.934V267.047H914.848ZM884.73 261.461C891.254 260.562 896.684 256.676 896.801 252.359H885.902V249.391H911.84V252.359H901.02C901.078 256.676 906.469 260.562 913.09 261.461L911.723 264.391C905.98 263.492 901.02 260.66 898.891 256.676C896.742 260.66 891.801 263.492 886.137 264.391L884.73 261.461ZM928.496 258.57C928.496 263.961 931.797 269.664 937.012 272.164L934.902 274.977C931.094 273.18 928.223 269.527 926.738 265.25C925.195 269.879 922.148 273.746 918.145 275.602L916.074 272.75C921.406 270.309 924.844 264.332 924.863 258.57V256.266H917.129V253.297H924.824V248.023H928.574V253.297H936.191V256.266H928.496V258.57ZM940.059 282.32V247.32H943.77V261.422H949.395V264.547H943.77V282.32H940.059ZM962.301 253.766C962.281 258.219 965.387 262.281 970.699 263.961L968.941 266.852C964.957 265.582 962.047 262.945 960.504 259.625C958.98 263.453 955.914 266.48 951.715 267.945L949.801 264.977C955.27 263.18 958.57 258.668 958.59 253.805V252.828H950.895V249.82H969.84V252.828H962.301V253.766ZM954.527 275.68C954.527 271.578 959 269.176 966.285 269.195C973.492 269.176 977.887 271.578 977.887 275.68C977.887 279.84 973.492 282.262 966.285 282.242C959 282.262 954.527 279.84 954.527 275.68ZM958.238 275.68C958.219 278.023 961.227 279.332 966.285 279.312C971.305 279.332 974.273 278.023 974.254 275.68C974.273 273.395 971.305 272.105 966.285 272.125C961.227 272.105 958.219 273.395 958.238 275.68ZM973.863 268.336V247.32H977.574V255.992H982.652V259.039H977.574V268.336H973.863Z" fill="black"/>
<path d="M1392.68 413.898V416.984H1360.65V413.898H1374.75V406.711H1364.32V388.703H1368.03V394.719H1385.22V388.703H1388.89V406.711H1378.42V413.898H1392.68ZM1368.03 403.703H1385.22V397.727H1368.03V403.703ZM1423.28 387.961V390.969H1412.62C1412.81 394.816 1417.87 398.215 1424.38 398.977L1422.97 401.984C1416.97 401.145 1412.05 398.332 1410.18 394.387C1408.26 398.332 1403.36 401.145 1397.38 401.984L1395.98 398.977C1402.52 398.215 1407.52 394.816 1407.7 390.969H1397.15V387.961H1423.28ZM1394.22 408V404.992H1408.32V399.445H1411.99V404.992H1426.21V408H1394.22ZM1398.24 420.578V410.617H1401.99V417.57H1422.54V420.578H1398.24ZM1440.41 395.227C1440.41 401.633 1444 408.02 1449.35 410.422L1447.09 413.391C1443.12 411.398 1440.11 407.453 1438.57 402.668C1437.03 407.707 1433.98 411.965 1429.94 414.055L1427.59 411.047C1433.02 408.449 1436.64 401.711 1436.66 395.227V389.25H1440.41V395.227ZM1445.48 400.969V397.961H1453.3V386.32H1456.97V421.398H1453.3V400.969H1445.48ZM1489.68 389.68V393.117C1489.66 397.434 1489.66 402.277 1488.35 409.445L1484.6 409.055C1485.95 402.277 1485.95 397.316 1485.97 393.117V392.688H1464.72V389.68H1489.68ZM1461.36 416.594V413.508H1473.51V401.164H1477.18V413.508H1493.27V416.594H1461.36Z" fill="black"/>
<path d="M1279.61 528V505.375H1293.8V508.344H1283.05V515.188H1293.05V518.125H1283.05V525.031H1293.92V528H1279.61ZM1305.56 504.312L1298.28 531.406H1295.31L1302.59 504.312H1305.56ZM1309.61 505.375L1315.89 523.781H1316.14L1322.42 505.375H1326.14L1317.98 528H1314.01L1305.89 505.375H1309.61Z" fill="black"/>
<path d="M732.612 682V659.375H746.8V662.344H736.05V669.188H746.05V672.125H736.05V679.031H746.925V682H732.612ZM758.562 658.312L751.281 685.406H748.312L755.594 658.312H758.562ZM762.606 659.375L768.887 677.781H769.137L775.419 659.375H779.137L770.981 682H767.012L758.887 659.375H762.606Z" fill="black"/>
<path d="M244.628 542.656V570.656H241.628V542.656H244.628ZM221.628 563.156C229.066 559.609 232.706 554.562 233.284 548.031H222.972V545.656H236.284C236.284 553.859 232.8 560.953 223.191 565.562L221.628 563.156ZM272.266 542.656V570.656H269.453V542.656H272.266ZM248.047 562.562C254 559.031 256.844 554.328 257.359 548.562H249.422V546.125H260.297C260.297 547.562 260.188 548.953 259.969 550.312H263.734V543.375H266.547V569.281H263.734V559.75H258.953V557.312H263.734V552.75H259.422C258.062 557.453 255.078 561.547 249.797 564.688L248.047 562.562ZM298.247 542.656V557.062H295.309V542.656H298.247ZM275.153 554.562C279.528 553.109 282.2 549.438 282.216 545.562V543.406H285.247V545.562C285.231 549.312 287.919 552.719 292.216 554.062L290.747 556.375C287.481 555.312 285.028 553.109 283.763 550.266C282.497 553.328 279.997 555.766 276.653 556.906L275.153 554.562ZM279.872 560.75V558.406H298.278V565.406H282.841V568H299.216V570.375H279.966V563.156H295.341V560.75H279.872Z" fill="black"/>
<path d="M377.691 444.688V465.188H374.722V454.656H369.378V452.25H374.722V444.688H377.691ZM354.378 459.344C358.675 457.891 361.362 454.203 361.347 450.344V449.25H355.284V446.812H370.378V449.25H364.378V450.344C364.362 453.828 366.894 457.344 371.128 458.75L369.597 461.125C366.456 460.031 364.128 457.781 362.909 455C361.691 458.094 359.237 460.562 355.909 461.75L354.378 459.344ZM359.503 472.062V463.344H362.472V469.656H378.441V472.062H359.503ZM404.484 444.656V472.656H401.484V444.656H404.484ZM381.484 465.156C388.922 461.609 392.562 456.562 393.141 450.031H382.828V447.656H396.141C396.141 455.859 392.656 462.953 383.047 467.562L381.484 465.156ZM431.247 444.656V459.062H428.309V444.656H431.247ZM408.153 456.562C412.528 455.109 415.2 451.438 415.216 447.562V445.406H418.247V447.562C418.231 451.312 420.919 454.719 425.216 456.062L423.747 458.375C420.481 457.312 418.028 455.109 416.763 452.266C415.497 455.328 412.997 457.766 409.653 458.906L408.153 456.562ZM412.872 462.75V460.406H431.278V467.406H415.841V470H432.216V472.375H412.966V465.156H428.341V462.75H412.872Z" fill="black"/>
<g filter="url(#filter1_f_4360_10174)">
<ellipse cx="931" cy="417.025" rx="28" ry="7.97468" fill="black" fill-opacity="0.25"/>
</g>
<path d="M975 343.084C975 367.43 966.902 372.786 931 417.025C895.27 373.163 887 367.43 887 343.084C887 318.737 906.699 299 931 299C955.301 299 975 318.737 975 343.084Z" fill="url(#paint0_linear_4360_10174)"/>
<rect x="900.656" y="312.928" width="60.6897" height="60.5258" rx="30.2629" fill="white"/>
<path d="M935.787 329.823V356.69H930.184V335.13H930.035L923.875 338.989V334.054L930.518 329.823H935.787Z" fill="#191F28"/>
<g filter="url(#filter2_f_4360_10174)">
<ellipse cx="1427" cy="556.025" rx="28" ry="7.97468" fill="black" fill-opacity="0.25"/>
</g>
<path d="M1471 482.084C1471 506.43 1462.9 511.786 1427 556.025C1391.27 512.163 1383 506.43 1383 482.084C1383 457.737 1402.7 438 1427 438C1451.3 438 1471 457.737 1471 482.084Z" fill="url(#paint1_linear_4360_10174)"/>
<rect x="1396.66" y="451.928" width="60.6897" height="60.5258" rx="30.2629" fill="white"/>
<path d="M1417.52 495.69L1417.48 491.646L1427.13 482.776C1429.63 480.383 1430.99 478.898 1430.99 476.765C1430.99 474.371 1429.19 472.887 1426.72 472.905C1424.2 472.887 1422.55 474.482 1422.57 477.062H1417.26C1417.24 471.811 1421.14 468.452 1426.8 468.452C1432.55 468.452 1436.37 471.736 1436.37 476.394C1436.37 479.455 1434.89 481.96 1429.36 486.97L1425.27 490.94V491.089H1436.74V495.69H1417.52Z" fill="#191F28"/>
<defs>
<filter id="filter0_f_4360_10174" x="0" y="0" width="1906" height="1134" filterUnits="userSpaceOnUse" color-interpolation-filters="sRGB">
<feFlood flood-opacity="0" result="BackgroundImageFix"/>
<feBlend mode="normal" in="SourceGraphic" in2="BackgroundImageFix" result="shape"/>
<feGaussianBlur stdDeviation="24" result="effect1_foregroundBlur_4360_10174"/>
</filter>
<filter id="filter1_f_4360_10174" x="899" y="405.051" width="64" height="23.9492" filterUnits="userSpaceOnUse" color-interpolation-filters="sRGB">
<feFlood flood-opacity="0" result="BackgroundImageFix"/>
<feBlend mode="normal" in="SourceGraphic" in2="BackgroundImageFix" result="shape"/>
<feGaussianBlur stdDeviation="2" result="effect1_foregroundBlur_4360_10174"/>
</filter>
<filter id="filter2_f_4360_10174" x="1395" y="544.051" width="64" height="23.9492" filterUnits="userSpaceOnUse" color-interpolation-filters="sRGB">
<feFlood flood-opacity="0" result="BackgroundImageFix"/>
<feBlend mode="normal" in="SourceGraphic" in2="BackgroundImageFix" result="shape"/>
<feGaussianBlur stdDeviation="2" result="effect1_foregroundBlur_4360_10174"/>
</filter>
<linearGradient id="paint0_linear_4360_10174" x1="956.362" y1="311.086" x2="906.637" y2="396.956" gradientUnits="userSpaceOnUse">
<stop offset="0.144416" stop-color="#C41818"/>
<stop offset="1" stop-color="#072B24"/>
</linearGradient>
<linearGradient id="paint1_linear_4360_10174" x1="1452.36" y1="450.086" x2="1402.64" y2="535.956" gradientUnits="userSpaceOnUse">
<stop offset="0.144416" stop-color="#C41818"/>
<stop offset="1" stop-color="#072B24"/>
</linearGradient>
</defs>
</svg>
