<svg xmlns="http://www.w3.org/2000/svg" width="60" height="60" viewBox="0 0 60 60" fill="none">
    <path d="M45.0005 50H32.5005V37.35C37.9989 36.7353 43.0781 34.1162 46.7675 29.9933C50.4569 25.8704 52.4979 20.5327 52.5005 15C52.5132 12.0915 51.9436 9.20998 50.8255 6.525C50.6962 6.22496 50.5094 5.95317 50.2755 5.725L50.0005 5.525C49.8409 5.39356 49.6644 5.28424 49.4755 5.2C49.254 5.09738 49.0178 5.0299 48.7755 5H48.5255H11.4755H11.2505C11.0025 5.01138 10.7578 5.06201 10.5255 5.15C10.3437 5.25614 10.1684 5.37301 10.0005 5.5L9.70054 5.725C9.4667 5.95317 9.27984 6.22496 9.15054 6.525C8.04101 9.21174 7.48001 12.0932 7.50054 15C7.50317 20.5327 9.54418 25.8704 13.2336 29.9933C16.923 34.1162 22.0021 36.7353 27.5005 37.35V50H15.0005C14.3375 50 13.7016 50.2634 13.2328 50.7322C12.7639 51.2011 12.5005 51.837 12.5005 52.5C12.5005 53.163 12.7639 53.7989 13.2328 54.2678C13.7016 54.7366 14.3375 55 15.0005 55H45.0005C45.6636 55 46.2995 54.7366 46.7683 54.2678C47.2372 53.7989 47.5005 53.163 47.5005 52.5C47.5005 51.837 47.2372 51.2011 46.7683 50.7322C46.2995 50.2634 45.6636 50 45.0005 50ZM12.5005 15C12.4959 13.3068 12.7401 11.6221 13.2255 10H46.7755C47.2609 11.6221 47.5052 13.3068 47.5005 15C47.5005 19.6413 45.6568 24.0925 42.3749 27.3744C39.093 30.6563 34.6418 32.5 30.0005 32.5C25.3593 32.5 20.9081 30.6563 17.6262 27.3744C14.3443 24.0925 12.5005 19.6413 12.5005 15Z" fill="#333D4B"/>
</svg>