<svg width="96" height="96" viewBox="0 0 96 96" fill="none" xmlns="http://www.w3.org/2000/svg">
<path d="M60.3188 50.3658C63.5868 47.7946 65.9721 44.2689 67.1429 40.2789C68.3138 36.289 68.2119 32.0333 66.8514 28.104C65.491 24.1747 62.9397 20.7671 59.5524 18.3553C56.1651 15.9435 52.1103 14.6475 47.9521 14.6475C43.794 14.6475 39.7392 15.9435 36.3519 18.3553C32.9646 20.7671 30.4133 24.1747 29.0528 28.104C27.6924 32.0333 27.5905 36.289 28.7613 40.2789C29.9322 44.2689 32.3175 47.7946 35.5855 50.3658C29.9857 52.6093 25.0998 56.3303 21.4484 61.1322C17.7971 65.9341 15.5173 71.6368 14.8521 77.6324C14.804 78.0702 14.8425 78.5131 14.9656 78.936C15.0886 79.3588 15.2937 79.7533 15.5692 80.0969C16.1255 80.7907 16.9347 81.2352 17.8188 81.3325C18.7029 81.4297 19.5893 81.1718 20.2832 80.6154C20.9771 80.0591 21.4216 79.2498 21.5188 78.3658C22.2508 71.8498 25.3578 65.8318 30.2462 61.4618C35.1346 57.0917 41.4618 54.6759 48.0188 54.6759C54.5758 54.6759 60.903 57.0917 65.7914 61.4618C70.6798 65.8318 73.7869 71.8498 74.5188 78.3658C74.6094 79.1848 75.0003 79.9413 75.6158 80.4892C76.2314 81.037 77.0281 81.3374 77.8521 81.3325H78.2188C79.0926 81.2319 79.8912 80.7901 80.4407 80.1033C80.9901 79.4165 81.2459 78.5403 81.1521 77.6658C80.4838 71.6531 78.1917 65.9357 74.5216 61.1265C70.8516 56.3172 65.9418 52.5974 60.3188 50.3658ZM47.9521 47.9991C45.3151 47.9991 42.7372 47.2171 40.5445 45.752C38.3519 44.287 36.6429 42.2046 35.6337 39.7682C34.6246 37.3319 34.3605 34.651 34.875 32.0646C35.3895 29.4782 36.6593 27.1024 38.524 25.2377C40.3887 23.373 42.7645 22.1031 45.3509 21.5886C47.9374 21.0742 50.6182 21.3382 53.0546 22.3474C55.4909 23.3566 57.5733 25.0655 59.0384 27.2582C60.5035 29.4508 61.2855 32.0287 61.2855 34.6658C61.2855 38.202 59.8807 41.5934 57.3802 44.0939C54.8797 46.5944 51.4884 47.9991 47.9521 47.9991Z" fill="#8B95A1"/>
</svg>
